<svg id="Layer_1" data-name="Layer 1" xmlns="http://www.w3.org/2000/svg" viewBox="0 0 612 460"><title>Artboard 1-shorter</title><path d="M43,222.21c1.31.91,2.58,1.18,2.73-.89a57,57,0,0,0-.3-6.44A35.31,35.31,0,0,1,38,201.06c-.08-.32-.11-.73-.32-.93-4.94-4.51-1.81-9,.48-13,2.61-4.56,4-8.8,1.25-13.66a1.85,1.85,0,0,1-.23-1.43c1.74-3.53,2.25-7.67,5.23-10.56.18-.18.63-.08,1.07-.12l-.54,9.22c1.49-.75,2.55-1,3-1.6a21.27,21.27,0,0,0,1.74-3.57,7.26,7.26,0,0,1,5.84-4.5c5.5-.91,10-3.92,14-7.83a16.47,16.47,0,0,1,7-4.38c1.83-.53,3.41-1.94,5-2.88.59.4,1.67,1.49,2,1.3,1.82-1.11,3.38-.47,5.2,0a8.06,8.06,0,0,0,7.78-2.32c1.93-2.06,4-2.59,6.51-2.92,2.89-.37,5.9-.65,7.85-3.57a4,4,0,0,1,3.5-1.23c3.56,1,6.72-.53,10-1.07a61.34,61.34,0,0,0,9.68-2.37c5.79-2,10.15-5.42,11.83-11.75a8.92,8.92,0,0,1,4.46-6.08c1.78-.94,3-3,4.39-4.43-3.64-7.21-3.07-12,2.13-15.39,2.06-1.35,4.41-2.65,5.19-5.38a3.06,3.06,0,0,1,1.76-2c-.08,3.39,2.13,5.17,3.31,7.41a26.19,26.19,0,0,0,4.78,6.69l.28-5,4.21-.91-6.08-5.66c.74-1.36,1.32-2.32,1.79-3.34,1-2.11.94-2.11,3.16-.46a3,3,0,0,0,1.26.51A46.87,46.87,0,0,1,182,89c.63-2.62,2.31-4.65,1.35-7.8-.7-2.32.1-5.1.23-7.74L192.9,76c-1.39-1.05-1.92-1.37-2.35-1.79s-1-1.17-1.86-2.12a16.29,16.29,0,0,1,3.06-1.66c3.05-.84,3.07-.77,1.19-4.08a29.21,29.21,0,0,1,3.16-2.07c2.63-1.44,2.65-1.4,3.45-5.25.51,1.1,1.19,1.86,1,2.31-.83,2.28,1.57,1.46,2.2,2.76l2.14-4.66-1.67-1.92,2.19-1.65,2,3.19,2.72-3.84,1.33,4.57,4.69-6.49c7.3,2,10.86,8.5,16.64,12.4l-1.33,6.7c1.28-1.27,1.67-1.64,2-2,2.31-2.37,4.77-3.84,8.28-2.25,1.54.7,3.68,1.47,5,.92,2.47-1,3.06,1.44,4.71,1.67,1.57-3.3,1.46-6.24-2.26-8.32,1-2.41,1.38-4.93,4.09-6,.38-.15.47-1.08.66-1.66.57-1.72,1.13-3.44,1.73-5.29,2.18.3,4,0,4.75-2.79A6,6,0,0,1,259.2,45a4,4,0,0,1,0-2.25c2.49-.64,2.81-3.54,5.32-4.61,2.29-1,4.21-3.31,6.7-4.64,2.2-1.18,3.4-1.86,4.36-.08,1.16,2.16,2.74,2.35,4.54,2,2.63-.57,5.33,1,8-.59a18.39,18.39,0,0,1,4.38-1.38c1.08-7.61,0-8.81-6-7.42l-4.23-3.26c1.25-.56,2-2.29,3.63-.63a6.19,6.19,0,0,0,.77.57c1.08-2,2.65-1.77,4.08-.61a36.83,36.83,0,0,1,3.5,3.79l3.47-1.46,3,3.64c2.9.41,5.77.63,8.68-.69.86-.39,3.08-1.25,3,1.44,3.4,0,6.4,4.22,9.89.86,1.16,1,2.06,1.95,3.1,2.69s2.38,1.38,3.55,0c1-1.11,1.84-1.27,2.86,0,.12.14,1-.21,1.41-.46,1-.54,1.93-1.17,3-1.86.76,2.26-.68,3.43-2.08,5.31l3.76-.93c1.7.16.56,4.38,3.52,2.67,1.53-.88,1.12-2.12-.36-3.3l3.42-2.7c.91,3,3.74,3.17,6.08,4.47A55.45,55.45,0,0,0,346,41.47a34.12,34.12,0,0,0-2.18,5.58h-6.43c-.16,2.28-3.39,4.39.29,6.44.32.18.12,1.53,0,2.29-1,4.43-4.69,7.05-7.1,10.54-.28.4-.62.76-.91,1.12.14,2.1,1.32,3.26,3,4.2,2.61,1.42,5.88,2.49,7.47,4.71,1.79,2.49,4.4,3.34,6.4,5.2a3.31,3.31,0,0,0,1.64,1c4.93-.88,7.9,3.83,12.38,4.29.89.09,1.8,1.39,2.45,2.31a11.1,11.1,0,0,0,9.19,5.15c1.3,0,2.57.7,3.87.8a4,4,0,0,1,4,3.15c.52,2,1.78,2.88,3.77,3.43a19.49,19.49,0,0,1,5.83,2.75c4.14,2.87,8,1,11.77-.55a5.39,5.39,0,0,0,3-3.69c.77-2.47,2.34-4.68,3.28-7.12,1-2.61,2.33-5.34,2.37-8a32.82,32.82,0,0,1,3.65-14.31c-1.62-3.28-2.6-6.55-1.14-10.14a3,3,0,0,0-.13-2.37c-2.11-3.16-.82-6,.48-9a29.33,29.33,0,0,0,1-4.19c.33-1.22.44-2.65,1.17-3.58,1.5-1.91.53-2.85-1.32-4,4.57-6.16,8-12.82,8-21.07a3.82,3.82,0,0,1,1-.72c1.8-.56,3-4.07,4.87-2.22,1.73,1.68,4.71,2.73,4.62,6.2-.08,2.93.7,5.88,1.16,9.26l4,1.86-1.7,3.65a20.22,20.22,0,0,0,2.2,2.77c2,1.76,1.93,4.48,3.13,6.65s1.23,5.29.73,7.79c-.83,4.17,1.49,7.34,2.51,10.89.46,1.59,2.33,1.8,3.64.29,1.5-1.73,3.54-2,5.61-3.19,1.09,5.55,6,7.05,9.62,10-.84,4.66.14,9.13,1.62,13.54.36,1.08,1.1,2.39.77,3.27-1.19,3.2.56,5.13,2.64,6.8,2.48,2,3.68,4.61,5,7.41a13,13,0,0,1,.77,8.57c-.25,1.27-.69,2.49-1.11,4l4.26,2-.37,7.06c2.12,2.77,5.37,3.44,8,4.51,2.39,1,4.19,4.22,7.48,2.37l2.55,5.18a12.12,12.12,0,0,1,2.12-.69c1.71,3.17,6.4,1.82,7.3,5.71l2.92-1.89,6.47,7-4.13-1.34a3.42,3.42,0,0,0,1.92,4.16c2.78,1.52,4.25,3.79,5.38,6.63,1,2.51,3,4.45,2.79,7.63-.16,2.65,2.11,5.13,4.73,6.78.29-.49.59-1,.88-1.46l1-1.73a5.48,5.48,0,0,1,1.47.65c1.53,1.43,3,2.92,4.58,4.48l1.24-2c3.7.57,4.79,2.93,4.57,6.32s-.72,6.59,1,9.68c1.06-.31,2.28-1.07,2.87-.73a4.61,4.61,0,0,1,1.75,2.73c.59,2.33,2.22,5,3.63,4.61,3-.82,4,1.14,4.73,3,1.19,2.89,2.68,5.28,5.66,6.62a4,4,0,0,1,1.74,2.2c.82,2.34,2,4.11,4.63,4.66.72.15,1.25,1.18,1.85,1.78.75-1.4,1.24-3.36,2.5-4.39,1.93-1.59-2.18-4,1-5,1.94,3.07,1.64,5.93-.09,9.08a13.67,13.67,0,0,0-1.42,8.34c.49,4.8,0,9.76.85,14.62-2.57,2.6-.28,4.11,1.09,6.16,1.89,2.82,2.57,6.29,4,9.41.89,2,.07,5.46-1.2,7.5-2.85,4.56-2.81,9.79-4.37,14.61-.71,2.2-1.22,4.47-2,6.65-.68,1.9-1.5,3.71-.61,5.77a2.11,2.11,0,0,1,.21,1.42c-1.59,3.76-1.55,8.23-4.32,11.42-2.07,2.38-3.77,4.58-2.25,8.13-3.15,2-6.06,3.8-8.92,5.67a5.18,5.18,0,0,0-1.77,1.7c-2.06,3.89-5.18,7.21-6.32,11.61-.29,1.11-.47,2.53-1.23,3.17-2.92,2.42-3.18,6-4.42,9.17-.43,1.09-.24,2.42-.35,3.92-6.26,2.22-7.43,8.3-9.17,13.93-.63,2-.6,4.24-1.21,6.27-.89,2.94-2.46,5.77-.38,8.81-1,1.76.55,4.9-2.86,5.39-2.84,3.61-6.82,3.62-10.86,3.51-1.66,0-3.33.06-5,0a23.93,23.93,0,0,0-17.39,6.28c-3.75,3.36-7.58,6.39-13.11,6-1.1-.07-1.91,1.35-3.64,1a5.64,5.64,0,0,1-3.13-1c-2.26-1.67-5.14-2.5-7.88-3.73l4-3.76c-2,.45-3.1.44-3.86.91-1.23.76-2.16,2-3.43,2.69-.79.4-2,0-3.35,0l4.22-4.94c-2.52-3.86-5-2.17-7.5-.84l1,2.33c-6.4.26-10.37,5.39-16.45,7.45-3.59-1.51-7.52-3.21-11.48-4.82a14,14,0,0,0-2.88-.59c-2.09-.36-4.19-.67-6.28-1.06-1.6-.29-3.15-1-4.49.85-.28.4-2.34.24-2.84-.32a10.13,10.13,0,0,0-8.73-3.71c-2.12.1-4-1.29-5.36-3.22a14.5,14.5,0,0,0-3.18-3.76,11.14,11.14,0,0,1-4.81-8.07,4.31,4.31,0,0,0,1.56-5.44A23.38,23.38,0,0,0,377,345.69c-1.35-.76-3.59-.55-5.22-.09a10,10,0,0,1-7.28-.12,10.87,10.87,0,0,0,5.7-9.13c.3-4.12-3.58-6.22-4.19-10.27-4,3.69-2.73,9-5.06,12.46-2.07.18-4,.21-5.79.53s-3.44.93-6,1.65l1.82-5.34,5.72.35c.24-3.35-.13-7.06.9-10.31s3.51-6.25,5.68-9.91l-1-3.77,2.61-2-2.38-4.86-.58,3.77c-2.87.54-4.25,2.23-4.86,5-.55,2.45-1.83,4.49-4.66,5.25a15.31,15.31,0,0,0-4.84,2.38,18,18,0,0,0-4.59,4.3c-2.19,3.29-5.78,5.78-5.91,10.16-4.4-.62-7.67-2.83-10.87-6.16l2.8-.73c-.24-3.46-.15-7.15-3.69-9.68-1.41-1-3-1.72-3-4.11,0-2.11-1.69-3.39-4.16-3a19.13,19.13,0,0,1-3.47-.13c-3.59-4-3.59-4-.74-7.19-1.09-2.66-3-2.77-5.21-1.49-1.36-4.09-1.65-4.31-5.54-3.36a6.48,6.48,0,0,1-6.07-1.19c-2.28-1.84-4.66-2.94-7.78-1.43-1,.49-2.86-.25-4.11-.87-2.21-1.12-4.16-2.76-6.39-3.84-3.1-1.5-6.27-3.22-9.87-1.18a4.56,4.56,0,0,1-2,.21c-6.14.22-12.29.24-18.41.71a24.86,24.86,0,0,0-8.09,2.09c-7.81,3.5-16.06,5.32-24.43,6.61a24.52,24.52,0,0,1-7.42-.49,11,11,0,0,0-7.22,1.07c-6.28,3.33-12.37,7.1-19.47,8.63a4.64,4.64,0,0,0-3.45,3.91,12.37,12.37,0,0,1-5,7.22c-1.78,1.35-4.33,1.69-6.53,2.48-3.21-3.25-6.77-1-10.14-.51a53.73,53.73,0,0,0-6.92,2,4.54,4.54,0,0,0-4.37-1.35c-2.85.43-5.87-.43-8.82-.51-2,0-3.94.35-5.91.48-2.59.17-5.05.83-7.79.37a7.8,7.8,0,0,0-9,4.84c-1,2.35-2.85,3.22-5.18,2.48-1.77-.56-2.74.19-3.95,1.22A68.66,68.66,0,0,1,99,337.2c-2.82,2-6.46,2.13-9.28,1.59-4-.77-7.93-.17-11.86-.6a20.79,20.79,0,0,1-11.07-4.79,34.84,34.84,0,0,0-5.68-4c-1.32-.69-3-.68-5.18-1.11-1.5-2.75-1.37-6.23-.48-9.88,5.4,2,9.75-.63,9.48-6.11a15.2,15.2,0,0,1,2-8.3c2.15-3.92,1.66-7.54-.34-11.16-1.77-3.19-4.22-6.1-5.47-9.46a39.3,39.3,0,0,1-2.53-12c-.18-4.73.21-9.34-3.85-12.81a2.25,2.25,0,0,1-.79-1.25c-.45-3.55-3.14-5.72-5-8.43a11.07,11.07,0,0,1-2.08-5.4,15,15,0,0,0-2.78-8.38c-2.31-3.23-4.89-6.27-7.35-9.4l-3.28-4.16,2.85-1.37,3.5,5.23c2.63,0,2.67-2,3.19-3.45Z"/><path d="M501,414.58c2,.76,3.19,2.39,3,5.45-.33,4.87-.09,9.77-.09,14.94l-3-6.14c-3.33,1.86-1.37,5.21-3.12,7.28s1,5-.23,7.67c-4.18,1.85-3.24-2.66-4.6-4.31l-9.83,11.59-10.65-1.73c-2-2.08-4-4.8-6.65-6.65-2.39-1.68-3.07-4.19-4.55-6.31a1.2,1.2,0,0,1-.2-1c1.7-4-1-6.22-3.2-8.94-3.69-4.49-4.39-9.78-2.36-15.38a4.89,4.89,0,0,1,.32.79c.11.47.17,1,.28,1.67.47-.06.94-.28,1.28-.15,4.41,1.61,9,2.92,13.16,5s8.47.52,12.67,1c2.11-3.43,5.57-1.57,8.41-2.18S497.28,415.64,501,414.58Z"/><path d="M263.62,19.48c3.24,2.47,6.7,2.17,10.2.62,2.1-.93,3.76-.63,5.11,1.51-1.41,3.59-5,4.89-7.79,7.4-3.67-2.7-7.75-1.4-11.72-1.36C260.89,21.75,260.89,21.75,263.62,19.48Z"/><path d="M368.29,348.92c-3.52.65-6.57-1.14-8.22,2-4.26-1-8.74,1.44-12.88-.8-.64-.35-.86-1.47-1.36-2.4,4-.65,7.51-1.34,11.08-1.76,1.32-.15,2.83-.62,4,1.12a2.65,2.65,0,0,0,3.57.55C365.06,347.31,366.33,348.22,368.29,348.92Z"/><path d="M351.21,60.49h-7.6l.63-5.64c2.48-1.4,2.48-1.4,6.64-.75l-2.6,4.46,3.17,1Z"/><path d="M496.5,402.43l1.82-2c1.44,1.29,2.81,2.39,4,3.65,1,1,1.32,2.39.13,3.47-1.38,1.25-2.39.34-3.2-.91S497.48,403.91,496.5,402.43Z"/><path d="M43.12,222.06c-4-1.18-4.72-4.71-5.76-8-.23-.72.24-1.66.57-3.56,1.61,2.82,3.35,4.13,3.13,6.82-.14,1.67,2.93,2.54,1.9,4.86Z"/></svg>