<?xml version="1.0" encoding="utf-8"?>
<!-- Generator: Adobe Illustrator 20.1.0, SVG Export Plug-In . SVG Version: 6.00 Build 0)  -->
<svg version="1.1" id="Australia" xmlns="http://www.w3.org/2000/svg" xmlns:xlink="http://www.w3.org/1999/xlink" x="0px" y="0px"
	 viewBox="0 0 300 300" style="enable-background:new 0 0 300 300;" xml:space="preserve">
<style type="text/css">
	.st0{fill:#0A0606;}
</style>
<path class="st0" d="M12.6,147.7L12.6,147.7l0.2,0.2l0.1,0.1H13l0.1-0.1v-0.1v-0.2l-0.1-0.1v-0.1v-0.2v-0.1V147l-0.1-0.1v-0.1
	l-0.1-0.1l-0.1-0.1l-0.1-0.1h-0.1l0,0v0.1l0,0h-0.2v-0.2l0.1-0.3l-0.2-0.1l-0.1-0.2l-0.1-0.4l-0.2-0.3v-0.2l-0.1-0.2l-0.1-0.3
	l-0.2-0.3v-0.2v-0.2v-0.1l0.1-0.1v-0.1h-0.1h-0.1h-0.1l-0.1-0.1l-0.1,0.1l-0.1,0.1l-0.1,0.1v0.1v0.3v0.3l0.2,0.5l0.2,0.4v0.1
	l-0.1,0.1l0.1,0.1l0.2,0.3l0.4,0.7l0.2,0.2l0.4,0.4l0.1,0.1L12.6,147.7z M114.5,73.2l0.4,0.4l0.2,0.1v-0.2v-0.2l-0.1-0.2l-0.1-0.1
	v-0.1l-0.2-0.4l-0.1-0.1h-0.1v0.1v0.3L114.5,73.2z M91.2,73.5L91.2,73.5L91.2,73.5L91.2,73.5l0.2,0.1l0,0l0.1,0.1h0.1v-0.1v-0.1l0,0
	h-0.1v-0.1v-0.1v-0.1v-0.1V73v-0.1L91.4,73v0.1v0.1v0.1l-0.1-0.1h-0.1l-0.1,0.1L91.2,73.5L91.2,73.5z M102.1,66.1L102.1,66.1
	L102.1,66.1l0.2,0.1h0.1h0.1h0.1h0.1h0.1l0,0l-0.2-0.1l-0.2-0.1L102.1,66.1L102.1,66.1L102.1,66.1L102.1,66.1z M12,142.2L12,142.2
	L12,142.2h0.1v-0.1v-0.2v-0.1l0.1-0.2v-0.1v-0.3v-0.1l0.1-0.1v-0.1v-0.1v-0.2l-0.2,0.1l-0.1,0.2v0.5v0.2l0,0.4V142.2L12,142.2z
	 M88.6,76L88.6,76l0.2-0.1L88.6,76h0.2l0.1-0.1H89h0.2h0.1h-0.1L89.1,76L89,76.2h-0.1h-0.1v0.1v0.1h0.1H89l0.6-0.2l0.1-0.1L89.6,76
	l-0.2-0.3l-0.2-0.1v-0.1l-0.1-0.1H89h-0.1v-0.1L89,75v-0.1h-0.1l-0.3,0.2l-0.1,0.1h0.1l-0.1,0.1v0.1v0.1v0.1l-0.1-0.1h-0.1l0,0v0.1
	l0,0v0.1v0.1l-0.1,0.1L88.6,76L88.6,76z M12.4,140.2L12.4,140.2v0.1V140.2l0.1-0.1l0.1-0.2l-0.1-0.1v-0.2l0.2-0.6v-0.2v-0.1
	l-0.1,0.3l-0.1,1.1L12.4,140.2L12.4,140.2z M87.6,75.6l0.2,0.1l0,0h0.1l0,0l0,0l0,0H88h0.1h0.1l0.1-0.1h-0.1v-0.1l0.1-0.1v-0.1v-0.1
	h-0.1h-0.1v0.1L88,75.4l-0.2,0.1L87.6,75.6L87.6,75.6L87.6,75.6L87.6,75.6z M27.2,112.8L27.2,112.8l0.1-0.1l0,0h0.1l0.1,0.1v0.1
	l0.2-0.1l0.1-0.1v-0.1l0,0l0.1-0.1l0,0H28v-0.1v-0.1v-0.1l0.2-0.2v-0.1v-0.1v-0.1v-0.2v-0.1h-0.1l-0.2,0.2l-0.5,0.5l-0.1,0.2
	l-0.1,0.3L27.2,112.8L27.2,112.8L27.2,112.8z M92.7,71L92.7,71L92.7,71L92.7,71L92.7,71l0.2,0.2l0,0l0,0l0,0v-0.1l0,0l0,0H93l0,0
	l0,0l0.2-0.1h0.1v-0.1l-0.1-0.2v-0.1v-0.1l0.1-0.2l0.1-0.2V70h-0.1h-0.1l0,0l0,0v-0.1v-0.1h-0.1H93v0.1l0,0L92.9,70v0.1l0.1,0.1h0.1
	v0.2v0.1L93,70.4l-0.1-0.1h-0.1v0.1v0.2L92.7,71L92.7,71L92.7,71z M113.4,74.2L113.4,74.2L113.4,74.2L113.4,74.2L113.4,74.2
	l-0.1-0.2l-0.1-0.1l-0.1,0.1v0.5v0.1l0.1,0.1l0.1,0.1h0.1h0.1l0.1,0.1V75l0.1-0.1v-0.2v-0.2L113.4,74.2L113.4,74.2z M29.4,188.7
	L29.4,188.7h0.1v-0.2l-0.1-0.3V188l-0.1,0.1v0.1l0.1,0.2V188.7z M227.4,230.4L227.4,230.4l-0.2,0.1l-0.1,0.1l-0.2,0.2l-0.1,0.1h0.1
	h0.2h0.1l0,0l0.1,0.1h0.1h0.1l0,0h0.1h0.2h0.2l0.2,0.1l0.2,0.1l0,0l0,0l0,0l0,0l0.1-0.1V231v-0.1l-0.1-0.1l0,0l0,0l0,0h-0.1h-0.1
	l0,0l0,0v-0.1l0,0l-0.1-0.1l0,0h0.1l0,0h-0.1l0,0H228l0,0l0,0h-0.1L227.4,230.4z M236.4,232.6h0.1h0.1l0.1-0.1l0,0h0.4h0.1l0,0v-0.1
	h-0.1H237h-0.1h-0.1l-0.2-0.1h-0.1l-0.3,0.1l-0.3-0.1h-0.1l0.1,0.1l0.1,0.1l0.1,0.1H236.4z M227.9,229.8L227.9,229.8v0.2l0.2,0.1
	h0.1l0.2,0.1l0.2-0.1l0.3-0.2h0.1h0.3h0.1l0,0l-0.2-0.2h-0.1H229h-0.1l-0.3,0.1h-0.1l-0.3-0.1l0,0l0,0l0,0h-0.1l0,0l0,0v0.1l0,0
	l-0.2,0.2L227.9,229.8z M247.2,258.3L247.2,258.3l-0.1-0.2L247,258h-0.1h-0.1h-0.1l-0.1,0.1l-0.2,0.1l-0.1,0.1l-0.1,0.1v0.1l0.1,0.1
	h0.2l-0.1,0.2l-0.1,0.1l-0.1,0.1v0.1l0,0l0.1-0.1h0.1l0.4-0.1l0,0l-0.2-0.1l-0.1-0.2h0.2h0.3l0.2-0.1L247.2,258.3L247.2,258.3z
	 M248.3,256.2L248.3,256.2l-0.2-0.1L248,256h-0.1h-0.1l0.1,0.1l0,0h0.2h0.1L248.3,256.2l0.1,0.1h0.1l0,0l0,0L248.3,256.2
	L248.3,256.2z M242.3,262L242.3,262l-0.1-0.2v-0.1v-0.1v-0.1v-0.1l-0.2-0.1l-0.1-0.2h-0.1l-0.1,0.1v0.1h0.1h0.1l0,0h-0.3h-0.1v0.1
	l0.2,0.1h0.3l0.1,0.1l-0.1,0.1h-0.1l-0.1,0.1v0.2l0,0h0.1h0.1h0.1h0.1H242.3l0.2-0.1v-0.2L242.3,262z M220.3,240L220.3,240h-0.1
	v-0.1v-0.1l0.1-0.3v-0.1v-0.1l-0.1-0.3v-0.2v-0.3v-0.1v-0.1v-0.1l-0.1-0.2l-0.1-0.1l-0.3-0.1l-0.2-0.2h-0.1h-0.1h-0.1h-0.1l-0.1,0.1
	v0.1l0.1,0.2v0.1l-0.1,0.1l-0.1,0.1l-0.2,0.1h-0.1h-0.1v0.1v0.2l0,0l-0.1,0.1l0,0l0,0l0.1,0.1l0,0v0.3v0.2l-0.1,0.1v0.1v0.4v0.1
	l0.1,0.1l0.1,0.1l0.1,0.1v0.2v0.3v0.1h-0.1l0.1,0.3v0.1l0.1,0.1h0.1l0.6-0.3h0.1h0.1h0.1v-0.1V241h0.1l0.1-0.1h0.1v-0.1v-0.1v-0.1
	h0.1l0,0v-0.1v-0.2v-0.1L220.3,240L220.3,240L220.3,240z M241.9,263.2l-0.2-0.2l0,0l-0.2-0.5h-0.1l-0.1,0.1l-0.2,0.2l-0.1,0.1v0.1
	v0.1l0.1,0.1v0.1l0,0l-0.1,0.1l-0.1-0.1l-0.1-0.1h-0.1h-0.1h-0.1v0.1l0.1,0.1v0.1v0.3v0.1l0,0h-0.1l-0.4-0.3H240v0.1l0.1,0.1
	l0.1,0.1l0.1,0.1l0.1,0.1l0.1,0.1h0.1l0.1-0.1l0.1-0.1l0.1-0.3l0.1-0.1l0.1,0.1l0,0H241l0,0h0.1l0,0l0.1,0.1l0,0l0,0l0,0l0,0l0,0
	l0,0l0,0l0,0l0.2,0.1h0.1l0.1-0.1l0.1-0.2l0.1-0.2v-0.1l0,0L241.9,263.2L241.9,263.2l0-0.2v-0.1L241.9,263.2L241.9,263.2z
	 M225.2,243.4L225.2,243.4L225.2,243.4l-0.2,0.1h-0.1l0.1,0.1l0.1,0.1l0.1,0.1h0.2h0.1h0.1h0.1h0.2l0,0v-0.1v-0.1l0.1-0.1v-0.1
	l-0.1-0.1h-0.1h-0.1h-0.2h-0.1h-0.1l0,0l0,0h0.1L225.2,243.4L225.2,243.4z M244.9,239.6l-0.1,0.1l-0.1,0.1l-0.1,0.1l0.3,0.2h0.1
	l0.2-0.1h0.1l0.1,0.2v0.1l0.1,0.2v0.1v0.1l-0.1,0.2l0,0h0.1h0.1l0.1,0.1l0.1,0.1v0.2l0,0h0.1h0.1l0.1,0.1l0.1,0.1v0.1v0.1v0.1
	l0.1,0.1l0.2,0.2l-0.1,0.1l0.1,0.1l0.2,0.1l0.3,0.1h0.2l0.1-0.1h0.1l0,0v-0.2v-0.1h0.1h0.1h0.1l0.1,0.1l0.1,0.1h0.1l0.1-0.1v-0.1
	L248,242l-0.1-0.1v-0.1l0.2,0.1h0.1v-0.1l-0.1-0.3l-0.1-0.1l-0.1-0.1l-0.1,0.1l-0.1,0.1h-0.1h-0.1l0.1-0.1l0.3-0.2l0.1-0.1v-0.5
	v-0.1l-0.6-0.1l-0.3-0.1l-0.1-0.2V240l-1.3-1.3l-0.3,0.3h-0.1h-0.1h-0.1H245v0.1v0.1v0.1l0.1,0.1l-0.1,0.1L244.9,239.6l0.1,0
	l-0.1,0.1L244.9,239.6z M247.7,244.1L247.7,244.1l0.1-0.1l-0.4,0.1h-0.1H247l-0.1,0.1l0,0l0,0l0,0l0,0l0,0l0.1,0.1l0,0h0.1h0.1h0.1
	v0.1l0.2,0.1l0.1-0.1v-0.1v-0.1h0.1L247.7,244.1l0-0.1L247.7,244.1L247.7,244.1z M225.6,244.8L225.6,244.8h-0.1l-0.3,0.3l0,0v0.3
	l0,0l0,0l0,0l0,0h0.1h0.1l0,0l0,0l0.4-0.2h0.2l0.1,0.1h0.2v-0.1l-0.1-0.1l-0.1-0.1H226h-0.1l-0.1-0.1L225.6,244.8L225.6,244.8
	L225.6,244.8z M249.1,243.2L249.1,243.2l-0.2-0.1h-0.1l-0.3-0.3h-0.1h-0.1l0,0l-0.1,0.1l0,0l-0.1,0.1h-0.2h-0.3v0.1l-0.1,0.1
	l-0.2-0.1h-0.1h-0.1h-0.3h-0.1l-0.4,0.2l-0.1,0.1v0.2v0.1h0.1h0.1l0,0l0.1,0.1h0.1h0.2h0.5l0,0h0.1l0,0l0,0l0.1-0.1l0,0h0.1h0.1l0,0
	v0.1l0.4-0.2h0.2l0.1,0.2v0.2l0.1-0.1l0.1-0.1h0.1l0.1,0.1v-0.1v-0.1l0.1-0.1l0,0h0.1l0.1-0.1l0,0v0.1l0,0h0.1l0.1-0.1l-0.1-0.1
	L249.1,243.2z M224.2,244.1v0.4v0.1l0.1,0.1l0.1-0.1v-0.4l0.1-0.1V244v-0.5l0,0v-0.1l0,0l0,0l-0.1,0.3v0.1h-0.1h-0.1h-0.1l-0.1,0.1
	l0,0L224.2,244.1L224.2,244.1z M248.3,255.2L248.3,255.2l0.2-0.3l0.1-0.1h0.1l0,0l-0.4-0.4v-0.3l0.1-0.4l0.1-0.2h-0.1l0,0l0,0l0,0
	l-0.2-0.1v-0.1v-0.1l-0.1-0.2v-0.1l-0.1-0.1l0.1-0.1l0.1-0.1l0.1-0.1l-0.1-0.4V252l0.1-0.1l0.1-0.2v-0.2v-0.1v-0.1l-0.2-0.3v-0.1
	v-0.1v-0.1v-0.2v-0.1v-0.1l0.3-0.9l0.2-0.2h-0.1l-0.5,0.4v-0.1l0.1-0.1l0.3-0.2v-0.1V249l-0.2-0.2l0,0v-0.1v-0.1v-0.2v-0.2l0.1-0.1
	l0,0l0.1-0.3v-0.1h-0.1h-0.1h-0.1v-0.1l0.1-0.1l0.1-0.1h0.1l0.1-0.1v-0.1l-0.1-0.1l-0.2-0.3l-0.5-0.6h-0.1h-0.2h-0.1l-0.1-0.1
	l-0.1-0.2l-0.1-0.1l-0.1-0.1h-0.1h-0.1h-0.1v-0.1l0,0h-0.1h-0.2l0,0l0,0h-0.1l-0.1,0.1v0.1v0.2l-0.1,0.2v0.1l-0.1,0.2l-0.2,0.1
	l-0.2,0.1h-0.2l-0.1-0.1l-0.2-0.1l-0.1-0.1l-0.2,0.1l-0.1-0.1l-0.1-0.1l-0.1-0.1h-0.1l-0.4,0.1l-0.1,0.1v0.1L243,247l-0.2,0.2
	l-0.3,0.1h-0.2l-0.1-0.1v-0.1l0,0H242h-0.1l0,0V247l-0.1-0.1l-0.3,0.1l-0.1-0.1l-0.5,0.3l-0.3,0.1l-0.9-0.1l0,0v-0.1l0,0l0,0l0,0
	l0,0h-0.1h-0.1h-0.1l0,0l-0.3,0.1l-0.3,0.1l-0.3,0.1l-0.1,0.2v0.2l0.1,0.1l0.1,0.1h0.3l0.1,0.1l0.1,0.1l0.1,0.1h-0.1H239h-0.1h-0.1
	h-0.1h-0.1h-0.1l-0.1,0.1h-0.1h-0.1h-0.1l-0.1-0.1l0.1-0.1v-0.1L238,248l-0.1-0.1h-0.1h-0.1h-0.1h-0.1h-0.1l-0.1,0.1h-0.1h-0.1h-0.2
	h-0.1l0,0l-0.1,0.1l-0.1,0.1l-0.2,0.1l-0.1,0.1l0.1,0.1h-0.1h-0.1l-0.1-0.1v-0.1v-0.1H236l-0.4,0.1l-0.5,0.1h-0.5l-0.9-0.1l-0.6-0.2
	h-0.3h-0.1l0,0l0.3-0.1h-0.2l-0.3-0.2h-0.2h-0.1h-0.1v-0.1l0,0H232h-0.3h-0.1h-0.1l-0.1-0.1l-0.2-0.2l-0.1-0.1l-0.1-0.1v-0.1
	l-0.1-0.1l-0.6-0.1l-0.3-0.1l-0.3-0.2l-0.1-0.3l-0.4,0.1H229l-0.3-0.1h-0.1h-0.2h-0.1h-0.1l-0.1-0.1l-0.3-0.1l-0.1-0.1v-0.1v-0.1
	h0.1l0.2-0.1l-0.1-0.1l-0.2-0.1h-0.1l0.1,0.1v0.1v0.2l-0.1,0.1h-0.2h-0.6l0.1,0.1l-0.1,0.1h-0.1l-0.2-0.1h-0.1h-0.1l-0.1-0.2
	l-0.2-0.1h-0.1l-0.1-0.1l-0.1-0.1h-0.1h-0.2h-0.2l-0.4-0.2h-0.2l0,0h-0.1l0,0l0,0l0,0v-0.1v-0.1l-0.1-0.2l-0.1-0.1v-0.1l-0.2,0.1
	L224,245v0.2l0.1,0.7v0.2v0.2v0.1H224h-0.1h-0.1l-0.1,0.1h-0.1l0,0v0.1l0.1,0.1v0.1v0.1l-0.1,0.1h-0.1l0.3,0.3l0.1,0.2l-0.1,0.3
	l0.1,0.1v0.2v0.2l-0.1,0.2l0.1,0.1l0.4,0.6l0.1,0.2v0.2l-0.2,0.1l0,0l0,0l0,0l0,0l0.1,0.1l0.1,0.1h0.1l0,0l0.1,0.2l0.4,0.5l0.3,0.7
	v0.2v0.1v0.1l0,0h0.1h0.1h0.1v0.1v0.1l0.1,0.1l0.3,0.4h0.1h0.1l0,0v0.2l0,0h0.1l0.5,0.4l0.3,0.3l0.3,0.5l0.1,0.5l-0.2,0.5l0.2,0.2
	h0.1h0.1v-0.1v-0.1v-0.1l0,0h0.1l0,0v-0.1l0,0l0.1-0.1h0.1h0.1v0.1v0.1l0.1,0.2v0.2l0,0l0.1,0.1l0.1,0.1l0.4,0.4l0.1,0.1l0,0v-0.1
	l0,0h0.1h0.1v0.1l0,0l0,0l0,0l0,0l0,0l0,0l0,0l0,0l0,0l0,0l0,0h0.1h0.1v0.1l-0.1,0.2l-0.1,0.1l-0.1,0.2h-0.1l-0.2-0.1v0.5v0.1l0,0
	l-0.1-0.1l-0.1-0.2l-0.1-0.2v-0.3V256l-0.1-0.1l-0.4-0.3h-0.2l0,0v-0.1l0,0l-0.1-0.1l0,0h-0.1h-0.2h-0.1v-0.1v-0.1l-0.1-0.1L227,255
	l-0.1-0.1v0.1l0.1,0.1v0.1v0.4v0.2l0.1,0.2l0.2,0.4l-0.1,0.2l0.1,0.3l0.2,0.2l0.2,0.1l-0.2,0.2v0.1h0.2h0.1v0.1v0.1l0.1,0.1l0,0h0.1
	l0,0l0.1,0.4l0,0h0.1v0.1l-0.1,0.1l0,0l0,0l0,0l0,0h0.1l0,0l0,0l0.1,0.1l0.1,0.3l0.1,0.2l0.2,0.2l0.3,0.3h0.1h0.4l0.1,0.1l0.2,0.4
	l0.1,0.1h0.1h0.1h0.1v0.1v0.1l0,0v0.1v0.1h0.1h0.1h0.1h0.1h0.1v0.1v0.1v0.1h0.1l0,0v0.1v0.1l0,0l0,0h0.1l0.2,0.1l0,0v0.2l0,0
	l0.2,0.3l0.1,0.1h0.1h0.2h0.1l0.1-0.1v-0.1h-0.1h-0.2h-0.1v-0.1l0,0h0.1h0.1h0.1h0.1v-0.1v-0.1V261l0,0l0.1,0.1l0.1,0.1l0,0v0.2v0.1
	l0.1,0.1l0.1,0.1l0.1,0.1l0.1,0.1h0.1l0.1-0.2v-0.1v-0.1h0.1h0.1l0,0v0.1l0,0l0.2,0.1l0.1-0.1l0.2-0.3h0.1h0.1l0.1,0.1l0.2,0.1l0,0
	v0.1v0.2v0.2l-0.1,0.1h-0.1l-0.1-0.1h-0.1l0,0h-0.1l0,0v0.1h-0.1l0,0l0,0v0.1v0.1v0.1l-0.1-0.1l-0.1-0.1l-0.1-0.1l-0.2-0.1l-0.6-0.1
	h-0.1l0.2,0.2v0.1h-0.1l-0.2-0.1h-0.1l-0.1,0.1l0.1,0.1l0.4,0.2l0.2,0.2v0.2v0.5l0.4-0.1l0,0l0,0l0,0l0,0l0,0v-0.1l0,0h0.1l0.2-0.1
	h0.1h0.1l0.1,0.1l0.1,0.1h0.1v-0.1v-0.1V263h0.1h0.1h0.1h0.1l0.1,0.1v0.1v0.1h0.1h0.1l0.1-0.1l0.1-0.1l0.1,0.1l0.1,0.1l0.7,0.1h0.2
	l0.2-0.1l0,0h0.1l-0.1-0.1V263v-0.1l0.1,0.1l0.1,0.1l0.1,0.3l0.1,0.1h0.1l0.4,0.2l0.1,0.1l0.1,0.1h0.1l0.3-0.1h0.1h0.1l0.2,0.1v0.1
	l0,0l0,0h0.1h0.1l0.5-0.2l0.1-0.1v-0.1l-0.1-0.1h-0.1l-0.1-0.1l0.1-0.2h0.1h0.1h0.1h0.1v-0.1V263h-0.1v-0.1l0.1-0.1h0.1h0.4
	l-0.1-0.2l-0.4-0.1l-0.1-0.1h0.3h0.1h0.1l0.1-0.1l0.1-0.2l0.1-0.1l0.2-0.1l0,0l-0.1-0.1h-0.1h-0.4l0.1-0.1l0.1-0.1h0.2h0.1l0,0l0,0
	l0,0h0.1h0.1h0.1l0.1-0.1l0,0v-0.1l-0.1-0.1l-0.1-0.1l-0.5-0.3h-0.1l-0.1-0.1v-0.2v-0.2v-0.1l0.1-0.1l0.1-0.1h0.1v0.2v0.3l0,0
	l0.2,0.1h0.1l0.1-0.1l0.1-0.1l0.1-0.1v0.2v0.1v0.1l-0.1,0.1l-0.1,0.1h0.1h0.3h0.1v0.1v0.1l0,0h0.1h0.1h0.1h0.1h0.1l0.1-0.1l0.1-0.1
	v-0.3v-0.1l-0.1-0.2v-0.1v-0.1l0.1-0.1l0.1-0.1l0.1-0.1l0.1-0.1l-0.1-0.1l-0.2-0.1l-0.1-0.1l0.1-0.1l0.2,0.2l0.1,0.1h0.1v-0.3v-0.1
	l0.1-0.1l0.1-0.2v-0.1l-0.2-0.2l-0.1-0.2l-0.1-0.1l-0.1-0.1l0,0l-0.1-0.1l-0.1-0.1l0.1-0.1h0.1h0.1v0.1l0.4,0.5l0.1,0.1h0.1l0.1,0.1
	v0.2v0.1h0.1l0.1-0.1h0.1l-0.1,0.2v0.1h0.1v0.1v0.1l-0.1,0.1H242l-0.1-0.1l-0.1-0.1l-0.1-0.1l-0.1,0.1v0.1l0.1,0.1l0.1,0.1h0.1
	l0.1-0.1l0.4-0.1l0.1-0.1l0.1-0.1l0.1-0.2l-0.3-0.4l-0.1-0.2v-0.2l0.1-0.1l0.1-0.1l0.3-0.1h0.1h0.1l0.1,0.1v0.1v0.1l0,0l0,0h0.1h0.1
	l0.1,0.1v0.1h0.1h0.1h0.2h0.1h0.1l0.1,0.1h0.1l0.4-0.1l0.1,0.1v0.1l-0.1,0.1v0.1h0.2l0,0h-0.1l0,0h-0.1l0.1,0.2l0.1,0.1l0.1,0.1h0.2
	l-0.1,0.1h-0.1h-0.1l0,0h-0.1l0,0l0,0h-0.1l0,0h-0.2l-0.2-0.1l-0.3-0.2l0.1-0.1v-0.1v-0.2l0,0h-0.1h-0.2h-0.1l0,0v0.1v0.1l0,0l0,0
	l0,0v0.1l0,0h-0.1l-0.2,0.1h-0.1v0.1v0.1l0.1,0.1l0.1,0.1l0.1,0.1l0.6,0.2l-0.1,0.1l-0.2,0.1h-0.1v0.2l0.5,0.4l0.1,0.2l0.1-0.1
	l0.1-0.1l0.1-0.1h0.2l-0.1-0.1v-0.1v-0.1l0.1-0.1l0.1-0.1l0,0v0.1v0.1l0.1,0.1l0.4,0.3h0.1h0.1v-0.1v-0.1l-0.1-0.1v-0.1l0,0l0,0l0,0
	v-0.1V260h-0.1h-0.2l0.1-0.1l0,0v-0.1v-0.1l-0.2-0.2l0.1-0.1v-0.3l0.1-0.2h0.1h0.1l0.1-0.1v-0.1l0,0l0,0l0,0l0,0v-0.1v-0.1l0,0l0,0
	v-0.1h-0.1v-0.1v-0.1l0,0l0,0h-0.1h-0.1h-0.1l0,0v-0.1l-0.1-0.1l-0.2,0.1l-0.1,0.1l0.2,0.1l0,0h-0.1h-0.1h-0.1h-0.1v-0.1v-0.1
	l0.1-0.2h0.1l0,0l0,0v-0.1l-0.1-0.1v-0.2l0.1-0.1l0.1-0.1h0.1l0.1-0.1l0.1-0.1V257v-0.1v-0.1v-0.2l0,0l0,0l0,0l0,0l0,0v-0.1v-0.1
	l-0.3-0.3h0.1h0.1V256v-0.1l0.1,0.1l0.1,0.2h0.1h0.1l0.1-0.1h0.1l0.1-0.1v-0.2v-0.3l-0.1-0.3V255l0.2-0.1v-0.1l-0.1-0.1h-0.1h-0.1
	l-0.1,0.1h-0.1l0.1-0.1l0.2-0.3v-0.1l0,0h0.1v-0.1v-0.1V254l0.2-0.2v-0.1v-0.3v-0.2l0.1-0.1l0.2-0.1h0.7l-0.3-0.1h-0.1h-0.1l0,0
	l-0.1-0.1l0,0h0.1h0.1l0,0v-0.1v-0.1v-0.1l0.1-0.1h0.1l0.1,0.1h0.1v-0.1l-0.1-0.1v-0.1h0.1l0,0v0.1v0.1l0.2,0.1v0.1l-0.1,0.1H247
	h-0.1h-0.1l-0.2,0.1l0.4,0.1l0.1,0.1l0.2,0.2h0.1h0.2v0.1l-0.1,0.1l-0.2,0.1h0.1l0.1,0.1L248.3,255.2l-0.1,0.1v0.1v0.1l0,0l0,0l0,0
	l-0.1,0.1v0.1l0,0l0.2,0.1l0,0l0.1,0.1h0.1v-0.1l0,0l0.1-0.1l0,0l0.1-0.2v-0.1L248.3,255.2z M232.7,258.8L232.7,258.8l0.1-0.1l0,0
	v-0.1v-0.1v-0.1v-0.1v-0.1v-0.1l0,0h0.1h0.1v0.1v0.3l0,0h0.1l0,0v-0.1v-0.2v-0.1l0.1-0.2l0.1-0.1h0.1v0.1v0.2v0.1l0.2,0.1h0.2v-0.1
	v-0.1v-0.2l0.1-0.1l0.1,0.1l0.1,0.2h0.1h0.1v0.1v0.1l0,0l0,0l0,0v0.1h0.2l0.1,0.1l0,0l0.1,0.1v0.1l0,0h-0.1v0.1v0.1l0,0l0.2,0.2
	l0.1,0.1l-0.1,0.1h-0.1l-0.2-0.2h-0.1l-0.1,0.1v0.1v0.1v0.1l0,0l0,0h-0.1l0,0l0,0l0,0l0,0l-0.1-0.1l-0.1-0.1l-0.1-0.1v-0.1V259
	l-0.1-0.2h-0.3l0,0h-0.1l0,0l0,0v-0.1l0,0h-0.1h-0.1l-0.1,0.1H233L232.7,258.8L232.7,258.8L232.7,258.8L232.7,258.8z M235.3,260.9
	H235h-0.4h-0.1h-0.3h-0.1v-0.1v-0.2v-0.1l-0.1-0.1h-0.1h-0.3h-0.1h-0.1l0,0v-0.1l0,0l-0.2-0.1l-0.1-0.1l-0.1-0.2v-0.2l-0.1-0.1h-0.1
	h-0.1l0,0v-0.1v-0.1l-0.1-0.2h0.1h0.1h0.1l0.1,0.1l0,0h0.1h0.1l0,0l0,0l0,0l0.1,0.1l0.3,0.3h0.1h0.1h0.1l0.1,0.1l-0.3,0.1l0,0l0,0
	h-0.1h-0.1v0.1l0.1,0.1l0.4,0.2l0.1,0.1h0.1h0.1l0.4-0.2h0.1l0.1,0.1v0.1v0.2l0.1,0.1l0.2-0.1h0.1l-0.2,0.1l0,0l0.1,0.1h0.1h0.1h0.1
	v0.1L235.3,260.9z M149.8,188.8h-0.2l-0.1,0.1l-0.1,0.1l-0.1,0.1v0.1l0.2,0.1l0.2-0.1h0.1l0,0v-0.1V189h0.1l0,0l-0.1-0.1l0.4-0.1
	l0,0H150H149.8z M174.9,204v-0.2v-0.2l-0.2,0.2l-0.1,0.1v0.1L174.9,204L174.9,204z M167.1,207.4L167.1,207.4L167.1,207.4l-0.2-0.1
	l-0.3-0.4l-0.1-0.1l-0.2,0.1l0.1,0.1l0.3,0.2l0.1,0.2v0.2l0.1,0.1h0.2h0.1l0,0v-0.1v-0.1L167.1,207.4z M156,198.5L156,198.5
	L156,198.5h-0.1h-0.2h-0.1l0,0v0.1v0.1l-0.1,0.2l0.1,0.1l0.1-0.1l0.1-0.2h0.1h0.1l0,0L156,198.5L156,198.5z M179.9,212.7h-0.1h-0.1
	v-0.1l-0.1-0.2l0,0h-0.1l-0.3-0.1l-0.3-0.1h-0.2h-0.2l-0.1,0.1v0.1l-0.1,0.1l-0.1,0.1l-0.1,0.1H178h-0.2h-0.1l-0.1-0.1v-0.1v-0.1
	l0,0v-0.1l-0.1-0.1l0,0h-0.1h-0.1l-0.3,0.1h-0.2l-0.3-0.1h-0.1h-0.1l-0.1-0.1l0.3-0.3l0.2-0.2l0,0h-0.1h-0.2h-0.1v-0.1l0.1-0.1h0.1
	h0.1v-0.1l-0.1-0.1l-0.1,0.1h-0.1h-0.1l-0.2,0.1h-0.1h-0.2h-0.1l-0.1,0.1h-0.1h-0.1l-0.6-0.2h-0.1h-0.1l-0.1,0.1l-0.1,0.1l-0.1,0.1
	l-0.9,0.2l-0.3,0.1h-0.1l-1.8,0.2H171l0-0.1h-0.1h-0.2l-0.3,0.1h-0.5h-0.2l-0.1,0.1v0.1v0.1v0.1l0,0v0.1v0.1v0.2l0,0l0,0l0,0v0.1
	v0.1v0.1l0.4,0.3h0.1h0.3h0.1l0.2,0.2l0.1,0.1v0.1v0.1h0.1h0.1h0.1h0.1l0,0l0,0l0.1-0.1h0.1h0.1h0.1h0.1l0.1-0.1h0.1h0.1l0.1,0.1
	h0.2h0.2l0.5-0.2l0.1,0.1h0.1h0.2h0.1l0.2,0.1h0.1l0.2-0.1l0.1-0.1v-0.1l0.2-0.1h0.1h0.1l0.3,0.1h0.3l0.2,0.1l0.3,0.3l0.2,0.1
	l0.1,0.1l0.2-0.1l0.4-0.2l0.3-0.1v-0.1l0,0l0,0l0,0v-0.1v-0.1l0,0l0,0l0,0v-0.2v-0.1l0.1-0.1l0.3-0.1l0.6-0.2h0.3h0.2h0.2l0.2,0.1
	h0.1h0.2h0.1h0.1l0.2,0.2l0.1,0.1h0.2h0.1l0.1-0.1l0.2-0.2h0.1h0.2v-0.1L179.9,212.7h0.1H179.9z M168.9,208.2L168.9,208.2h-0.2v0.1
	l0.1,0.1h0.1h0.1l0,0l0,0L168.9,208.2L168.9,208.2z M233.4,95.2L233.4,95.2v0.2l0.1,0.1l0.1,0.1l0.3,0.2l0.1,0.1l0.2,0.3v0.1
	l0.1,0.3l0.1,0.2l0.1,0.1l0.2,0.1l0.1,0.1l0.1-0.1l0.1-0.1l0.1-0.2l0,0h0.1l0,0v-0.1l0,0l-0.1-0.1v-0.1h0.1h0.1l0,0v-0.1l0,0h-0.1
	h-0.1l-0.2-0.2V96v-0.1l0.1-0.1l0.1-0.1v-0.1H235h-0.3l-0.1-0.1v-0.2l-0.1,0.2v0.2v0.1l-0.3-0.1l-0.4-0.1L233.4,95.2z M207.5,41
	l-0.1,0.1l0,0v0.1l0,0l0,0h-0.1v0.1v0.1l0.1,0.1l0.1,0.1h0.1h0.1h0.1l0.1,0.1h0.1l0.2-0.3l0.1-0.1v-0.1l-0.1-0.1l-0.1-0.1l-0.1-0.1
	h-0.3L207.5,41z M210.2,36.2L210.2,36.2h0.6h0.1h0.1l0.1-0.1l0.1-0.1l0.1-0.1l-0.1-0.1h-0.1l-0.2,0.1h-0.2h-0.2h-0.2l-0.2,0.1
	l-0.1,0.1L210.2,36.2L210.2,36.2z M249.2,107v0.2l0,0l0,0l0,0l0,0V107L249.2,107v-0.2l-0.2-0.1v0.1L249.2,107L249.2,107z
	 M238.1,101.3L238.1,101.3l0.2,0.2l0.2-0.2l0.1,0.1v-0.1v-0.1V101v-0.1l0,0l0,0v0.1h-0.1l0,0l0,0l-0.1,0.1h-0.1h-0.1h-0.1
	L238.1,101.3L238.1,101.3L238.1,101.3z M236.8,98.7L236.8,98.7h0.1h0.1h0.1h0.1h0.1l0.1-0.1v-0.1h-0.2l-0.1-0.1l-0.1-0.1l-0.1-0.1
	h-0.1l-0.1-0.1l-0.1-0.1l0,0v0.1v0.1l-0.1,0.2v0.1h0.1L236.8,98.7z M186.5,85.8L186.5,85.8L186.5,85.8V86l0,0l0,0V85.8L186.5,85.8
	h0.2h0.1v-0.1h-0.1L186.5,85.8L186.5,85.8L186.5,85.8L186.5,85.8z M188.8,87.8L188.8,87.8l0.1-0.2h0.1h0.1l0,0l0,0l0,0h0.1h0.1l0,0
	l0,0l0,0h0.2h0.1v-0.1l0,0l-0.1-0.1v-0.1l0.1-0.1l-0.1-0.1l-0.3-0.2h-0.1V87v0.1l-0.1,0.1l-0.2,0.3l-0.1,0.1l-0.1,0.1v0.1
	L188.8,87.8L188.8,87.8L188.8,87.8L188.8,87.8L188.8,87.8L188.8,87.8z M252.1,108L252.1,108L252.1,108h0.1l0,0l0,0l0,0l0,0l0,0l0,0
	l0,0v0.1l0.2-0.2l0,0v-0.1l-0.1-0.1l0,0l0.1-0.1l0.1-0.1l0.1-0.1l-0.1-0.1v0.1l0,0l0,0h-0.1l0,0l0,0l0,0l-0.1,0.1l0,0l0,0l0,0l0,0
	l-0.2,0.2v0.1V108L252.1,108z M208.1,44.2V44l-0.2-0.1h-0.2l-0.1,0.1v0.2l0.1,0.1l0.2-0.1H208.1z M206.7,41.1L206.7,41.1l0.2,0.2
	v0.1h0.1h0.1l0.1-0.1v-0.1v-0.1l0.1-0.3v-0.1l-0.1-0.1l-0.1-0.1H207h-0.1l-0.3,0.5L206.7,41.1L206.7,41.1z M207.7,44.5l-0.2-0.3
	l-0.1-0.1h-0.1l-0.1,0.1l0,0l0,0l-0.1,0.1H207l0,0l0,0h-0.1l0,0l0,0l0,0v0.2l0.1,0.2l0.1,0.1l0.1,0.1h0.1l0.2,0.1v-0.1v-0.1l0.1-0.1
	h0.1h0.1l0.2-0.1h0.1h0.1l0,0l0,0v-0.1v-0.1L207.7,44.5z M186.8,85.2L186.8,85.2l0.1-0.1L187,85h0.1v-0.1v-0.2v-0.1l0.1,0.1l0.2,0.3
	v0.1h0.1h0.4h0.1l0.2-0.1h0.1l0.1-0.1l0.1-0.3l0.1-0.1h0.1l0.1,0.1h0.1h0.1l0.1-0.1v-0.1l0,0l0,0l0.1-0.1v-0.1v-0.1v-0.2v-0.1h0.1
	h0.1l0.1,0.1h0.1l0.1-0.1v-0.1h-0.1h-0.1h-0.1h-0.1v-0.1l0,0h0.2h0.1l0.1-0.1l0,0l0,0h0.1h0.1l0,0h0.1l0.1,0.2l0.1,0.1l0.1-0.1
	l0.1-0.1h0.1h0.1h0.1h0.1l0,0v-0.1v-0.1v-0.1l0.1-0.1l0,0l0.1,0.1l0,0v-0.1v-0.1V83v-0.1h-0.1V83l-0.1,0.1h-0.1l0,0V83l0,0h-0.3
	h-0.1l-0.1-0.1L190,83v-0.1l-0.1-0.1h-0.1h-0.2l-0.4,0.2l-0.8,0.2h-0.3H188l-0.1,0.1l-0.1,0.1l-0.1,0.2h-0.1h-0.1h-0.1l0,0v0.1v0.1
	v0.1l-0.2,0.1l-0.1,0.1l-0.1,0.1v0.1v0.2v0.1v0.1v0.1l0,0v0.1V85L186.8,85.2z M266.6,130.4L266.6,130.4h-0.1l0.2,0.4l0.1,0.1
	l0.1,0.1l0.2,0.1l0.3,0.3l0.1,0.1l0.1,0.2l0.1,0.1l0.1,0.1l0.1,0.1l0.1,0.1h0.1h0.1h0.2l0,0l0,0l0,0l0,0l0,0V132l0,0l0,0v-0.1v-0.2
	l-0.1-0.2l-0.1-0.1l-0.1-0.1l-0.1-0.2l-0.1-0.2v-0.2v-0.1l0.1-0.3v-0.2l-0.1,0.1l-0.1,0.1l-0.1,0.1h-0.1l0.1-0.1h-0.1h-0.1h-0.1
	l-0.1-0.1l-0.3-0.1h-0.1l0,0V130v-0.1l0,0h-0.1h-0.1h-0.1l0,0h-0.1l0,0v0.1l0,0l0,0l0.1,0.1v0.1V130.4L266.6,130.4z M252.6,108.2
	v0.2l-0.1,0.1h0.1v0.1l-0.2,0.2v0.1l0,0h0.1l0,0l0,0l0.1-0.1v0.3h0.1l0.1-0.1h0.1l0.1,0.1V109l0.1-0.2l0.1,0.1l0,0h0.1v-0.1v-0.1
	l-0.1-0.1l-0.1-0.2l0,0H253v-0.1v-0.2V108l-0.1-0.2v-0.1l-0.1,0.1L252.6,108.2z M268.5,132.4l0.2,0.2l0.1,0.1v0.2l0.1,0.1v-0.1v-0.2
	l-0.1-0.1l-0.1-0.2v-0.1v-0.2l0,0l0,0v0.1l0,0L268.5,132.4z M280,142.8l-0.1,0.2l0,0h-0.1l-0.1,0.1l-0.1,0.1v0.4l-0.1,0.2l-0.2,0.1
	l-0.1,0.1v0.2l0.1,0.2l0.2,0.1v0.2l0.1,0.3v0.1v0.1l0.1,0.2l0.3,0.3l0.2-0.1l0.1-0.2v-0.2l-0.1-0.2v-0.2l0.5-1.4l0.7-1.4l0.5-1.2
	v-0.1v-0.1l0.1-0.1l0.1-0.1v-0.2l-0.1-0.1l-0.3-0.2h-0.1l-0.1-0.1l-0.1-0.4v-0.1v-0.8v-0.3h-0.1l-0.3,0.1l-0.2,0.2h-0.1l-0.4,0.5
	h0.2l0.2,0.2l0.2,0.3l0.1,0.2l0.1,0.3v0.3l-0.1,0.2l-0.1,0.2l-0.2,0.2l-0.2,0.2l-0.7,0.5l-0.1,0.1v0.1v0.1l0,0l0,0l0.2,0.1h0.1h0.1
	v0.1l-0.1,0.2l0.1,0.4L280,142.8L280,142.8z M282.7,156.4h-0.1h-0.1v0.1v0.2l-0.1,0.1l-0.1,0.2v0.1l0.1,0.3v0.1v0.1l-0.1,0.2v0.1
	v0.1l0.1,0.1v0.1v0.1l0,0l0,0l0,0v0.2v0.1l0.1,0.2h0.1h0.1h0.1h0.1l0,0l0.4-1.4l0.1-0.3l0.1-0.3h-0.3h-0.1H283L282.7,156.4
	L282.7,156.4z M282.1,154.2L282.1,154.2l0.1,0.2v0.4v0.4v0.1l0.1,0.1l0.1,0.1l0.1,0.2v0.2v0.1l0.1,0.1l0,0V156v-0.1v-0.1l-0.1-0.2
	v-0.1v-0.3l0.1-0.3l0.3-0.8v-0.2v-0.1h-0.1h-0.1l-0.1,0.1h-0.2L282.1,154.2L282.1,154.2z M279.6,142.6L279.6,142.6v-0.2l-0.2-0.2
	l-0.1,0.1l0.1,0.1L279.6,142.6z M258.7,121.5L258.7,121.5L258.7,121.5l0.1,0.1v0.1l0,0h0.1l0.1-0.1l0.1-0.2v-0.2V121v-0.1L259,121
	v-0.1v-0.1v-0.2l-0.1,0.1l-0.1,0.1v0.1v0.1l-0.1,0.1l-0.1,0.1v0.2v0.1L258.7,121.5L258.7,121.5z M257.6,123.2L257.6,123.2
	L257.6,123.2h0.1l0.1-0.2v-0.1v-0.1v-0.1h0.1l-0.1-0.1l-0.1-0.1h-0.1v0.1v0.2v0.1v0.1V123.2L257.6,123.2L257.6,123.2z M262.7,122.4
	L262.7,122.4L262.7,122.4L262.7,122.4l0.2,0.1l-0.1,0.1v0.1h0.1h0.1l0,0l0,0l0,0v-0.1l0,0h0.1h0.1v-0.1l0,0l0,0h-0.1H263l0,0v-0.1
	v-0.1v-0.1v-0.1V122l0,0h-0.1h-0.1l0,0v0.1l0.1,0.1v0.1l-0.1,0.1H262.7L262.7,122.4L262.7,122.4L262.7,122.4z M253.3,110.2h-0.1l0,0
	v0.1v0.1l0,0l0,0L253.3,110.2h0.1l0.1-0.1h0.2l-0.1-0.1v-0.1v-0.1v-0.1v0.1v0.1v0.1L253.3,110.2L253.3,110.2z M261.3,118.1
	L261.3,118.1L261.3,118.1l0.1,0.1h0.1l0,0l0,0v-0.1l0,0l0,0l0,0l0,0V118l-0.1-0.1l-0.2-0.1l-0.1-0.1l0,0v0.1l0,0l0,0L261.3,118.1
	L261.3,118.1L261.3,118.1L261.3,118.1L261.3,118.1z M261.5,118.6l0.2,0.1h0.1l0.1-0.1v-0.1l0.1-0.1l-0.2,0.1h-0.1h-0.1L261.5,118.6
	L261.5,118.6z M207.5,35.3h0.3h0.1v-0.1v-0.1l-0.5-0.1l-0.3,0.1l-0.1,0.1l0.2,0.1H207.5z M289,113.8L289,113.8L289,113.8L289,113.8z
	 M158.2,54.1L158.2,54.1l0.2,0.1l0.1-0.1l0.1-0.1v-0.1h-0.1h-0.1h-0.1l0,0l-0.2-0.1L158.2,54.1L158.2,54.1z M125.7,52.1L125.7,52.1
	l0.2,0.2h0.2h0.2h0.2l0.6-0.2l0.3-0.1l0.2-0.1h0.1h0.1L128,52h0.1h0.2l0.2,0.1l0.2,0.1l0.2,0.1l0.2-0.1h0.3l0.3-0.1l0.1-0.1v-0.1
	v-0.1l0,0l-0.1-0.1l-0.3-0.2l-0.2-0.1h-0.1l0,0l-0.2-0.1h-0.1h-0.1l0,0l0,0h-0.1l0,0l0.1-0.1V51v-0.2v-0.2l-0.1-0.2l-0.3-0.2
	l-0.1-0.1v-0.2v-0.1l0.1-0.2v-0.1l-0.2-0.3L128,49l-0.1-0.2v-0.1l-0.1,0.1h-0.1h-0.1h-0.1l-0.1,0.1l-0.2,0.3l-0.1,0.1l-0.2,0.1
	l-0.1,0.1l-0.1,0.1l-0.2,0.3h0.1h0.1h0.1l0.1,0.1v0.1v0.1v0.1l-0.1,0.1l0.1,0.6v0.1l-0.1,0.2l-0.1,0.1h-0.1h-0.2l-0.2-0.1h-0.1v0.1
	v0.3v0.1l-0.1,0.1h-0.2h-0.1V52L125.7,52.1L125.7,52.1z M171.1,78L171.1,78l0.1,0.1h0.1h0.1V78l-0.1-0.1l-0.1-0.1h-0.1h-0.2h-0.1
	l0.1,0.2v0.2v0.1v0.2h0.1h0.1l0.1-0.1h0.1l0,0l0,0l0,0l0,0l0,0l-0.1-0.2L171.1,78L171.1,78z M148.1,51.2L148.1,51.2h0.2h0.1l0.1-0.1
	V51l-0.1-0.1v-0.1h0.1h0.3h0.2l0.1-0.1l-0.1-0.1h-0.1h-0.2h-0.1l-0.2,0.1h-0.1h-0.1v0.1L148.1,51.2L148.1,51.2z M148.3,50.3
	L148.3,50.3L148.3,50.3L148.3,50.3l0.1-0.1l0.1-0.1h0.1h0.1h0.1h0.1h0.1l-0.1-0.1l-0.1-0.1l-0.1-0.1v-0.1l-0.1,0.1l-0.1,0.1
	l-0.1,0.1h-0.2l0,0v0.1L148.3,50.3L148.3,50.3L148.3,50.3z M128.1,48.6l0.2,0.2v0.1V49v0.1v0.1v0.1l0,0l0,0l0,0v0.1l0.2,0.7l0.1,0.1
	l0.2,0.2l0,0h0.1l0,0v0.1V51l0.1,0.1l0.1,0.1h0.2h0.1l0,0l0.1,0.1l0.1,0.1l0.2,0.1l0.3,0.3l0,0h0.1l0,0l0,0h-0.1l0,0l0.1,0.1
	l0.1,0.1l0.2,0.1h0.1h0.1l0.3,0.2l0.3,0.1l0.2,0.1l0.2,0.2l0.1,0.2h0.1h0.1l0.8-0.7l0.7-0.4l0.1-0.1v-0.1l0.1-0.1l0.2-0.1h0.1h0.1
	h0.1l0.1-0.2l0.2-0.1l0.3-0.7h0.1h0.1l0.1,0.1l0,0h0.1h0.2l0.1-0.1v-0.1l0,0l-0.1-0.2v-0.2l0.1-0.2l0.1-0.1h0.1l0.2,0.1h0.1v-0.1
	v-0.1v-0.2v-0.1v-0.1h-0.1h-0.1l-0.1,0.1l0,0l0,0v-0.1l-0.1-0.2v-0.2v-0.1h-0.1v-0.1v-0.1l-0.1-0.1h-0.1h-0.1l-0.1,0.1H135h-0.1
	h-0.1h-0.1h-0.1v0.1v0.1v0.1h-0.1h-0.1v-0.1l0.1-0.1l0,0v-0.2l-0.1-0.1l-0.1-0.1h-0.2l-0.1,0.1l-0.1,0.1l-0.1,0.1v0.2v0.1l0,0l0,0
	l0,0l0,0l0,0v0.1v0.1V49l0.1,0.2v0.1l-0.1,0.1v-0.1l-0.3-0.4l-0.1-0.1v-0.1v-0.2l-0.1-0.1l-0.1,0.1l-0.2,0.2l-0.1,0.1h-0.1l-0.1,0.1
	l-0.1,0.6v0.1v-0.1l-0.1-0.3v-0.1l-0.2-0.1v-0.1l-0.1-0.1H132h-0.2l-0.1,0.1l-0.2,0.2l-0.4,0.1l-0.4,0.1l-0.2,0.3v-0.1l-0.2-0.2
	l-0.1-0.1l0,0l0.1-0.2l-0.3,0l-0.1,0.1l-0.3,0.3h-0.1h-0.1h-0.1v-0.1v-0.1l0.2-0.2l0.1-0.1v-0.1l-0.1-0.1l-0.1-0.1h-0.1h-0.1
	l-0.1,0.1l-0.1,0.1h-0.1l-0.1-0.1l-0.5-0.5l-0.2-0.3L128,48l0,0v0.1v0.2v0.1L128.1,48.6z M163.8,72.8L163.8,72.8L163.8,72.8
	L163.8,72.8L163.8,72.8h0.2h0.1l0.1,0.1l0,0v-0.2v-0.1l-0.1-0.1H164l-0.1,0.1L163.8,72.8L163.8,72.8L163.8,72.8L163.8,72.8z
	 M141.7,54.3l0.1-0.2v-0.2l-0.2-0.1h-0.1h-0.1l-0.1,0.1V54l0.3,0.2L141.7,54.3z M122.4,72.2L122.4,72.2L122.4,72.2L122.4,72.2
	L122.4,72.2L122.4,72.2v0.2l0.1,0.1l0.2,0.3l0.1,0.1h0.1V73v0.1v0.1v-0.4v-0.2l-0.1-0.2L122.4,72.2z M122.9,72.6L122.9,72.6
	L122.9,72.6L122.9,72.6L122.9,72.6L122.9,72.6l0.1-0.2l-0.1-0.1l-0.1-0.1l-0.1-0.1l0,0l0,0v0.1v0.1L122.9,72.6z M166.9,63.2l0.2,0.1
	v-0.1l0,0H166.9L166.9,63.2l0.1-0.1l-0.1-0.2v-0.2l-0.1-0.1l-0.1-0.1h-0.2l0.2,0.1l0.1,0.1v0.1V63v0.3v0.1l0.1,0.1l0.1,0.1l0,0l0,0
	l0,0l0,0v-0.1v-0.2v-0.1h0.1v0H166.9z M142.6,51.5L142.6,51.5l0.3,0.1h0.2h0.1l0,0v-0.1v-0.1v-0.1v-0.1l0,0h-0.1h-0.2h-0.1h-0.1
	h-0.1h-0.1h-0.1l-0.1,0.1v0.1l0.1,0.1H142.6z M167.5,65.1L167.5,65.1h0.1l0.1-0.1l0,0l0,0v-0.1l0,0h-0.1h-0.1v-0.1l0,0h-0.1h-0.1
	h-0.1l-0.1,0.1L167,65l-0.1,0.1v0.1v0.1h-0.1l-0.2-0.1v0.6v0.1l0.2,0.1v-0.1v-0.2v-0.2h0.2l0.1,0.1l0.1,0.3l0.1,0.1l0,0l0,0l0,0l0,0
	l0,0h0.1h0.1h0.1l0.1-0.1v-0.1v-0.1v-0.1h0.1l-0.1-0.1v-0.1v-0.1h-0.1L167.5,65.1L167.5,65.1z M142.2,47.1L142.2,47.1l0.1,0.2h0.1
	v0.1v0.3v0.1l0,0h-0.1h-0.1v0.1l0,0l0.3,0.3l0.1,0.2l0.1,0.2v0.2l0.2,0.2v-0.2l0.1-0.3v-0.2v-0.2l-0.1-0.1v0l0.1-0.1l-0.1-0.1h-0.1
	h-0.1v-0.1l0.1-0.1h0.1l0,0v-0.1v-0.1v-0.1v-0.1v-0.1l0,0l-0.1-0.2v-0.1v-0.1v-0.1l0.1-0.1v-0.1h-0.1l-0.1,0.1v0.1v0.1l-0.1,0.1
	h-0.1h-0.1h-0.1h-0.1l-0.1-0.1H142L142.2,47.1L142.2,47.1z M169.1,77.7L169.1,77.7l0.1,0.1l0,0h0.1l0,0l0,0h0.1h0.1h0.1l0.1-0.2
	v-0.3l0.1-0.2l-0.1-0.2h-0.1l-0.1,0.1h-0.1h-0.1l0,0v0.1v0.1v0.1l0,0l-0.1,0.1l0.1,0.1v0.1L169.1,77.7L169.1,77.7z M172.4,77.9
	L172.4,77.9h-0.1h-0.1h-0.1L172,78v0.1v0.1v0.1l0,0l0,0l0,0l0,0l0,0l0,0h0.1h0.1v0.1v0.1v0.1l0.1,0.2l0,0h0.1h0.1v0.1V79v0.1h0.1
	l0.1-0.1l0.1-0.1v-0.1v-0.1l0,0l0,0h-0.1l0,0v-0.1v-0.1v-0.4V78l-0.2-0.1v-0.1v-0.1l-0.1-0.1h-0.1l-0.1,0.1v0.1L172.4,77.9
	L172.4,77.9z M158.6,53.7h0.1l0.2-0.1l0.1-0.1l-0.2-0.1h-0.1l-0.2,0.1l0,0L158.6,53.7L158.6,53.7z M172.1,68.7L172.1,68.7
	L172.1,68.7L172.1,68.7v-0.2h0.1l0,0v-0.1v-0.1l0,0l0,0v-0.1l0,0l0,0l0,0l0,0l0,0l0.1-0.1l0.1-0.1l0.1-0.1h-0.1h-0.1h-0.1l-0.1-0.1
	H172v0.1V68v0.1l-0.1,0.1l-0.1,0.1h-0.1l-0.4-0.3l-0.1-0.1l-0.1,0.1v0.1l0,0l0,0h-0.2h-0.1h-0.1l0,0V68l-0.1-0.3v-0.2v-0.1v-0.1
	l0.1-0.1h0.1h0.1l0.1,0.1v-0.1v-0.1h0.1h0.1V67l0,0l0,0h0.1l0,0l0,0h-0.1l0,0l-0.1-0.1H171l-0.1-0.1v-0.1l0.1-0.2l0.2-0.2l0.2-0.1
	l0.2,0.1l0.1-0.4l0.1-0.1l0.2-0.2l0.1-0.1v-0.1v-0.1l-0.1-0.1l0,0h-0.1h-0.2h-0.1l-0.1,0.3l0,0l0,0h0.1h0.1l0,0v0.1v0.1l-0.1,0.1
	l-0.1,0.1h-0.1l-0.4-0.1h-0.1l-0.1-0.1v-0.1v-0.1l-0.1-0.1l0.1-0.1l0,0h-0.1h-0.1h-0.1l-0.1-0.1v-0.1V65v-0.1l0.2-0.1l0.1-0.1v-0.2
	v-0.1l-0.1,0.1h-0.2l0,0v0.1l-0.1,0.2h-0.1l0,0l0,0l0,0l0,0l0,0l0,0l0,0l0,0v-0.1l0,0l0,0l0,0l0,0h-0.1H170h-0.1h-0.1v0.1h0.1l0,0
	v0.1V65h0.1v0.1v0.1v0.1l0,0l0.1,0.1v0.1H170l-0.1-0.1v0.2l-0.1-0.1l0,0l-0.1,0.1l-0.1-0.1l-0.1-0.1l-0.1-0.1v0.2v0.1l-0.1,0.1h-0.1
	H169h-0.1l-0.2-0.2h-0.1l-0.1,0.1v0.1l0.1,0.1l0.1,0.1V66v0.2l-0.1,0.4v0.2v0.4v0.2l0.1,0.1v0.1v0.1l-0.1,0.1l-0.1,0.2l-0.1,0.1
	l-0.2,0.1l-0.1,0.1l-0.2,0.1l-0.1,0.1v0.1l0,0h0.1l0,0h0.1l0.2-0.1l0.2-0.1h0.1h0.1l0.1,0.1l0,0l1.2,0.4h0.3l0.3-0.2h0.1h0.1h0.1
	h0.3h0.1l0.1,0.1l0.1-0.1h0.1l0.2,0.1v-0.1h0.1h0.1l0.1,0.1L172.1,68.7L172.1,68.7L172.1,68.7z M171.7,77.5L171.7,77.5v-0.3v-0.1
	l0.1-0.2l-0.1,0.1l-0.1,0.1l-0.1,0.1v0.1l0,0l0.1,0.1l0,0l0,0v0.1l0,0l0,0l0,0l0,0v0.1v0.1l0,0l0,0l0,0l0,0l0,0l0,0L171.7,77.5
	L171.7,77.5l0.1,0.1v-0.1L171.7,77.5L171.7,77.5z M171.2,54.4L171.2,54.4h0.1v-0.1v-0.1V54v-0.1l-0.1,0.1v0.1V54.4L171.2,54.4z
	 M171.2,65.5L171.2,65.5L171.2,65.5L171.2,65.5L171.2,65.5L171.2,65.5L171.2,65.5L171.2,65.5z M170,78.5L170,78.5l0.2,0.1l0,0
	l0.2-0.3l0.1-0.1v-0.1V78h-0.1l-0.1-0.1v-0.1l-0.1,0.1h-0.1L170,78v0.1v0.1L170,78.5z M165.8,51.5l0.1-0.1l0.1-0.1l0.1-0.2h-0.2
	l-0.3,0.1l-0.2,0.1l0.1,0.2H165.8z M169.2,49.8l0.1-0.1l0,0l0,0v0.1l0,0v-0.1l0.5-0.6L170,49l0.2-0.3l0.1-0.1l0.1-0.2l0.1-0.2l0,0
	l0,0h0.1h0.1l0,0v-0.1v-0.2l0.1-0.2l0.1-0.3v-0.1v-0.1v-0.1V47h-0.1h-0.1l0,0v0.1l0,0l0,0l0,0l0,0l-0.1,0.1l0.1,0.2v0.1h-0.1v0.1
	v0.2l-0.1,0.4l0,0l-0.3,0.1l-0.3,0.4l-0.1,0.1l-0.1,0.3l-0.1,0.1l-0.1,0.1v0.1l-0.1,0.1l-0.3,0.2v0.1l0,0v0.1L169.2,49.8L169.2,49.8
	L169.2,49.8z M159.7,53l0.2-0.1v-0.1h-0.1h-0.2l-0.2,0.1l-0.1,0.1h0.1H159.7z M166.6,53.8L166.6,53.8l0.1,0.1h0.1h0.1h0.1l0.1-0.1
	l0.1-0.1h0.1l0.2-0.1l0.2-0.2l0.1-0.2l-0.2-0.1h-0.1l-0.1,0.2h-0.1h-0.1h-0.1H167l0,0v-0.1v-0.1l0,0h-0.1h-0.1l-0.1,0.1l-0.1,0.1
	h-0.1l-0.1-0.1h-0.1v0.1v0.1L166.6,53.8L166.6,53.8z M167.3,51.1L167.3,51.1h0.2l0.1-0.1l0.1-0.1l0.1-0.1l0,0l0,0l0,0l0,0l0.1-0.1
	l0.3-0.2l0.1-0.2l0,0h0.1l0.4-0.2l0.1-0.1l0.1,0v-0.2l-0.1,0.1l-0.1,0.1l-0.2,0.1l-0.2,0.1l-0.1,0.1v0.1l0,0l0,0l-0.2,0.3v0.1
	l-0.1,0.1l-0.1-0.1l-0.1-0.1v-0.1l-0.1,0.1l-0.1,0.1l-0.1,0.1l-0.1,0.1L167.3,51.1l-0.1,0h-0.1l-0.1,0.2l0,0l0,0l0,0l0.1-0.1
	L167.3,51.1z M169.7,51.9L169.7,51.9l-0.2,0.1h-0.1h-0.1l-0.1,0.1l0.1,0.1h0.2h0.1v-0.1L169.7,51.9l0.2-0.1v-0.1v-0.1l0,0l-0.1,0.1
	L169.7,51.9z M169.1,52.1l-0.1,0.1v0.2v0.2v0.2v0.1l0,0l0,0l0,0v-0.1l0,0l0,0v-0.1l0.1-0.3V52.1z M283.6,164.5l-0.1-0.1l-0.1-0.6
	v-0.3l0.2-1v-0.3l-0.1-0.1l-0.1-0.4l-0.1-0.1h-0.2l-0.2-0.2l0,0l-0.2-0.2l-0.1-0.1l-0.1-0.1v-0.6v-0.2l-0.1,0.1l-0.1,0.1h-0.1h-0.1
	v-0.1v-0.1v-0.1l0.1-0.1l0.1,0.2v-0.4v-0.1l0.1-0.3v-0.1l0,0l-0.1,0.1h-0.1h-0.1v-0.1v-0.1l-0.1-0.1l-0.2-0.2l0,0l0,0v-0.1v-0.1l0,0
	v-0.1l-0.1-0.1l-0.1-0.1v-0.1v-0.4v-0.1l-0.1-0.2l0,0l0,0v-0.1l-0.1-0.2l-0.1-0.1l-0.1-0.1h-0.1H281h-0.1l-0.1-0.1l-0.1-0.1v-0.3
	l-0.1-0.1l-0.1-0.1l-0.3-0.1l-0.1-0.1l-0.1-0.1l-0.1-0.1v-0.1l0.1-0.1l0.1-0.1h0.1l0.1-0.1v-0.3l0,0l-0.1,0.1h-0.1H280h-0.1
	l-0.1-0.1v-0.1l0.1-0.1V155l0.2-0.2l0.2-0.1h0.3l0.2,0.1l0.1-0.1v-0.2l-0.4-0.8v-0.2v-0.3v0.1v-0.1v-0.1V153l0.1-0.1l0,0v-0.1v-0.2
	V152v-0.3l-0.2-0.1l0,0v-0.1v-0.1v-1.3l0.1-0.2l0.1-0.2l-0.1-0.1h-0.1h-0.1h-0.1l-0.1-0.1v-0.1v-0.1v-0.2l0.2-0.7v-0.1l0.1-0.3v-0.1
	l0.1-0.3v-0.1l0.1-0.1l0.1-0.2V147l0.1-0.2v-0.1l-0.2,0.1h-0.2l-0.2-0.1l-0.1-0.1l-0.1-0.3v-0.2V146l-0.1-0.1l0,0l0.1,0.1l-0.1,0.1
	v0.1v0.2v0.1l-0.2,0.4l0,0v-0.2v-0.1v-0.1l0.1-0.1l0,0v-0.1V146v-0.1l-0.3-0.4h-0.1l-0.1-0.1l-0.1-0.1l-0.1-0.1l0,0h0.1l-0.2-0.1
	l0-0.1l-0.1-0.1h0.2v-0.2l-0.1-0.4v-0.2l0.1-0.1l0.2-0.2l0.1-0.1l0,0h-0.1v-0.1l0,0h0.1l0.1-0.1v-0.1h-0.1l-0.4,0.2h-0.1v-0.1v-0.1
	v-0.1l0.3-0.1l0,0l-0.1-0.6v-0.2v-0.1H279l-0.3-0.1h-0.1V142l0,0h-0.1v0.1v0.1v0.1l-0.1-0.1l-0.2-0.1H278h-0.3l-0.1-0.1l-0.1-0.1
	l-0.1-0.1l-0.1-0.1l-0.1-0.1H277h-0.2l0,0l0,0l0,0l0,0l0,0h0.1l0,0h0.2l0,0v-0.1v-0.1l-0.3-0.1l-0.1-0.1v-0.1l-0.5-0.7v-0.1v-0.6
	l-0.1-0.3l-0.1-0.3l-0.2-0.2l-0.2-0.1l-0.4-0.1h-0.1H275l-1-0.7l-0.2-0.2l-0.3-0.4l-0.2-0.1l-0.4-0.7l-0.4-1.2v-0.1l0,0l-0.1-0.1
	l-0.1-0.1V135v-0.2v-0.1h-0.1l0,0l0,0l0,0l0,0l0,0l0,0l0,0h-0.1l-0.1-0.1l-0.2-0.1l-0.1-0.1l-0.1-0.2V134v-0.2l-0.2,0.2h-0.1v0.1
	h-0.1L271,134l0.2-0.1l0,0h-0.1l-0.1-0.1l-0.1-0.1l-0.1-0.1h-0.1h-0.1h-0.1l-0.1,0.1v0.1l0.2,0.1l0.1,0.1l0.1,0.1v0.1l0.1,0.2
	l-0.2-0.1l-0.1-0.1l-0.2-0.1h-0.2l0,0l0,0l0,0v0.1l-0.1,0.1v0.1l0,0l0,0l0,0l0,0H270h-0.1v-0.1v-0.1l0,0l0,0l0,0l0,0v-0.1l0,0l0,0
	l-0.1-0.1l-0.1-0.1h-0.1h-0.1l0,0v0.1l0,0l0,0l0,0l-0.1-0.2l-0.1-0.2l-0.4-0.4v-0.1l-0.1-0.1l0,0h-0.1h-0.1h-0.1l0,0l0,0l0,0v-0.1
	v-0.1l0,0h-0.1h-0.1l0,0l-0.3-0.1l-0.2-0.1l-0.1-0.1l0,0l-0.1-0.1v-0.1v-0.1V132v-0.1l-0.1-0.2v-0.1l-0.1-0.1l-0.3-0.2l-0.1-0.1
	l-0.1-0.3l-0.1-0.1l-0.3,0.1l-0.2-0.1h-0.1v0.1l-0.1,0.1h-0.2l-0.1-0.1v-0.1l-0.1-0.1h-0.1h-0.2l0,0h0.3h0.1l0.1-0.1v-0.1l-0.2-0.3
	l-0.2-0.2l-0.2-0.7l0.2-0.1l0.1-0.2v-0.2l-0.1-0.1l0,0l0,0l0,0l-0.1-0.1v-0.1v-0.1v-0.1l-0.2-0.1v-0.3l0.1-0.5v-0.1v-0.1l0,0v-0.1
	V127v-0.1v-0.1l0,0l-0.1-0.1h-0.1v-0.1l0,0h0.2h0.1l0,0l0,0v-0.1l0,0v-0.1v-0.3l0.1-0.2v-0.3l0.1-0.3v-0.1v-0.1l-0.1-0.2v-0.1h-0.2
	v-0.2l0.1-0.4V124l-0.1-0.1h-0.1v0.2v0.2v0.1v0.1l-0.1,0.1H265h-0.1v-0.1v-0.2v-0.1h-0.1h-0.2l0.1-0.2l-0.1-0.1v-0.1h0.1h0.1
	l0.1,0.2l0.1-0.1l0.2-0.2h0.1v-0.1v-0.1l0,0h-0.1l-0.2-0.1h-0.1l-0.1-0.1l-0.1-0.1V123v-0.1l-0.1,0.1v0.1v0.1l0.1,0.1l0,0L264,123
	l-0.1-0.1h-0.1h-0.1h0.1l0,0v-0.1v-0.1l0.1-0.1v-0.1l-0.1-0.1l-0.1,0.1l-0.2-0.1h-0.1l-0.2,0.3l-0.1,0.4l0.1,0.4l0.2,0.2l0,0v0.1
	l0.1,0.2l0.1,0.2l0.1,0.1l0,0l-0.5-0.4l-0.1-0.1l-0.3-0.1l-0.1-0.1l-0.1-0.1l-0.1-0.1l-0.1-0.1l-0.1-0.1l-0.2-0.1L262,123l-0.2-0.1
	h-0.1l-0.6-0.2l-0.1-0.1l-0.1-0.2l0.1-0.1v-0.1l-0.2-0.1l0,0l0,0V122v-0.1v-0.1l0,0h-0.1h-0.1l-0.1-0.1l-0.1-0.1l-0.1-0.1l-0.1-0.3
	v-0.1l0,0l-0.1-0.1v-0.1l-0.2,0.1h-0.1h-0.1l-0.1,0.1l-0.1,0.1v0.2l-0.1,0.3l-0.1,0.1l-0.1,0.1v0.1l0.1,0.1v0.1h-0.1v0.1l0.1,0.2
	l0.1,0.1l0.4,1l0.2,0.6l-0.1-0.1l-0.2-0.2l-0.1-0.2l-0.1-0.2l-0.1-0.1l-0.6-0.4v-0.1v-0.1l-0.1-0.1l-0.2-0.2l-0.1-0.1l-0.1,0.1
	l-0.1,0.2l-0.1,0.1l-0.2,0.2l-0.3,0.1h-0.2l0.1-0.1l0.1-0.1l0.1-0.1v-0.2v-0.3v-0.1v-0.1l-0.1,0.1l-0.1-0.1V122l-0.1-0.1h-0.1l0,0
	l-0.3-0.1l0,0v-0.1l0.1-0.1v-0.1l-0.2-0.2l0,0v-0.1h-0.1v-0.1l0,0l0.1-0.1l-0.3-0.4v-0.1v-0.3v-0.1l-0.3-0.4l-0.1-0.1v-0.1v-0.1
	v-0.2v-0.1V119l0,0l0,0l-0.1-0.1l-0.1-0.1l-0.1-0.1v-0.1l0.1-0.1l0.1-0.1h0.1h0.1v-0.1v-0.1l0,0l-0.1-0.1l-0.1-0.3v-0.2v-0.1
	l0.3-0.3V117v-0.1l-0.1-0.1l-0.1,0.1l-0.1,0.2l-0.1,0.1l-0.1,0.1l-0.1-0.1v-0.1l0,0h-0.1V117v-0.2l0,0h-0.1h-0.1l-0.1-0.1l-0.3,0.2
	H255v-0.2v-0.1l0.1-0.1l0.1-0.1l0.1-0.1l-0.1-0.1H255l-0.1-0.1h0.1h0.1h0.1V116l-0.1-0.2l-0.1-0.1v-0.1l0,0v-0.1v-0.1l0,0h-0.1l0,0
	l0,0l0,0l0,0v-0.1l0,0l0,0h-0.1l0,0l-0.1,0.1h-0.1l-0.1-0.1l-0.2-0.4v-0.3l0.2-0.4V114l-0.2-0.2l0,0h-0.1l-0.1-0.1l-0.1-0.1v-0.1
	l-0.1-0.1h-0.3l-0.1-0.1v-0.1h-0.1l-0.2,0.1h-0.1v-0.1l0.1-0.1V113l-0.1-0.1h0.1h0.1h0.1v-0.1l-0.1-0.1h-0.1h-0.1l0,0l0,0l0,0H253
	l-0.2-0.1v-0.1h-0.1h-0.2h-0.1l-0.1-0.1l-0.1-0.1l-0.1-0.1l-0.1,0.2l-0.1,0.1h-0.1l0,0l0,0v-0.1v-0.1v-0.1l0,0l0,0l0,0v-0.3v-0.1
	v-0.1l0,0h-0.1l0,0h-0.1h-0.1l0,0v-0.1l-0.1-0.2l0,0l-0.1-0.1l-0.1-0.2h-0.1l0.1-0.1v-0.1l-0.1-0.1l0,0H251l0,0l0,0v-0.1l0,0
	l-0.1-0.2l-0.1-0.1v-0.1h0.1l0.1-0.1l0.1-0.1l0.1-0.1v-0.1l-0.1-0.2v-0.1h0.2l0.1,0.1v0.1l0,0h0.1h0.1l0,0v-0.1v-0.1l0,0l0,0h0.1
	l0,0l0.1,0.1l0,0v0.1v0.1v0.1v0.1h0.1h0.1l0.1,0.1l0.1,0.1h0.1h0.1h0.1v0.1h0.1h0.1h0.1h0.1l-0.1-0.1l-0.1-0.1v-0.1h0.2l-0.4-0.2
	l-0.1-0.1l-0.1-0.2v-0.1v-0.1v-0.1l-0.1-0.1l0,0h-0.1H252v-0.1l0,0l-0.1-0.1v-0.1l0.1-0.1l-0.1-0.2l-0.2-0.1v0.2h-0.1h-0.1l-0.3,0.1
	v-0.1v-0.1v-0.1l0,0l0,0l-0.1-0.1l0.1-0.1v-0.1v-0.1V108h-0.1l-0.1,0.1V108v-0.1v-0.1h-0.1v0.1v0.1v0.1l-0.1,0.1h-0.1v-0.1V108
	l0.1-0.1h-0.2l-0.1-0.2v-0.2v-0.4l0,0l-0.1,0.1l-0.1,0.1h-0.1H250h-0.1l-0.1-0.1l-0.1-0.1h-0.1v0.1v0.1v0.1h0.1h0.1l0.1,0.1v0.1v0.1
	h-0.1h-0.1h-0.1L249,108h0.1h0.1h0.1v0.1l-0.1,0.1h-0.1H249h-0.1v-0.1V108l-0.2-0.1l-0.2-0.2h-0.1l0,0l-0.2-0.2h-0.1l-0.2-0.1
	l0.1-0.1v-0.1v-0.1l-0.1-0.1l0.1-0.1h0.1L248,107v-0.1v-0.1h-0.2l-0.4-0.1l-0.4-0.1l-0.1-0.1v-0.1l-0.2-0.2l-0.1-0.1l-0.1,0.1l0,0
	l0,0h-0.1l0,0l0,0v0.1v0.1l0,0h-0.3H246l-0.1-0.1l-0.2-0.1l-0.2-0.1l-0.1-0.2l-0.1-0.6L245,105l-0.5-0.2v0.4v0.1v0.1l0.2,0.4h-0.4
	h-0.2l-0.5-0.5l-0.1-0.2l-0.1-0.1h-0.1h0.2v-0.1l-0.1-0.2v-0.2l-0.1-0.1l-0.1-0.2V104v-0.2l-0.1-0.1l-0.4-0.5l-0.3-0.7l-0.1-0.2
	l-0.1-0.1v0.1l0.1,0.1l0.2,0.1l0.1,0.1l0.1,0.1v0.1l-0.2,0.1h-0.9l-0.2,0.1h-0.1h-0.1l-0.2,0l-0.4-0.1h-0.1l-0.1,0.1l-0.3-0.4v-0.1
	l-0.2-0.2v-0.1v-0.1l0.1-0.2v-0.1l0,0l0,0l-0.1-0.1l0,0v-0.1l-0.1-0.1v-0.1l0,0v0.1v0.1v0.1l-0.1,0.1l-0.2,0.2l-0.1,0.1h-0.1
	l-0.2,0.1l-0.2-0.1l-0.2-0.2l-0.1-0.1h-0.1l-0.1-0.1l-0.2-0.2l-0.1-0.2l-0.1-0.1l-0.4,0.1l-0.3-0.1l-0.5-0.3h-0.1h-0.1l0,0v-0.1
	l-0.1-0.1l-0.1-0.1l-0.3-0.1l-0.1-0.1l-0.1-0.1l-0.1-0.2l-0.1-0.1l-0.7,0l-0.1-0.2v-0.1l-0.1-0.1l0,0v-0.1l-0.1-0.2v-0.1v-0.1V99
	l0,0l0,0l0.1-0.8l0.2-0.4l0.1-0.2v-0.3V97l-0.2-0.1h-0.1l-0.1,0.1l0,0l-0.1-0.1h-0.1h-0.1v-0.1l-0.2-0.5v-0.2V96l-0.1-0.1H234h-0.2
	h-0.1l-0.1-0.1l-0.5-0.6L233,95v-0.2v-0.1v-0.1v-0.1v-0.1v-0.1l0.1-0.2v-0.2l0.3-0.6l0.2-0.5v-0.1v-0.1v-0.2l0.1-0.1v-0.1l-0.1-0.1
	V92v-0.1v-0.1l0,0l0,0v-0.1l0.1-0.1l0,0v-0.4v-0.1l0.1-0.1l0.2-0.1v-0.1v-0.1l-0.1-0.1l-0.2-0.2l-0.2-0.2l-0.1-0.2v-0.1v-0.4v-0.3
	v-0.1h-0.1l-0.1-0.1l-0.1-0.1l-0.2-0.4l-0.2-0.3v-0.1v-0.2v-0.1v-0.1l-0.3-0.5l-0.1-0.1h-0.1V87v-0.1v-0.1v-0.1l0.1-0.2h0.1l0,0
	v-0.1l0.1-0.1l0,0h-0.1l0,0l0,0l0.1-0.1l0,0l0,0v-0.1V86h-0.1h-0.1l0,0l0,0l-0.1,0.1l-0.2,0.1h-0.1l-0.1-0.1l-0.1-0.1l-0.1,0.1
	l-0.2,0.2h-0.1l0,0v0.1v0.1l0.1,0.1l0,0h-0.1h-0.1l0,0v-0.1l0,0l-0.1-0.1l-0.1-0.1v-0.1v-0.1h0.1h0.1h0.1V86v-0.1l-0.1-0.1l-0.1-0.1
	l-0.1-0.3h-0.1l-0.1-0.1l-0.1-0.1v-0.1V85v-0.1h-0.1l-0.2-0.1h-0.1l-0.3-0.3l-0.1-0.1l-0.1-0.1v-0.1l0,0l-0.1-0.1l-0.1-0.2l-0.2-0.2
	v-0.1v-0.1l-0.1-0.1l-0.1-0.1l-0.1,0.1H229l-0.1-0.1v-0.1v-0.1l0.1-0.2v-0.5l0.1-0.2l0.2-0.2v-0.1v-0.1v-0.2l0,0l-0.1-0.1l0,0v-0.2
	l0.1-0.4v-0.3l-0.1-0.2l-0.1-0.2l-0.3-0.4l-0.2-0.1l-0.1-0.1v-0.1v-0.1l0.1-0.1v-0.1v-0.1l0,0l0,0V79v-0.1v-0.3v-0.1l-0.1-0.1
	l-0.3-0.6l0,0l0,0l0.1-0.1v-0.1v-0.1l-0.1-0.1l0,0l-0.2-0.2l0,0l0,0v-0.1V77l0,0l0.1-0.1v-0.1l-0.1-0.3h-0.1h-0.1v-0.1v-0.1l0.1-0.1
	l0,0l0.1-0.1l0,0V76v-0.1v-0.1l0.1-0.1l-0.1-0.1v-0.1l0.1-0.1l0.3-0.1v-0.1l-0.1-0.1l-0.1-0.1v0.2l-0.1,0.1H228h-0.1h-0.1l-0.1-0.1
	V75l-0.1-0.2v-0.1l0.1-0.5l0.1-0.1l0.5-0.7l0.1-0.2h-0.2h-0.1H228l-0.4-0.4l-0.1-0.1l0.1-0.2h-0.1h-0.2h-0.1h-0.1l-0.1-0.1h-0.1
	l-0.2-0.1l-0.1-0.1l-0.1-0.1l-0.2,0.1l-0.1-0.1l-0.4-0.3l-0.1-0.1l0,0v-0.3l0,0l-0.1-0.1v-0.1v-0.1V71v-0.1l-0.1-0.1h-0.1H225h-0.2
	l-0.1-0.1l-0.1-0.1l-0.1-0.1h-0.1l-0.3,0.1H224v-0.1l-0.1-0.2v-0.1l-0.2-0.1l0,0V70v-0.4v-0.1h0.1l0.1-0.1v-0.1v-0.1l-0.1,0.1
	l-0.1,0.1h-0.1l-0.1-0.1V69v-0.1l0.1-0.1l-0.3-0.4l-0.1-0.1l0,0v-0.1l-0.1-0.1H223h-0.1l0,0l0,0v0.1l0,0l0,0v0.1l-0.1,0.3h-0.1
	l-0.9,0.4l-0.1-0.1h-0.1h-0.1h-0.1l0,0l-0.1-0.2l0,0l0,0l0,0l0,0l0,0l0,0v-0.1l0,0l-0.1,0.1v0.2v0.2v0.2v0.1l-0.1,0.1l-0.1,0.1h-0.1
	l-0.1,0.1l-0.3,0.3l-0.2,0.1l-0.3,0.2h-0.2h-0.1l-0.1,0.1v-0.1h-0.1h-0.2h-0.1h-0.1l-0.1-0.1l-0.1-0.1l-0.2-0.2l-0.1-0.2l-0.2-0.4
	l-0.3-0.9v-0.6l-0.1-0.1v-0.1l-0.1-0.4l-0.1-0.1l-0.4-0.3v-0.1v-0.1v-0.1v-0.1v-0.2v-0.1l-0.2-0.3v-0.1v-0.1l-0.1-0.2v-0.1v-0.1
	l0.1-0.3l0.1-0.4l0.1-0.2l0.2-0.4v-0.1h-0.1v-0.1l0.1-0.4v-0.1v-0.1V63l-0.1-0.1v-0.1l-0.2-0.2l0,0v-0.1v-0.9l-0.2-0.8l0.1-0.5V60
	l-0.1-0.2l0.3-0.6l-0.1,0.1l-0.1,0.1h-0.1h-0.2h-0.1h-0.1h-0.1l-0.1,0.1h-0.1h-0.1h-0.1h-0.1l-0.1,0.2v-0.1v-0.4l0.1-0.4v-0.1
	l0.2-0.3v-0.1l-0.1-0.1l0.1-0.1l0.2-0.2l0,0l-0.2-0.2l-0.1-0.1h-0.1H216l-0.3-0.1h-0.1l-0.1-0.1l-0.1-0.1v-0.1v-0.4v-0.1l-0.1-0.1
	v-0.1l0,0l-0.3-0.2l0,0l-0.1-0.1h-0.1h-0.2h-0.2h-0.1l-0.1-0.1v-0.3v-0.1l0.1-0.1l0,0l0,0l0,0l0.1-0.1v-0.1v-0.1v-0.1V55l0,0v-0.1
	l0,0h0.1l0,0l0.7-1h0.2h0.1l0.1-0.1l-0.1-0.1h-0.1h-0.2h-0.1H215l-0.3-0.3l-0.1-0.1h-0.2l-0.2,0.1h-0.1h-0.2l-0.1-0.1l-0.2-0.2h-0.1
	l-0.4-0.3l-0.1-0.1v-0.1l0.1-0.6l-0.1-0.9V51l-0.1-0.1v-0.1v-0.3v-0.1l-0.1-0.1v-0.1l0.1-0.2l0.1-0.3l0.1-0.1v-0.1v-0.1v-0.1
	l-0.1-0.1v-0.1V49l-0.1-0.1l-0.1-0.1h-0.1l-0.1-0.1v-0.2v-0.2v-0.2l0.1-0.1v-0.1l0,0l-0.1-0.2v-0.2v-0.2l-0.1-0.2l-0.1-0.1l-0.1-0.1
	v-0.1v-0.2v-0.1h-0.1H212l-0.2,0.1l-0.1,0.1v-0.1l0.1-0.2l-0.1-0.1h-0.1h-0.1l0,0l-0.1-0.3l-0.1-0.1h-0.2h-0.2l-0.1,0.1v0.1
	l-0.1,0.1l-0.1,0.1h-0.1l0.1-0.2v-0.2v-0.2v-0.2l0,0h0.1h0.1v-0.1l0.1-0.2v-0.1l0,0h0.1h0.1l0,0V45v-0.1l0,0L210,45l-0.2-0.1
	l-0.1-0.1l0,0l0,0l0,0l0,0l0,0l0,0l0,0l0,0l0,0l-0.1,0.1l0,0h-0.3h-0.1l-0.1,0.1l-0.1,0.1l-0.1,0.3v0.1v0.1l-0.2,0.3l-0.2,0.2
	l-0.1,0.1h-0.2h-0.1H208h-0.1l-0.1,0.1l0,0l-0.3,0.1l-0.2,0.1v0.2l0.1,0.6v0.6v0.2l-0.1,0.2v0.1v0.2V49v0.2l-0.8,2.5v0.2V52v0.1
	l-0.3,0.4l-0.1,0.6v0.3l0.1,0.2l0,0h0.1h0.1h0.1v0.1l0.1,0.2h0.1V54l-0.1,0.2l-0.3-0.2h-0.1l-0.1,0.1l-0.2,0.4v-0.1v-0.1l-0.1-0.4
	v-0.1v-0.1l0.1-0.1l-0.3,0.1l-0.3,0.3l-0.2,0.3l-0.1,0.4l-0.1,0.3l-0.1,0.3v0.1v0.1h0.1l0,0v-0.1l0,0l0,0v0.1v0.1l0,0h0.1h-0.1h-0.1
	h-0.1l-0.3-0.1h-0.1l-0.1,0.1l-0.1,0.4l-0.7,1.4v0.1l0.1,0.1h0.1l0.3-0.1h0.2h0.1v-0.1h-0.1h-0.2l0,0V57v-0.1l0,0l0,0l0,0l0,0
	L204,57h0.1h0.3l0,0l-0.1,0.1l-0.3,0.2l0.3,0.1l0.1,0.1l0.1,0.1l0.1,0.2l0.1,0.1l0.1,0.1h0.1h0.2h0.2h0.1h0.1l0.1-0.1h0.1l0.1,0.1
	l0.2,0.1h-0.2h-0.1h-0.1l-0.1,0.1h-0.1l-0.2,0.1l-0.2,0.1l-0.1,0.1h0.1l0.3,0.1l0.1,0.1l0.1,0.1l0.1,0.1h0.2h0.2h0.2l-0.1,0.1
	l-0.6,0.2l0.1,0.1l0.1,0.3l0.1,0.2v0.1V60v0.1l-0.2-0.3h-0.1l-0.1-0.1v-0.1v-0.3l-0.1-0.4l-0.1-0.1L205,58h-0.1l-0.1,0.1l0,0v-0.2
	v-0.1h-0.1l-0.1,0.1V58v0.2l-0.2,0.4v0.1v0.1l-0.1,0.2l-0.1,0.1l-0.2,0.1l-0.1,0.1l-0.1,0.1l-0.1-0.1v0.1l-0.1,0.1l-0.1,0.1
	l-0.1,0.2v0.1V60l0,0l0,0l0,0l0.1,0.3v0.5v0.1l0.1,0.2v0.1l0.1,0.1l0,0l0,0l0,0h0.1l0,0l0,0l0,0v0.1v0.1v0.1v0.1l-0.1,0.1v0.1V62
	l-0.1,0.1v0.1l0.1,0.1h-0.1h-0.1h-0.1h-0.1v0.2l-0.2,0.5l-0.1,0.1l-0.2,0.2v0.1v0.2l-0.2,0.3l-0.4,1.4v0.6l0.1,0.6l0.3,0.5l0.2,0.2
	l0.1,0.2l0.1,0.3V68v0.3l-0.1,0.3l-0.4,1l-0.1,0.3v0.3v0.1l0.1,0.2v0.1V71l0.4,1.7l0.1,0.1l0.2,0.2v0.1l0,0l0.1,0.1l0.1,0.1l0.1,0.1
	v0.1v0.2v0.1v0.1V74h-0.2v0.1v0.1v0.1l-0.1,0.1l-0.1,0.1l-0.1,0.1v0.1h-0.1l-0.1,0.1v0.1v0.2v0.1l-0.6,1.3l-0.3,1.1l-0.2,1.4v0.3
	v0.1l-0.1,0.1v0.1v0.1l0.2,0.7l0.1,0.1v0.1l-0.4,0.7v0.1l-0.1,0.1v0.1V82v0.1l-0.1,0.3v0.1v0.1l-0.2,0.2v0.1V83v0.1h0.1l0,0v0.1v0.1
	v0.1l-0.1,0.2l-0.1,0.3h-0.1l-0.1,0.1l-0.1,0.4l-0.1,0.2v0.1v0.1l-0.4,0.4l-0.1,0.2l0,0H200h-0.1l0,0l-0.2,0.6l-0.6,0.8l-0.1,0.1V87
	v0.1v0.1l-0.1,0.4v0.1v0.1V88l-0.1,0.2v0.1l-0.1,0.2l-0.1,0.6l-0.2,0.5l-0.1,0.1l-0.1,0.1h-0.1h-0.2l-0.1,0.1l-0.1,0.1l-0.1,0.1v0.1
	l-0.1,0.1h-0.3l-0.1,0.1l-0.2,0.2l-0.2,0.1h-0.1h-0.1h-0.2h-0.1l-0.2,0.2l-0.1,0.1h-0.1h-0.3h-0.1l-0.1,0.1h-0.1h-0.1l-1.1,0.2
	l-0.8,0.1l-0.8-0.1h-0.1l-0.2-0.2l-0.1-0.2l-0.1-0.1l-0.6-0.2l-0.1-0.1l-0.1-0.1h-0.2l-0.6-0.2h-0.2l-0.2-0.1l-0.2-0.1l-0.3-0.3
	l-0.3-0.2l-0.1-0.1h-0.1l-0.2-0.1l-0.2-0.1h-0.1l-0.2-0.1h-0.6l-0.3-0.1l-0.2-0.2l-0.2-0.2l-0.3-0.6l-0.1-0.2l-0.1-0.3v-0.3l0.1-0.2
	l-0.4-0.2l-0.2-0.2l-0.2-0.4l-0.2-0.1l-0.2-0.1h-0.7h-0.2l-0.2-0.1l-0.3-0.1h-0.1l-0.2-0.1h-0.1h-0.1l-0.2-0.2h-0.1h-0.7l-0.3,0.1
	l-0.3-0.1l-0.3-0.1l-0.2-0.1h-0.4h-0.1l0,0l-0.1-0.1l0,0h-0.1h-0.2l-0.1-0.1l-0.2-0.1l-0.2-0.1l-0.3-0.3l-0.3-0.1l-0.4-0.5l0,0
	l-0.3-0.2l-0.2-0.2l-0.3-0.3l-0.1-0.2V83l-0.4-0.5v-0.1l-0.2-0.3l-0.1-0.1l-0.3-0.1l-0.2-0.1l-0.7-0.3H176h-0.1h-0.1h-0.1h-0.1
	l-0.2-0.1h-0.1h-0.1h-0.1v-0.1v-0.1H175h-0.2h-0.1l-0.5-0.3l-0.2-0.2v-0.1l-0.1-0.1l-0.4-0.2h-0.1h-0.1h-0.1l0,0l-0.1-0.1l-0.3-0.1
	l-0.3-0.2l-0.3-0.2l-0.1-0.2H172l-0.3,0.1l-0.1,0.1l-0.1,0.1v0.1l0,0h-0.1l0,0l-0.1-0.1h-0.1h-0.1h-0.2l-0.3-0.1h-0.1l-0.1,0.1
	l-0.1,0.1l-0.1,0.1h-0.1l-0.1-0.1v-0.1l0.1-0.1v-0.1l-0.1-0.1h-0.1l-0.2-0.3l-0.1-0.1l-0.3-0.2v-0.1l-0.1-0.2l0,0h-0.1H169h-0.1
	h-0.1h-0.2l-0.1-0.1l-0.1-0.1l-0.2-0.1l-0.3-0.4h-0.1h-0.3l-0.1-0.1l-0.3-0.2l-0.1-0.1v-0.1l-0.1-0.5l-0.1-0.3l0,0l-0.1-0.1
	l-0.1-0.1l-0.3-0.1l-0.2-0.1h-0.2h-0.1h-0.1l-0.2-0.2l-0.1-0.1l-0.3-0.1H165l-0.2-0.1l-0.2-0.2l-0.2-0.2l-0.2-0.2l-0.4-0.2l-0.1-0.1
	l-0.1-0.1l-0.1-0.1h-0.2h-0.1l-0.1-0.1l-0.1-0.1l-0.2-0.1l-0.1-0.2l0,0h-0.1h-0.1l-0.2-0.1l-0.2-0.1l-0.5-0.5l-0.1-0.2l-0.3-0.7
	l-0.1-0.2V72v-0.1H161l0.1-0.1h0.1h0.1h0.1h0.1v-0.1v-0.1l0.1-0.1l0.2-0.1l0.2-0.1l0.1-0.1l0.1-0.2l0.1-0.3l0.1-0.2l0.4-0.6l0.1-0.1
	l0.1-0.1h0.2l0.1-0.1l0.4-0.7l0.2-0.2l0.2-0.1l0,0l0.1-0.1l0,0l0,0h0.2l0,0v-0.1l0.1-0.1h0.1h0.1v-0.4l0.1-1.2l0.3-0.2l0.2-0.2l0,0
	v-0.2V66l0,0l0,0l0,0l0.1-0.2v-0.1l-0.1-0.1l0.2-0.3l0.1-0.3v-0.1l0.1-0.1v-0.1v-0.1l0,0l0,0h-0.1h-0.1h-0.1l0,0l0,0v0.1l-0.2,0.3
	l-0.2,0.1l-0.2,0.1l-0.2-0.1l-0.1-0.2v-0.2l0.2-0.1l0,0v-0.1l0,0l-0.1,0.1l-0.1-0.1l-0.2-0.4V64v-0.1v-0.1l0,0l0,0l0,0v-0.1
	l-0.1-0.2v-0.2v-0.2l0.1-0.1h0.2l0.3,0.2v-0.1h0.1h0.1l0.1-0.1v-0.1v-0.1H165l0,0l0,0l0,0h-0.1l0,0l0,0l0,0l0,0v-0.1v-0.1v-0.1h-0.1
	l-0.1-0.1v-0.2l0.1-0.3v-0.1v-0.1l0.1-0.1h0.1l0.1,0.1l0.1,0.2l0.1-0.3l0.1-0.1h0.1l0.1,0.1v0.2V62v0.2l0,0v-0.1v-0.3v-0.1l0,0l0,0
	h0.1h0.1l0,0l0,0l0.3-0.6h0.1l0.1,0.2v0.2v0.2v0.2l0.1,0.2l0.1-0.1h0.1h0.1v-0.1l0,0v-0.1l0,0l0,0l0,0l0.1-0.1v-0.1l-0.1-0.1v-0.1
	v-0.1l0.1-0.1h0.1l0.1,0.2h0.1h0.1l0.1-0.1v-0.1v-0.1l-0.1-0.1v-0.1v-0.1l0.1-0.1l0.1-0.1h0.1h0.1v0.1v0.2v0.2v0.2l0.1,0.2l0.1,0.2
	l-0.1,0.1l0,0l0,0h-0.2l0,0v0.1V62v0.1v0.1l0,0l0,0h0.1v0.1h0.1l0.1-0.1l0.1-0.2l0.1-0.1l0.2-0.2l0.1-0.1l0,0v0.1v0.1v0.1l0.1-0.1
	v-0.1v-0.2v-0.1l0.2-0.3h0.1l0.1-0.2l0.1-0.4l-0.3-0.1l0,0l0,0l0,0h-0.1l0,0l0,0v-0.1l0,0v-0.1l0,0h0.1l0,0h0.1l0,0l0,0v-0.1l0,0
	h0.1l0,0v0.3h0.1l0.1-0.1h0.1l0,0l0,0h0.1l0,0l0.1,0.1h0.1l0,0v-0.1v-0.1l-0.1-0.1l-0.1-0.1l-0.4-0.2h-0.1h-0.1v-0.1v-0.1l-0.1,0.1
	l-0.2-0.2v-0.1v-0.1l-0.1-0.2V59h0.1l0.1,0.1l0.2,0.2h0.1h0.1v-0.1v-0.1l-0.1-0.1v-0.1l0,0h0.1h0.1l0,0l0,0V59l0.1,0.2v0.1v0.1
	l0.1,0.1h0.1l0.1-0.1v-0.1v-0.1v-0.1l0.1-0.1l-0.2-0.2v-0.1v-0.1l0.1-0.1h0.3h0.1v-0.1v-0.3l0.1-0.1l0.2-0.3h0.1l0.2-0.1l-0.1-0.1
	l-0.1-0.2v-0.2l0.2-0.1l0,0l0,0h0.1h0.1v0.1v0.1v0.1l0,0l-0.1,0.2v0.1v0.1l0,0l0.1-0.1l0.8-0.9h0.1h0.1h0.1h0.1h0.1h0.1l0.1-0.1
	h-0.1h-0.1h-0.1v-0.3v-0.1l-0.3-0.4h-0.1l-0.5-0.2l-0.2-0.2l-0.1-0.1l-0.1,0.1l-0.4,0.1l-0.1,0.1l0.1,0.1h0.1h0.2h0.1h0.1l0,0v0.1
	l-0.1,0.2l-0.2,0.1H170l-0.2-0.1v-0.1l-0.1-0.1l-0.2-0.2l-0.1-0.1l-0.1-0.2l-0.1-0.1l0.1-0.2v-0.1l-0.1-0.1l-0.1-0.1l-0.2-0.3
	l-0.1-0.1l-0.1,0.1l0,0l-0.1-0.1v-0.1h0.1l0,0l0.1-0.1h0.3h0.1h0.1l0.1-0.1l0.1-0.1l0,0l-0.1-0.1v-0.1h-0.1v0.2l-0.1,0.1l-0.2,0.1
	h-0.2h-0.1h-0.1l-0.1,0.1h-0.1l-0.1,0.1l-0.2,0.2l-0.2,0.1l-0.2,0.2l0,0h-0.1h-0.1l-0.1,0.1l-0.4,0.4v0.1h-0.2h-0.1v0.1v0.1h0.1h0.2
	h0.1l0.1,0.1h0.1h0.1l0.2-0.1h0.1h0.1h0.1l0.1,0.1v0.1v0.1l-0.2,0.3l-0.2,0.5l-0.1,0.2l-0.2,0.2l-0.2,0.1H167h-0.2l0,0l-0.1-0.1
	h-0.1h-0.1l-0.3,0.1l0,0l0,0l0,0l0,0l0,0l0,0l0,0h-0.1v0.1v0.1v0.1l-0.1,0.1l-0.1-0.1v-0.1v-0.1v-0.1v-0.1h-0.1h-0.1V57v-0.1v-0.1
	v-0.1l0.2-0.3l0.1-0.2v-0.1l0,0h0.1h0.1V56v-0.1h-0.1L166,56l-0.1,0.1l-0.1,0.1h-0.1h-0.1V56l0,0l0,0v-0.1v-0.1v-0.1l0.1-0.1
	l0.2-0.1l0,0v-0.1l0,0l0.1-0.1l0,0h0.1l0.1-0.1l0.1-0.1V55l-0.2,0.1l-0.4,0.4h-0.1h-0.1h-0.1v0.1l-0.1,0.1l-0.1,0.1l0,0v-0.1v-0.1
	v-0.1l0,0h-0.1l-0.2,0.2l-0.3,0.2l-0.1,0.1l-0.1,0.2h-0.1h-0.1l-0.1,0.1l-0.1,0.3v-0.2l-0.1-0.1l-0.2-0.1l-0.1-0.2l-0.1-0.2v-0.1
	l0.1-0.1h0.1l0.2-0.2l0.1-0.1l0.2-0.2l0.2-0.2l0.2-0.2l0.2-0.1l0.3-0.1l0.1-0.1l0,0h-0.1l-0.2,0.1h-0.1h-0.4h-0.1h-0.1l0,0v-0.1
	v-0.1l0,0h0.2l0.1-0.1l0.2-0.3l0.5-0.4l0.2-0.2v-0.2l-0.1-0.1l-0.2-0.1H165l-0.1,0.1v0.1l0.1,0.1v0.1l-0.1,0.1h-0.1h-0.1h-0.1v0.1
	l0,0l-0.2,0.1l-0.2,0.2l-0.2,0.1l-0.1-0.1h-0.1h-0.1l-0.1,0.1l0,0l0,0l0,0h-0.1h-0.1l0,0l0,0l0,0h-0.1l-0.1,0.1v0.2l-0.1,0.2v0.1
	l0.1,0.1h0.1l0.3-0.2h0.1h0.1v0.1l-0.1,0.1l0,0l-0.1,0.1l0,0l-0.2,0.2h-0.1l-0.1-0.1l-0.1-0.2l-0.2,0.2l-0.1,0.1l-0.1,0.1h-0.1h-0.2
	h-0.1l-0.3-1h-0.1l-0.3,0.1l-0.3,0.1l-0.1,0.1v0.1l0,0l0,0l-0.1,0.1l0,0l-0.3,0.1l0,0l0,0l0.3,0.2h0.1h0.1h0.1v0.1l-0.1,0.1h-0.1
	h-0.1l-0.1,0l-0.1-0.1h-0.1h-0.1l-0.2,0.1h-0.1l0.1,0.1l0.2,0.2l0.1,0.1h-0.1l-0.1-0.1l-0.1-0.1l-0.1-0.1l-0.1-0.1h-0.1h-0.1H160
	l-0.1,0.1h-0.1h-0.1l-0.1-0.2l0,0l0,0l-0.2-0.1l0,0l-0.1-0.1l-0.1-0.2l0,0l0,0h-0.1H159h-0.1h-0.3h-0.1l-0.1-0.1v-0.1V54v-0.1h-0.1
	h-0.1h-0.1l0,0v-0.1v-0.1l-0.1-0.1v-0.1v-0.1v-0.1v-0.1l0,0h-0.1h-0.2l-0.1,0.1h-0.1l-0.4,0.4l-0.2,0.1l-0.1,0.1l-0.1-0.1h-0.1
	l-0.3,0.1h-0.6l-0.3-0.1l-0.2-0.1l-0.4-0.3l-0.1,0.1v0.1v0.1v0.1l-0.1,0.1l-0.2,0.2l-0.1,0.2l0,0l0,0v-0.1v-0.1V54l0,0v-0.2v-0.1
	v-0.1l0,0l0,0l0,0v-0.1l0,0h0.1l0,0v-0.1h-0.1h-0.1l0,0v-0.1l-0.1-0.2l0,0l0,0l-0.3,0.3v-0.1v-0.1v-0.1V53v-0.1l0,0l0,0l0,0v-0.1
	l-0.1-0.1h-0.1h-0.1l-0.1,0.1v0.1V53l-0.2,0.1l-0.3,0.2l-0.3-0.2l-0.3-0.2l-0.1-0.2l0.1-0.2l0.2-0.1h0.2v-0.1l0.1-0.1l0.1-0.1h0.1
	l0,0V52l-0.1-0.2l-0.1,0.1h-0.1h-0.1h-0.1l0,0l0,0l0,0h-0.1H151l-0.2,0.3l-0.1,0.1h-0.1h-0.1h-0.1h-0.1l-0.1,0.3l-0.1,0.1l0,0H150
	l-0.1,0.1l0,0l-0.1-0.1l0,0l0,0l0,0h-0.1l0,0l-0.2,0.1l-0.1,0.1l-0.1,0.2l-0.1,0.1h-0.1l0.1-0.2l0.1-0.2v-0.2l-0.1-0.1l-0.1,0.1
	l-0.1,0.1h-0.1l0,0v0.1h-0.1l-0.2-0.1h-0.1h-0.1l0,0l0,0l0,0h0.1l0,0v-0.1h-0.1h-0.1l-0.1,0.1l-0.1,0.1v0.1H148h0h-0.1l-0.1-0.1
	v-0.1l0.1-0.1l0.1-0.1h0.1l0,0l-0.1-0.1h-0.1h-0.2h-0.1l-0.1,0.2l-0.1,0.1H147h-0.1l-0.1-0.1l-0.1-0.1l-0.1-0.1l-0.3-0.5l-0.2-0.2
	v-0.1v-0.2v-0.1H146h-0.1h-0.1l0,0l-0.1-0.2l-0.1-0.2l-0.2-0.2l-0.2-0.1l0,0l-0.1-0.2v-0.1l0,0l0,0l0,0l0,0l0,0l0,0h-0.2h-0.1l0,0
	v0.1l0.2,0.1v0.1v0.2V51h-0.1l-0.1-0.1h-0.2l0,0l0,0l0,0l0,0l0,0l-0.1,0.1h-0.1h-0.1h-0.1l-0.1,0.2l-0.1,0.1l-0.2,0.1l-0.1,0.1
	l-0.3-0.1l-0.2-0.2l-0.1-0.3l-0.1-0.2l-0.3-0.2l-0.1-0.1v-0.1l-0.1-0.1l0,0l0,0l0,0l0,0l0,0v-0.1V50v-0.1l-0.1-0.2l-0.2-0.3
	l-0.2-0.1l-0.2,0.1l-0.1,0.2l-0.1,0.1h-0.1h-0.1l0.1-0.3v-0.1l0,0l0,0l0,0l-0.2-0.5v-0.1l0,0v0.1v0.1l0,0l-0.1,0.1l0,0l0,0h-0.1
	l-0.1,0.1v0.1v0.3l0.1,0.2v0.1l-0.1-0.1l-0.1-0.1l-0.1-0.3l-0.1-0.1h-0.1l-0.1-0.1l-0.1-0.1l-0.1-0.1l-0.2-0.1l-0.1,0.1V49l0.1,0.1
	l0.1,0.1l0.1,0.1v0.1l-0.1,0.1l0.1,0.1v0.1v0.1v0.1l0,0V50l0,0l0,0l0,0l0,0l0,0l0.1,0.1l0.1,0.1v0.1l-0.1,0.1h-0.1l-0.1-0.1h-0.1
	v0.1l0.1,0.2v0.1H140l-0.1-0.1v-0.2v-0.2l-0.1-0.2l-0.1,0.1v0.1v0.1l0,0l0,0l0,0l0,0l0,0h-0.1v-0.1V50v-0.1v-0.1v-0.1l0,0l0.1-0.1
	l0,0v-0.1h-0.1l-0.1,0.1h-0.1l-0.1-0.1v-0.2l-0.2-0.1l-0.1-0.1l-0.1-0.1h-0.1h-0.1h-0.1l0,0v0.1l0.1,0.1v0.1l-0.1-0.1v0.2l0.1,0.1
	v0.1l-0.1,0.1h-0.1l0,0l0,0l-0.2-0.3l-0.1-0.1l0,0l0,0l-0.1,0.1v0.1l0,0l0,0v0.1l0,0l-0.1-0.1h-0.1h-0.1h-0.1v0.1l0.1,0.1l0.1,0.1
	l-0.1,0.1h-0.1l-0.1-0.1h-0.1l0.1,0.2h-0.1h-0.1l-0.1,0.1l0,0h0.3h0.1l0.2-0.1h0.1h0.1l0.2,0.1h0.1h0.1v0.1v0.1v0.1h0.1l0.2-0.1h0.1
	v0.1h-0.1h-0.1v0.1l0.1,0.1h0.1h0.1l0,0l0.1,0.2h0.2h0.2l0.1,0.1V51h-0.1h-0.1l0,0v0.1v0.1v0.1l0,0h0.1l0.1,0.1l0.1,0.1h0.1h0.1
	l0.1-0.1l0.2-0.2l0,0l0,0l0,0l0,0l0,0l0.1-0.1h0.1l0,0l0,0h0.1h0.1h0.2h0.2l0.2-0.2h0.2h0.3h0.1l0.4,0.2l0.1,0.2h0.1v0.1l0.1,0.1
	h0.1l0.1,0.1v0.1l0,0v0.1l0.1,0.1l0.1,0.1l0.1,0.1l0.1,0.1h0.2l0.3,0.1l0,0h-0.1l-0.1,0.1l-0.1,0.2l-0.1,0.1l-0.3,0.3l-0.1,0.1v0.1
	l0.3,0.2l0.1,0.1v0.1v0.1l-0.2,0.9v0.3v0.2l0.1,0.1l0.3,0.2h0.1l0.1,0.1h0.1h0.1h0.1h0.1h-0.3h-0.3l-0.3-0.1l-0.2-0.1l-0.2-0.1h-0.1
	h-0.1l-0.4,0.2h-0.2l-0.2,0.1l-0.1,0.2V56l0.2,0.5l-0.1,0.2l-0.2,0.2l-0.1,0.1v-0.2v-0.1l0,0l0.1-0.1v-0.1h0.1l0,0v-0.1l0,0l0,0
	v-0.1l-0.2-0.4l-0.1-0.1h-0.1h-0.1l-0.2,0.1l-0.2,0.1h-0.1l-0.1-0.2v-0.1v-0.1l-0.1-0.1h-0.1v0.1l-0.1,0.2v0.1l-0.3,0.1l0,0
	l-0.1,0.1l-0.2,0.2l-0.2,0.1l-0.1,0.1h-0.1l-0.1-0.1h-0.2l-0.2-0.1l-0.3-0.1l-0.1-0.1V56v-0.1v-0.1h-0.1h-0.1H138h-0.1l-0.2,0.1
	l-0.1,0.1l-0.2,0.1l-0.5,0.1l-0.6,0.1h-0.1l-0.1-0.1H136h-0.1l-0.3,0.1h-0.1h-0.2h-0.2l-0.1-0.1l-0.1-0.1l-0.2-0.2l-0.2-0.2
	l-0.1-0.2l-0.1-0.3v-0.3v-0.1l-0.1-0.1v-0.2l0,0h-0.1l-0.1,0.1v0.1v0.2l-0.1,0.2v0.1v0.1l0,0l-0.1,0.1v0.1v0.1L134,55h-0.2l-0.1-0.1
	v-0.1h-0.1l-0.1-0.1l-0.2-0.2l-0.2,0.1l-0.1-0.1l-0.1-0.1l-0.1-0.1h-0.1l-0.1,0.1l0,0l0,0l-0.1-0.1h-0.1h-0.1l-0.1,0.1l-0.1,0.1v0.1
	v0.1l0.2,0.2V55v0.3v0.1l0.1,0.1v0.1v0.1l-0.2-0.1l-0.6-0.1h-0.1l0,0l0,0h-0.1h-0.1l0,0l0,0l-0.1,0.1l-0.2,0.1l-0.1,0.1l0.1,0.1
	h-0.2V56v0.1v0.1v0.1l0.1,0.1h0.1l0.1-0.1h0.1l0.1,0.1v0.1v0.1l0,0h0.1l0,0l0.1,0.1l0.1,0.1v0.1h-0.1l-0.2-0.1h-0.1h-0.1l0,0v0.1
	l0.1,0.1l0.1,0.1l0.2,0.1l0.2,0.1l0.1,0.2l-0.3-0.2h-0.1l-0.1,0.1l0,0l0,0v0.1l-0.1-0.2l-0.2-0.4l0,0.1l-0.1,0.1v0.1v0.1v0.1v-0.1
	v-0.4l-0.1-0.2v-0.1l0.1-0.1l-0.1-0.1l-0.2-0.1h-0.2h-0.1l-0.1-0.1l-0.2-0.1h-0.2l-0.2,0.1l0,0h0.1l0,0l0.1,0.1v0.1h-0.1v0.1v0.1
	l0.1,0.2v0.1l-0.2,0.4v0.1l0,0h0.2l0,0v0.1l0,0l0,0l-0.1,0.1h-0.1h-0.1h-0.1h-0.1h-0.1l0,0l0,0l0,0l0,0l0.1,0.1l0,0l0,0v0.1l0,0l0,0
	l0,0l0,0l0,0l0.6,0.2v0.1l0,0h-0.1h-0.1l0,0h-0.1l0,0l0,0l0,0l0,0l0,0h-0.1h-0.1h-0.1h-0.1V58h-0.1H129h-0.1l-0.3-0.5h-0.1l-0.1,0.1
	v0.1v0.1l0.1,0.1h-0.1l-0.2-0.1h-0.1H128l-0.1,0.1h-0.1l0,0V58v0l0,0h-0.1l-0.1-0.1h-0.1l-0.1,0.2v0.1l0.1,0.1v0.1l-0.1,0.2V59v0.1
	l-0.1,0.2l-0.1,0.1l-0.1,0.1H127l-0.2,0.1h-0.1h-0.1v-0.1v-0.1l-0.1-0.1v0.1h-0.1h-0.1h-0.1l-0.1,0.1v0.2v0.2V60l-0.1,0.1v0.1v0.7
	V61h0.1h0.2l0,0l0.4,0.4l0.1,0.2l0.1,0.1h0.1h0.1l0.1,0.1l0.1,0.1l0.1,0.1l0.1,0.2h-0.1l-0.2-0.1l-0.1-0.1H127l-0.1,0.1l-0.2,0.2
	l-0.3,0.5l-0.2,0.2l-0.1-0.1l-0.3,0.3l-0.1,0.1l-0.4,0.1h-0.1l-0.2-0.1l-0.1-0.1l-0.1-0.1v-0.2v-0.1v-0.1h-0.1l-0.1,0.1v0.1v0.2
	h-0.1h-0.1l-0.1,0.1v0.1v0.1v0.2v0.1l-0.1,0.2l-0.2,0.4v0.1v0.2v0.1v0.1l0,0l0,0v-0.1l0,0l0.1,0.1L124,65l-0.4,0.3l-0.1,0.2v0.1v0.1
	l0.1,0.1l0.1,0.1l0.1,0.1v0.1v0.2l-0.1,0.2l-0.1,0.2l-0.2,0.1l-0.4,0.1h-0.2v-0.2l-0.1,0.1V67v0.2l-0.1,0.2v-0.1h-0.1h-0.1h-0.1
	h-0.1v-0.1v-0.1V67l-0.1,0.1H122l-0.1-0.1l0,0v0.1l0.1,0.1v0.1v0.2v0.1l-0.1,0.1L122,68l-0.3,0.3l-0.1,0.1l-0.1,0.1v0.1v0.1v0.1v0.1
	l-0.2,0.2l0,0l-0.1,0.5l0.1,0.1l0.3,0.2l0,0V70l0,0l0,0h0.1l0,0l0,0v0.1l0,0l0,0h0.1l0,0l0.4,0.3l0.1,0.1h0.1h0.1l0,0l0,0h0.1h0.1
	h0.1l0.3,0.1h0.1l0.2-0.2l0.2-0.1h0.2h0.1l-0.1,0.1l-0.3,0.2l-0.1,0.1l-0.1,0.1h-0.2h-0.3h-0.2h-0.1l0,0v0.1l0.1,0.3l0.1,0.1
	l0.2,0.1l0.1,0.1l-0.1,0.1v0.1l0.3,0.2h0.1h0.1h0.1l0.2-0.1h0.1v0.1l-0.2,0.3h0.2l0.6-0.3l0.4-0.1l0.1-0.1l0.1-0.2l0.1,0.1L125,72
	v0.2l-0.2-0.1h-0.1h-0.1h-0.1l-0.3,0.2v0.1l0,0l0,0h-0.1l0,0l-0.2,0.1h-0.2h-0.1h-0.1h-0.2h-0.2H123l-0.2-0.1h-0.1v0.1v0.4V73
	l-0.1,0.2l-0.1,0.1l0.1,0.1l0.1,0.4l0.1,0.4v0.1l0.4,0.5v0.1V75l0,0h-0.1H123h-0.1l0,0v-0.1v-0.2v-0.1h-0.1h-0.1l-0.3,0.2v-0.1
	l0.1-0.2v-0.1l-0.1-0.1l-0.1-0.2l-0.1-0.1l-0.1-0.1l-0.2-0.1l-0.1-0.1l-0.1-0.3l0,0l-0.1-0.1l-0.7-0.2l-0.1-0.2l-0.2-0.1h-0.2
	l-0.1,0.2l0,0v-0.2l-0.1-0.1l-0.1-0.1H120v0.2l0.1,0.5v0.3v0.2l0.1,0.1V74l0.1,0.4v0.1h-0.1l-0.2,0.8v-0.1v-0.1V75l0.1-0.1H120
	l0,0.1h-0.1l0.1-0.3l0.1-0.3v-0.1v-0.1l-0.1-0.1l-0.1-0.1v-0.1v-0.1v-0.1v-0.2l-0.1-0.1l-0.1-0.1h-0.2h-0.1v-0.1v-0.1V73l-0.1-0.1
	h-0.1l-0.3-0.1l-0.3-0.1h-0.1h-0.1h-0.1l-0.2-0.1H118h-0.6h-0.1l-0.2-0.1h-0.2h-0.1l-0.2-0.2l-0.3-0.1l-0.6-0.1l-0.2-0.1h-0.1
	l-0.1,0.1l-0.1,0.1l-0.1,0.1l-0.3,0.1h-0.3l0,0l0.1,0.1h0.1h0.1l0,0v0.1l0,0l0,0l0,0h-0.1l0,0l0,0v0.1v0.1l0.1,0.1v0.2l0.2,0.3l0,0
	l0,0l0,0v0.1v0.1v0.1v0.1l0,0h-0.2l-0.1-0.1l-0.2-0.3v0.1v0.1v0.2l-0.1-0.1l-0.1-0.1l-0.1-0.6v-0.2h-0.1l-0.1,0.1l-0.1,0.1l0,0v0.1
	l0,0l0,0h-0.1l0,0l-0.4,0.3l-0.1,0.2v0.3l0,0l0,0l0,0l0.1,0.3l0,0l-0.1,0.1v0.1l0.1,0.1l0.1,0.1l0.2,0.2l0.1,0.1v0.2v0.6l0,0v-0.1
	l-0.2-0.5l-0.1-0.2l0,0l-0.1-0.1l-0.3-0.3l-0.2-0.1l-0.1-0.1h-0.1l-0.1,0.1v0.1v0.1v0.1h-0.1l0.1,0.4v0.3v0.3l-0.1,0.3l-0.1,0.2
	l-0.1,0.1l-0.2,0.1l-0.1,0.1l-0.1-0.1v-0.1l0.2-0.2l0.1-0.3v-0.2l-0.2-0.5h0.1h0.1V75l0.1-0.7v-0.1l-0.1-0.1V74v-0.1v-0.1l0.1-0.2
	v-0.1v-0.1v-0.1v-0.1l0.1-0.2v-0.1l0.1-0.4v-0.2l-0.1-0.1l0.1-0.1h0.1h0.1h0.1h0.1V72v-0.1l-0.1-0.2v-0.1v-0.1h0.1h0.1l0.1,0.1l0,0
	v-0.1v-0.1v-0.1l-0.1-0.1l0,0l0,0h-0.1h-0.1l-0.1-0.1l-0.3-0.3h-0.1h-0.1h-0.1H112v-0.1v-0.1h-0.1l0,0l-0.2-0.1l-0.1-0.1l0,0l0,0
	l-0.2,0.1h-0.1h-0.1l0,0v-0.1v-0.1l0,0h0.1l-0.1-0.1l-0.2-0.1l-0.1-0.2h-0.1l-0.1,0.1v-0.1l0.2-0.2l-0.1-0.1h-0.1h-0.1v0.1v0.1l0,0
	l0,0l0,0v-0.1v-0.2v-0.1h-0.1h-0.1l0,0l-0.2-0.5v-0.1l-0.4-0.3l-0.1-0.1l-0.1-0.1v-0.1l-0.3-0.2l-0.1-0.1l0,0l0,0h-0.1l0,0l-0.1-0.1
	l-0.2-0.2h-0.1l-0.1-0.1l-0.1-0.1h-0.1l-0.1,0.1l-0.1-0.1l-0.1-0.1v-0.1V67v-0.1v-0.1l-0.1-0.1l-0.1-0.1l-0.1-0.1l-0.1,0.1l0,0l0,0
	v-0.1v-0.1h-0.1h-0.1l0,0v-0.1l-0.1-0.1h-0.1l-0.1,0.1l0.1,0.2v0.1l-0.2-0.1l-0.1-0.1l-0.2-0.3h-0.1l-0.1,0.1l-0.1,0.2l-0.1,0.1
	h-0.1h-0.1v-0.1v-0.2v-0.1l-0.1-0.1v0.1v0.1v0.1h0.1l-0.1,0.1l-0.1,0.2l-0.1,0.1l-0.1-0.1l-0.1-0.2v-0.2L106,66h-0.2l0.1-0.1
	l0.1-0.2v-0.1l-0.1,0.1v-0.1l0,0h-0.1l-0.1,0.1v-0.2v-0.1h-0.1h-0.1l-0.1-0.1l-0.2-0.2H105h-0.1h-0.1h0.1l0.1,0.1h-0.1l-0.1-0.1
	l-0.1-0.1h-0.1l-0.1,0.1v0.1l0.1,0.1l0.1,0.1l0,0h-0.1h-0.1h-0.1v0.1h-0.1h-0.1v-0.1v-0.1l-0.1-0.1l0,0v0.1H104h-0.1h-0.1l0.1,0.1
	l0.1,0.3v0.1l0,0.2l0,0v0.1v0.1v0.1h0.1h0.1h0.1l0,0v0.1h-0.2H104h-0.1v0.1h0.1h0.1l-0.1,0.1h-0.1l-0.2-0.1l0,0h-0.1h-0.1l-0.1,0.1
	v0.1h-0.1h-0.1l0,0v0.1v0.1V67l0.1,0.1l0.1-0.1l0,0l0,0l0,0v0.1l-0.1,0.1v0.1v0.1l-0.1,0.1l-0.1,0.2H103l0,0v-0.1v-0.1l0,0l-0.1-0.1
	l0,0v0.1v0.1v0.1v0.1l-0.1,0.1V68v0.1v0.1v0.1h-0.1h-0.1h-0.1v0.1v0.1v0.2l-0.1-0.1h-0.1l0,0v-0.1v-0.1v-0.2v-0.1h-0.1h-0.1H102
	h-0.1h-0.1l-0.1-0.1h-0.1l0.2-0.3h-0.1l-0.2,0.1h-0.1l-0.1-0.1l0.1-0.1L102,67v-0.1v-0.2l0,0l0,0l0,0v-0.1v-0.1l0.1-0.1l0.1-0.1h0.1
	l-0.2-0.1H102l-0.1,0.1l-0.1,0.2l-0.1,0.1l-0.1,0.1h-0.1l-0.1-0.1l-0.1,0.1l-0.2,0.2l-0.1,0.3h-0.1h-0.1l-0.1,0.1l0,0l0,0l0,0h-0.1
	h-0.1v0.1v0.1l-0.1,0.1v0.1l0,0h0.1l0,0l0,0l0.1,0.1l0.1,0.1V68l-0.2,0.1l-0.1,0.1v0.1v0.1l0,0v-0.1h-0.1l-0.1,0.1h-0.1l0,0H100l0,0
	v-0.1l0,0l0,0l0,0v-0.1l-0.2-0.1L99.6,68l0.1-0.2h-0.1v-0.1l0.2-0.2v-0.1h-0.1l-0.2,0.1v-0.1v-0.1v-0.1h0.2h0.1v-0.1L99.7,67h-0.2
	l0.1-0.1l0.2-0.1l0.1-0.1l-0.2,0.1h-0.1h-0.1L99.3,67l-0.1,0.1h-0.1V67l0.1-0.1l0.1-0.1h0.1l0,0l0,0h-0.1l0,0l0.1-0.1v-0.1v-0.1
	l-0.1,0.1h-0.1h-0.1h-0.2l0,0v-0.1v-0.1v-0.1h-0.1l-0.1,0.1v0.1v0.1l0,0h-0.2h-0.1l0,0l0.1,0.1h0.1l0.3,0.1l0,0l0,0v0.1V67v0.1v0.1
	v0.1h-0.1L98.6,67h-0.1v0.1v0.1v0.1h-0.1h-0.1l-0.1-0.2L98.1,67v0.1v0.1v0.1v0.1l0.1,0.1v0.1v0.1h0.1H99l0.2,0.1l0.1,0.3l-0.1,0.1
	v0.1v0.1v0.1l0,0L99,68.6h-0.1l0,0h-0.2l-0.1,0.1v0.1v0.1V69l0.1,0.1v0.1v0.1l-0.1,0.1v0.1v0.1v0.1v0.1h-0.2l-0.1,0.1l0,0l0,0h-0.1
	h-0.1l0,0V70l0,0l0,0l0,0l0.1,0.1l0,0l0,0v0.1v0.1l0.1,0.1v0.1v0.1v0.1v0.1v0.1h-0.1l-0.1-0.1H98v0.1V71v0.1h-0.1l0,0L97.8,71l0,0
	l0,0h-0.2l0,0v0.1v0.1l0,0l0,0l0,0l0,0l0.1,0.1l0,0l0,0v0.3h-0.1L98,71l-0.2-0.2h-0.1h-0.1v-0.1v-0.1v-0.1v-0.1v-0.1h-0.1l0,0
	l0.1-0.1L97.5,70h0.1h0.1l0,0v-0.1v-0.1h-0.1l0,0l0,0l0,0h-0.1l0,0l0,0l0,0v-0.1l0,0l0,0v0.1v0.1h-0.1L97,70l0.1-0.2v-0.1H97
	l0.1-0.1L97,69.5h-0.1v0.2V70v0.2l-0.1,0.1L96.4,71l-0.1,0.1v-0.2l0.3-0.6v-0.2L96.5,70l-0.1-0.7l0,0l0,0l0,0v-0.1l0.1-0.1h0.1v0.1
	h0.1h0.1l0.1-0.1V69v-0.1l0.1-0.2v-0.1l0,0h-0.1l0,0l0,0v0.1l-0.1-0.1l-0.2-0.1v-0.1l0,0l0,0h-0.1l-0.1-0.2l-0.1-0.1h-0.1v0.1h-0.1
	H96v0.1l0.1,0.1l0,0L96,68.7v0.1v0.1V69v0.1l0.1,0.1l0.1,0.1v0.1v0.1l-0.1,0.2L96,70.1l0,0l0,0l0,0l0,0l0,0l0,0l0,0v0.1v0.1v0.1
	h-0.1h-0.1h-0.1l-0.1-0.1l0,0l0.1-0.1l0.1-0.1V70l0,0h-0.1h-0.1h-0.1h-0.1h-0.1h-0.1v0.1v0.1v0.2L95,70.3v0.1v0.1l0,0l0,0l-0.1,0.1
	v0.1v0.1v0.1h-0.1V71v0.1v0.1l0,0l0,0l-0.2-0.5l-0.1-0.1v0.1l-0.1,0.1l-0.1,0.1L94.2,71l0.1-0.2v-0.1v-0.4h-0.1l0,0v0.1v0.2l0,0v0.1
	l-0.1,0.1l0,0H94l-0.2,0.1L93.7,71l-0.1,0.1v0.1h0.1h0.2H94l-0.1,0.1h-0.1h-0.1v0.1l0,0l-0.2-0.1h-0.1v0.1l0.1,0.1h-0.1l0,0l0,0l0,0
	l0,0l0,0v0.1l0,0h-0.1h-0.1h-0.1L93,71.7v0.1l0,0l0,0l0,0v0.1l0,0l0,0h0.1h0.1v0.4l0.1,0.1h0.2v0.1h0.2l0.2,0.1l0.1,0.1l0,0.1v0.1
	V73l0,0h-0.1h-0.1l0,0l0,0l0,0h-0.1h-0.1h-0.1l0,0v0.1v0.1h-0.1h-0.1l0,0h0.1h0.1h0.1l0,0l0,0h0.1h0.1v0.1h0.1l0,0H94h0.1h0.1
	l-0.1,0.1v0.1v0.1v0.1h0.1h0.1h0.1l0,0l0,0l0,0l0,0l0,0v0.1l0,0h0.1h0.1l0.1,0.1h0.1l0.2-0.1h0.1v0.1L94.9,74l-0.1,0.1h-0.1h-0.1
	l0,0v0.1l0,0l0,0l0,0v0.1l0,0l0,0l0,0l0,0v0.1v0.1l0.1,0.1h0.1H95l0,0v0.1l-0.1,0.1l-0.4-0.1h-0.2v0.1h-0.1L94,74.4l-0.1-0.1v-0.1
	l0,0l0,0l-0.1-0.1l0,0l0,0V74h-0.1h-0.1v-0.1h-0.1h-0.1h-0.1l-0.1-0.1v-0.1l-0.2,0v0.1l0.1,0.1l0.1,0.4v0.1v0.1v0.1v0.1l0,0l0,0
	l-0.1-0.1L93,74.3l0,0l0,0L92.8,74v-0.1l0,0l0,0v-0.1l0,0l0,0l0,0l0,0h-0.1l-0.1,0.1L92.5,74v-0.2h-0.1v-0.1l0.1-0.1v-0.1l-0.1-0.1
	h-0.1l-0.1,0.1v0.1l-0.1-0.1H92h-0.1l0.1,0.1v0.1v0.1v0.1l0.1,0.1v0.1v0.2v0.1L92,74.3l0-0.1l-0.2,0.2l-0.1-0.1h-0.1h-0.1l-0.1-0.1
	h-0.1h-0.1h-0.1H91h-0.1l0,0v0.1l0,0h-0.1l0,0l-0.1,0.2h0.1h0.1H91v0.1l-0.1,0.1v0.1l0,0v0.1V75l0,0v-0.1l0,0l0,0l0,0V75l0.1-0.1
	l0.3-0.2l0.2-0.1h0.1l0,0l0.1-0.1l0,0v0.1l0,0h0.1h0.1l0,0l0.1-0.2h0.1h0.1h0.1l-0.2,0.3l0,0.3H92l-0.1-0.1l0,0l0,0h-0.1h-0.1h-0.1
	V75v0.1l0,0h-0.1h-0.1l-0.1,0.1l0,0v0.1v0.1l0,0l0,0l0,0v0.2v0.1h0.1h0.1l0.2-0.1l0.2-0.1l0.3-0.2h0.1l0.1,0.1l0.1,0.1h0.1v-0.1
	l0.1,0.1l0.1,0.1h0.1H93l0,0h-0.1h-0.1l-0.1,0.1l-0.1,0.1l-0.1,0.4v0.1l0.3,0.3l0.1,0.1l0.3,0.2l0.1,0.1l-0.2-0.1l-0.5-0.3h-0.2
	l-0.1,0.1v0.1v0.1h-0.1l0,0v-0.1v-0.1h-0.1H92h-0.1h-0.1h-0.1v-0.1l0.1-0.2v-0.1l0,0l0,0l0,0h-0.1l0,0l0,0l0,0l-0.2-0.2L91.4,76
	h-0.1h-0.1H91h-0.1v-0.1v-0.1v-0.1h-0.1h-0.1l-0.1-0.1l0,0l-0.1,0.1l-0.2,0.2l0,0l0.1-0.2v-0.1l0,0l-0.2-0.1l0,0l0,0v-0.1l0,0l0,0
	l0,0l0,0l0,0h-0.1l0,0L90,75.3v0.2v0.1v0.1h0.1h0.1h0.1v0.1h-0.1h-0.1H90v0.1V76h0.1l0.2-0.1V76h0.1v0.1l0,0L90,76l-0.1,0.1
	l-0.1,0.2v0.2l0.1,0.1l-0.1,0.1h-0.1h-0.1l-0.1-0.1v-0.1v-0.1v-0.1l0,0l0,0l0,0l0,0v0.5h-0.1h-0.1h-0.1h-0.1l-0.2-0.1l-0.2-0.1h-0.2
	l-0.1,0.2V77l0,0h-0.1l0,0l0,0h-0.1H88h-0.1l0.1,0.1v0.1v0.3h0.1l0.1,0.1v0.2L88.1,78L88,77.8l0,0v0.1V78v0.1l0,0V78l0,0l0,0v0.1
	v0.1l0.1,0.2v0.1v0.1v0.2l0.1,0.1V79v0.5l0.1-0.1l0,0l0,0h0.1l0,0v-0.1v-0.1l0.1,0.1l0.1,0.4v0.2V80l0,0v0.1v0.1v0.1v0.1v0.1
	l0.2-0.2l0.3-0.6l0.2-0.2l0.2-0.3l0.1-0.1h0.1H90h0.1l0.2,0.1L90.1,79L90,79.1v0.1l-0.1,0.2l0,0l-0.1-0.1h-0.2l-0.2,0.1l-0.1,0.1
	v0.3v0.1l0.1,0.1h-0.2l-0.1,0.1v0.2v0.5v0.1h-0.2l0.1,0.2l-0.1,0.2l-0.1,0.1l-0.1-0.1l-0.1-0.1L88.5,81l0,0v-0.1v-0.1v-0.1v-0.1
	l-0.1-0.1h-0.1h-0.1v0.1v0.5v0.1h-0.1h-0.2v0.1v0.1v0.1l-0.1,0.1v0.1h0.1v0.1v0.1l0,0.1v0.1l0,0l0,0l0,0v0.2l0.1,0.1h0.1h0.1l0,0
	l0,0l0,0l0.1,0.1h0.1l0.1-0.1l0.5-0.1h0.2l0.7,0.1l0.4,0.2h0.3h0.1l0.1,0.1h0.1h0.3h0.1L91.2,83H91h-0.3l-0.1-0.1l-0.1-0.1h-0.3
	h-0.3l-0.2,0.1l-0.1-0.1l-0.2,0.1h-0.2l-0.8-0.1h-0.2L88,82.7l0-0.1h-0.1l-0.1,0.1L87.6,83h-0.1l-0.2-0.1h-0.5h-0.1l-0.1-0.1
	l-0.2-0.5l0,0l-0.1-0.1L86.2,82h-0.1h-0.3h-0.1h-0.1v-0.1l0,0h-0.1h-0.2h-0.2l-0.3-0.1h-0.1l0.1,0.1l0.1,0.1l0.1,0.1l0.1,0.1l0,0
	h-0.2v0.2l0.2,0.4H85l-0.1-0.1l0.1-0.1l0,0l-0.1-0.1h-0.1h-0.1v0.1v0.1V83v0.1l0,0l0,0l0,0h-0.1v0.1L84.4,83l-0.1-0.3h0.1l0.1,0.1
	h0.1v-0.1v-0.1v-0.1h-0.1h-0.1h-0.1L84,82.3L83.5,82h0.2h0.2h0.2l0.1-0.1h-0.1h-0.2l-0.1-0.1v-0.1h0.1H84h0.1v-0.1v-0.1l0,0H84l0,0
	v-0.1l0,0l0,0h-0.1l-0.1-0.1l-0.1-0.1h-0.1v0.1h-0.2h-0.6l0.1,0.1l0,0h-0.1l0,0h-0.1v0.1l-0.1,0.2l0.1,0.1v0.1L82.6,82h-0.2l0.1,0.1
	l0.1,0.1l0.2,0.1l0,0l0,0l0,0h0.1H83l0,0l0,0l0,0h-0.1l0,0l0,0H83h0.1l0.1,0.1l0.1,0.1v0.1h0.1h0.3h0.1v0.1v0.1v0.1V83h-0.1h-0.1
	h-0.1L83,82.6h-0.1h-0.1l0,0l0.1,0.1H83h0.1h0.1l0.1,0.1l0.2,0.1h-0.4l-0.6-0.2v0.1h-0.1h-0.2V83l0.2,0.1l0.8,0.4h-0.1h-0.2
	l-0.1,0.1H83h0.1l0.1,0.1H83l-0.2-0.1l-0.2-0.1h-0.2h-0.1l-0.2-0.2h-0.2l0.1,0.2v0.1h-0.1h-0.1l-0.3-0.1v0.1l0,0l0,0l0,0l0,0
	l0.1,0.1l0,0l0.2,0.1l0,0v0.1h0.1h0.2l0,0L82,83.7l0.1,0.1h0.3l0.1,0.1V84h0.1l-0.3,0.1l0.1,0.1l-0.1,0.1h-0.2L82,84.4v0.1l0,0
	l0.6,0.1l0.1,0.1l0.2,0.2L83,85l0.2,0.1l0.1,0.1l0.1,0.1l0.1,0.3v0.1l0.2,0.4l0.2,0.1l0.3-0.1l0.5-0.2l0.1-0.1l0.1-0.3l0.1,0.1v0.1
	v0.1L84.9,86l-0.1,0.1l-0.1,0.1l-0.1,0.1v0.1v0.1l-0.2,0.2v0.1l0.1,0.1l0.1,0.1l0.1,0.1v0.1h-0.1l-0.2-0.1h-0.1L84,86.9V87l0.1,0.2
	l0.2,0.5l0.1,0.2l0.2,0.2h0.1h0.1h0.1v0.1v0.1h-0.1h-0.2l-0.1-0.1l-0.1-0.1L84.2,88l-0.1-0.1H84l-0.2-0.1l-0.1-0.1l0,0v-0.1v-0.1
	v-0.1l-0.1-0.1l-0.1-0.1l-0.1-0.1h-0.1l0,0l0,0l0,0L83.1,87l0,0L83,86.9l0,0h-0.1h-0.1h-0.1h-0.1l-0.1-0.1v0.1l-0.1,0.2v0.1v0.3
	l0.3,0.4l0.1,0.1v0.1v0.1l0,0l0,0l0,0h-0.1l-0.1,0.1v0.1v0.2v0.1v0.1v0.1V89v0.1v0.1v0.1l-0.1,0.2v0.1v0.3v0.3v0.1l0.1,0.2v0.1v0.1
	v0.4v0.1v0.1l0,0l0,0v-0.1v-0.3v-0.1l-0.1-0.1L82.1,90L82,89.8l-0.1-0.1l-0.1-0.1l-0.1-0.1h-0.1l-0.1-0.1l-0.1-0.1l-0.2-0.1l0-0.2
	l-0.1-0.2l0.1-0.2l-0.1-0.2L81,88.2l-0.1-0.1V88l-0.1-0.2l-0.2-0.2l-0.1-0.1v-0.1v-0.3V87l-0.3-0.2L80,86.5l-0.1-0.1h-0.2l-0.1-0.1
	v-0.1l0.1-0.2v-0.1v-0.1v-0.1h-0.1h-0.1l-0.1-0.1l-0.1-0.1v-0.2v-0.1l0,0h0.1h0.1v-0.1V85v-0.1l0,0V85v0.1l0,0h-0.1h-0.1h-0.1
	L79.1,85l-0.2,0.1L78.8,85v-0.2v-0.2v-0.1h-0.1l-0.1,0.1h-0.1v-0.1v-0.2l-0.1-0.1l0.2-0.3l-0.1-0.2v-0.2v-0.1h0.1h0.1h0.1h0.1H79
	v-0.1l-0.1-0.1L78.6,83l0.1-0.2v-0.1l-0.1-0.1L78.2,83h-0.1L78,83.2l-0.1,0.3l-0.1,0.1h-0.1l-0.1,0.1v0.1v0.1L77.5,84h-0.1h-0.2
	h-0.1L77,84.1l0,0.1v0.1v0.2v0.1l-0.1,0.1l0,0v0.2l0.1,0.2l0.4,0.3l-0.3-0.1H77h-0.1l-0.1,0.1l-0.1,0.1l-0.1,0.1l0,0h-0.2h-0.1
	l-0.1,0.1l0,0h-0.1H76l0-0.2v-0.1h-0.1l-0.1,0.1l-0.1,0.1l-0.1,0.1l0,0v0.1l0,0l0,0l0,0l0,0l0,0l0,0l0,0v0.1V86l0.2,0.2l0.1,0.3
	l0.1,0.1l-0.3-0.1h-0.1l-0.1-0.1v-0.1l-0.1-0.1h-0.1h-0.1v0.1v0.1v0.1L75,86.8h-0.1v-0.1v-0.1l-0.3,0.1l-0.9,0.8l-0.1,0.1l-0.1,0.1
	l0,0h0.1v0.1l-0.1,0.1l-0.4,0.4v0.1H73l-0.1,0.1v0.1v0.2l-0.1,0.3l-0.1,0.8v0.7v0.1l0.1,0.1v0.1l0.1,0.2v0.2v0.1l0.1,0.1l0.1,0.1
	v0.1v0.1v0.1V92v0.4l0.1,0.5v0.3l-0.1,0.2l-0.2,0.2l0,0l0,0l0,0l0,0l0,0l0.1-0.2l0.2-0.1h0.2h0.2l0.2,0.1l0.1,0.1v0.2V94v0.2
	l-0.1,0.2l-0.2,0.2l-0.5,0.2l-0.2,0.1l0.4,0.1l-0.1,0.2l0,0l0,0l0,0L73,95.3l-0.1,0.1l-0.1,0.1l-0.4,0.2l-0.1,0.1L72.2,96l-0.1,0.2
	l-0.7,0.5h-0.1h-0.1h-0.1L71,96.6h-0.1l-0.1,0.1l-0.1,0.2l-0.2,0.4l-0.1,0.1l-0.2,0.1l0.2,0.1l0.1,0.1v0.1v0.1L70.4,98l-0.3,0.3H70
	h-0.2h-0.1h-0.1h-0.1h-0.1h-0.1l0.1,0.2v0.1h0.1l0.1,0.1v0.1v0.1v0.2l-0.1,0.1l-0.1,0.3l-0.1,0.3v0.1l-0.1,0.1v0.1v0.1v0.1v0.1
	l-0.1,0.2L69,101l-0.7,1l-0.7,0.9l-0.8,0.8h-0.1h-0.1l-0.3,0.2l-1.2,0.8l-1,0.4l-1,0.4L61,106l-0.9,0.3l-1.1,0.1l-1.1,0.2l-0.7,0.1
	h-0.3h-0.1l-0.1,0.1v0.1v0.1v0.1l-0.1,0.1h-0.1h-0.1h-0.1l-0.1,0.2l0,0h-0.1l-0.2,0.1h-0.2h-0.1l-0.2-0.1l-0.2-0.1v-0.1v-0.1V107
	h-0.1l0,0l-0.1,0.1h-0.1h-0.1l-0.3-0.1h-0.1h-0.2h-0.3l-0.5-0.2h-0.1h-0.1h-0.1v0.1v0.2l-0.3-0.2h-0.2l-0.2,0.1v0.1v0.1v0.1h-0.1
	l-0.2,0.1l-0.1,0.1h-0.1l-0.1,0.1v0.1l-0.1,0.2l-0.5,0.5l-0.2,0.3l-0.1,0.2l-0.2,0.1h-0.1h-0.2h-0.2l-0.2,0.2h-0.1h-0.1h-0.1h-0.1
	l0,0l0,0h-0.1h-0.1h-0.2l0,0l0,0l0,0h-0.1l0,0l0,0l-0.9,0.2l-0.3,0.1h-0.1h-0.1v-0.1l0,0h-0.1h-0.1l-0.1,0.1h-0.1h-0.1l-0.1,0.1H47
	l-0.1-0.1l-0.1,0.1l0,0v-0.1l0,0h-0.1h-0.1l0,0h-0.1h-0.1l-1.3,0.9v0.1v0.1v0.1v0.1l-0.1,0.1l0,0h-0.2l0,0l-0.1,0.1v0.1l-0.1,0.1
	l-0.1,0.1h-0.1h-0.1l-0.2,0.1l-0.2,0.1l-0.1,0.1l0,0l-0.3,0.1h-0.1l0,0l0,0l0,0l0,0l-0.1,0.1h-0.1l-0.1-0.1H43l-0.2,0.1l-0.2,0.2
	l-0.2,0.1l-0.5,0.1h-0.6H41l-0.3-0.1l-0.5-0.2l-0.1-0.1v-0.1l0,0l-0.1-0.1l0,0l0,0v-0.1v-0.1l0,0l0,0l0,0l0,0l-0.1,0.1l-0.2,0.2
	h-0.1h-0.1l0,0l-0.1-0.1h-0.1l-0.7,0.3l-0.1,0.1l-0.1,0.1l-0.1,0.1l-0.2,0.1H38h-0.2l-0.1-0.1l-0.3-0.3l0,0v-0.1v-0.1l0.1-0.1v-0.1
	v-0.3v-0.1l0.1-0.1h0.1l0,0h-0.1h-0.1h-0.1h-0.1h-0.1v0.1l-0.1,0.1l-0.2,0.4l-0.3,0.3l-0.8,0.5l-0.2,0.1h-0.1h-0.1v0.1v0.1h-0.1l0,0
	h-0.1l-0.2,0.1l-0.1,0.1h-0.3h-0.3h-0.1L34,113l-0.1,0.1h-0.2h-0.1l-0.1-0.1h-0.1h-0.1v0.1v0.3l-0.1,0.3l-0.2,0.2l-0.2,0.1h-0.2
	l-0.1,0.1h-0.1l-0.2,0.1l-0.3,0.2h-0.1l-0.1,0.1l-0.2,0.2l-0.2,0.2l-0.1,0.3l-0.2,0.2l-0.1,0.2l-0.1,0.1l-1,0.4l-0.2,0.2l-0.2,0.1
	l-0.4,0.5l-0.2,0.2l-0.1,0.1v0.1l-0.1,0.1l-0.2,0.1l-1.5,0.6l-0.8,0.4v-0.1H26h-0.1l-0.1,0.1l-0.1,0.1l-0.3,0.1l-0.3-0.1l-0.3,0.1
	l-1,0.6L23,119l-0.1,0.1l-0.1,0.1h-0.1h-0.2l-0.1,0.1v0.3v0.1l0,0l0,0l0,0l0,0l0,0l-0.1,0.2l-0.3,0.6l-0.1-0.1l-0.1-0.1l-0.1-0.1
	l-0.1,0.1v0.1v0.1l0,0l0,0l0.1,0.1v0.1v0.1l-0.1,0.2l-0.1,0.2h-0.1h-0.1h-0.1v0.1v0.1v0.1l-0.2,0.2l0,0l-0.1,0.2v0.2l-0.2,0.4v0.1
	v0.2v0.1l-0.1,0.1v0.1v0.2v0.1l-0.1,0.1l-0.1,0.1h-0.1l-0.1-0.1v-0.1v-0.1h-0.1H20l-0.1,0.1h-0.1l-0.2,0.1l-0.1,0.1l-0.1,0.1
	l-0.1,0.1h-0.2l-0.2-0.1l-0.1-0.2l0.1-0.3l-0.1-0.2v-0.1v-0.1l0.2-0.2h0.1v-0.1v-0.1v-0.1l-0.1-0.1l-0.1,0.1v0.1v0.1h-0.1v-0.1
	l0.1-0.2v-0.1l-0.1-0.3l-0.1-0.1l-0.1-0.2v-0.2L19,121l0.2-1.2l0.1-0.3v-0.1v-0.1l0.1-0.1l0.1-0.1V119l-0.1-0.1h-0.1l-0.1,0.1h-0.1
	H19h-0.1l-0.2,0.1l-0.2,0.1L18,120l-0.2,0.4l-0.2,0.2v0.1v0.1v0.1l-0.5,1.5l-0.1,0.1l-0.2,0.2l-0.1,0.1v0.2v0.3v0.1l-0.1,0.1
	l-0.2,0.3l-0.1,0.1l-0.1,0.1l-0.1,0.1v0.1v0.1v0.1v0.1v0.2v0.1l0.1,0.1v0.1l-0.1,0.3h0.1h0.1h0.1h0.1l0.3,0.3l0.1,0.4l0.1,0.2
	l0.1,0.2v0.2v0.8v0.2l-0.1,0.1l-0.1,0.1h-0.1h-0.1v0.1v0.1v0.2v0.1l0.1,0.4l0.1,0.6v0.1l-0.1,0.3v0.5v0.1l-0.1,0.1l0,0v0.2l-0.1,0.1
	l-0.3,0.2v0.1v0.1v0.1h-0.1l-0.2,0.1l0,0v0.1h-0.1h-0.1l0,0v0.1l-0.3,0.7h-0.1l-0.1,0.1l-0.2,0.6L15,133l-0.2,0.3v0.1v0.1v0.2v0.2
	l-0.1,0.1l-0.1,0.1l-0.1,0.1l-0.1,0.1v0.1v0.2l0.1,0.3v0.1l-0.1,0.1l-0.2,0.2l-0.1,0.1v0.1v1.1l0.1,0.3l0.1,0.3l0.2,0.2l0.7,0.7
	l0.4,0.6v0.1v0.2v0.2v0.1l-0.1,0.1v0.1v0.1v0.1h0.2l0.1,0.1l0.1,0.1v0.1v0.1l-0.1,0.1v0.1v0.1v0.1v0.1l0.1,0.1l0.1,0.2l0.1,0.2
	l0.1,0.1l0.2,0.1l0.3,0.2l0.1,0.1v0.1l0.1,0.2l0.2,0.4v0.1v0.2l0.4,1l0.2,0.3l0.4,0.5l0.2,0.4l0.1,0.1l0.3,0.1l0,0v0.1l0,0h0.1
	l0.1,0.1v0.1v0.1H19v0.1v0.1l0.3,0.1l0.3,0.2l0.1,0.1v0.1l-0.1,0.2l-0.1,0.2l-0.1,0.1v0.1l0.1,0.1l0.1,0.1l0.1,0.1h-0.1l0,0h-0.1
	h-0.1h-0.1l0,0l-0.1-0.1h-0.1v0.1v0.2l0.2,0.3l0.1,0.1v0.1v0.1v0.1l0,0h-0.1l0,0v0.1v0.1l-0.1,0.1v0.1v0.1v0.2l0.1,0.1l0.2,0.3
	l0.1,0.1l-0.1,0.4v0.1l-0.1,0.1h-0.2h-0.1l-0.1,0.2l-0.1,0.1l-0.1,0.1l-0.1,0.1l-0.1,0.1l-0.1-0.1l-0.3-0.5l-0.3-0.3l-0.1-0.1
	L18,149v-0.1v-0.3l-0.1-0.3v-0.2l0.1-0.2h-0.1l-0.1-0.1l-0.1-0.7V147l0.1-0.2v-0.1h-0.1l0,0l0,0l0,0v0.1v0.1l0.1,0.1v0.1v0.2v0.3
	l-0.1,0.2l-0.5,0.6h-0.1H17h-0.1v-0.1l-0.1-0.2V148v-0.3v-0.3v-0.1l0.1-0.2L17,147v-0.1v-0.2v-0.1l0.1-0.1v-0.1v-0.1v-0.1l0,0l0,0
	H17v-0.1V146v-0.1v-0.1l-0.2-0.1l-0.1-0.1l-0.2-0.2l-0.3-0.2v-0.1V145l-0.1-0.3v-0.1H16h-0.1h-0.1v-0.1l0,0l0,0l0,0v-0.1v-0.3v-0.3
	l-0.1,0.1l-0.2,0.3l-0.1,0.2l-0.1,0.1l-0.2,0.2l-0.1,0.1v0.2v0.2v0.1l0.1,0.1l0.3,0.2l0.1,0.1l-0.1,0.1v0.1v0.1l0.1,0.1l0,0l0.1,0.1
	l0,0v0.1v0.2v0.1v0.1l0.2,0.2l0.1,0.8v0.1l0.1,0.1l0.2,0.1l0.1,0.1l0.2,0.3l0.1,0.1v0.1v0.1h0.1l0.5,0.1l0.2,0.1l0.2,0.2l0.2,0.2
	l0.1,0.2v0.1l-0.1,0.2v0.1v0.1l0.1,0.3v0.2v0.1l-0.1,0.1l-0.1,0.1h-0.1v0.1l-0.2,0.4h-0.1l-0.1-0.1h-0.1H17l-0.2,0.1l-0.2,0.1v0.1
	l0.1,0.2h-0.2h-0.1v-0.1v-0.1v-0.1h-0.1h-0.1v-0.1v-0.1V151v-0.1v-0.2v-0.1v-0.1h-0.1l-0.1,0.1v0.1v0.1l-0.1,0.1v0.1v0.4h-0.1
	l-0.1-0.1v-0.1v-0.5l-0.1-0.2v-0.1v-0.1l0,0l0.1-0.1V150l-0.1-0.4l-0.1-0.1l-0.1-0.1l-0.1-0.1l-0.1,0.2l0.1,0.3v0.2l-0.1,0.1
	l-0.1-0.1v-0.2v-0.3l0,0l0,0l0,0l0,0l-0.1-0.3l-0.1-0.2l-0.1-0.4l-0.1-0.1v0.1v0.1l-0.1-0.8l-0.1-0.2v0.1l0.1,0.5l-0.1,0.8l-0.1,0.3
	v0.2v0.2l0.1,0.3l0.1,0.2h-0.1v-0.1v-0.1l-0.1-0.1h-0.1l0,0v-0.1v-0.1l-0.1-0.2v-0.1l-0.1-1.5l-0.1-0.1l-0.1,0.1v0.1v0.3v0.3v0.1
	l-0.1,0.1v0.1v0.3h-0.1v-0.1v-0.1l-0.1-0.1h-0.1h-0.1l-0.2-0.1h-0.1l0.1,0.2l0.4,0.3l0.2,0.3l0.1,0.2l0.1,0.2v0.2l0.1,0.1l0.1,0.2
	l0.1,0.1l0.1,0.1l0.2,0.1l0.1,0.1l0.7,0.7l0.5,0.4l0.1,0.1l0.1,0.2l0.6,0.7l0.8,1l1.1,1.7l0.6,1l0.4,0.9l0.5,1.6v0.1v0.1l-0.1,0.1
	v0.1v0.1l-0.1,0.3v0.1v0.3l0.1,0.3l0.3,0.8v0.1v0.2l0,0v0.1l0.1,0.2l0.5,0.6l0.1,0.1l0.2,0.1l0.1,0.1l0.3,0.4l0.1,0.1v0.1l0.4,0.5
	l0.6,0.6l0.2,0.2l0.4,0.9l0.1,0.3v0.3l-0.1,0.2l0.1,0.1l0.1,0.3l0.1,0.1l0.2,0.3v0.1l1.2,1.2l0.1,0.1l0.4,0.8l0.1,0.4l0.1,0.2v0.1
	v0.1v0.2l0.1,0.3l0.2,0.3v0.1v0.1l-0.1,0.4l-0.1,0.5v0.6v0.6v0.1l0.1,0.2v0.1l-0.2,0.9v0.2v0.1l0.1,0.1l0.1,0.1v0.2l0.1,0.1v0.1v0.2
	v0.2v0.1v0.1l0,0l0.1,0.1h0.1v0.1v0.1v0.1l0,0l-0.1,0.1l0,0l0,0l0.1,0.1l0,0l0.1,0.2l0.1,0.5v0.1v0.3v0.1l0.2,0.6v0.1v0.1l0.4,0.7
	v0.1v0.1l0.1,0.4l0.4,0.3l0.5,0.7l0.5,1l0.5,1.1l0.6,0.9L30,185l0.5,0.7l0.1,0.3l0.1,0.5l0.1,1l-0.1,0.9v0.1l0.1,0.1v0.1v0.1v0.1
	v0.1l0.1,0.1v0.1v0.1l-0.1,0.2v0.1v0.1l-0.1,0.1h-0.3l0.1,0.1l0.2,0.1l0.1,0.1l0.1,0.1v0.1l-0.2,0.2l0.2,0.1L30,190v0.2l-0.1,0.2
	v0.1l-0.1,0.1l0,0v0.1v0.1l0.1,0.1H30l0.1,0.1v0.2v0.2l-0.1,0.1h-0.3h-0.1l-0.1-0.1h-0.1h-0.1l0,0l0.1,0.1v0.1v0.1v0.1v0.1l0.1,0.1
	l0.1,0.3v0.1l-0.1,0.1l-0.2-0.1l-0.2-0.3l-0.2-0.5v-0.3l0.4-0.4l0.1-0.3l-0.2,0.1l-0.3,0.4l-0.1,0.2l-0.1,0.3v0.2l0.1,0.2l0.1,0.6
	l0.2,0.8l0.1,0.6v0.6v1.1l0,0l0.1-0.3v-0.2v-0.1l0,0v0.1v0.4l-0.1,0.2l-0.2,0.1h-0.1h-0.1h-0.1l-0.1,0.1v0.1l-0.1,0.3l-0.2,0.4
	l-0.4,0.6l-0.6,0.6l-0.2,0.1l-0.3,0.1l-0.3,0.1h-0.3h-0.3h-0.3l-0.3-0.1l-0.2-0.1l-0.2-0.2l-0.1-0.2l-0.2-0.2l-0.3-0.1h-0.1v0.1
	l0.1,0.4v0.1v0.1l-0.2,0.2l-0.1,0.2v0.3l0.1,0.2l0.1,0.2l-0.1,0.1l-0.1,0.3v0.1v0.2l0.1,0.3v0.9v0.1v0.1l0.2,0.4v0.1v0.1v0.3v0.2
	v0.1l0.6,0.5l0.1,0.1l0.1-0.1l0.2-0.3l0.1-0.1h0.5h0.2l0.3,0.1l1,0.5h0.1h0.1v0.1v0.1v0.1h0.1h0.2l0.3,0.1l0.9,0.6l0.9,0.9l0.2,0.2
	l0.1,0.1l0.1,0.2l0.2,0.2l0.1,0.1v0.1v0.1l0,0h0.1h0.1H31l0.5,0.1l1,0.3l0.3,0.1l0.3,0.1h0.3l0.2-0.1l-0.2-0.3h0.1l0,0l0,0l0,0
	l0.1,0.1l0.1,0.1l0.1,0.1l0.2,0.1h0.1l0.1,0.1v0.1l0,0h-0.1H34l-0.6-0.1l-0.1,0.1l0.1,0.1l0.3,0.2l0.2,0.2l0,0h0.2h0.1h0.1l0.1,0.1
	h0.4l0.2,0.1h0.1l0.1-0.1l0.1-0.1h0.5l0,0l0,0l0,0l0,0h0.1l0.3,0.1l0.3,0.2h0.1h0.2h0.1l0.1-0.1l0.1-0.1h0.1h0.1h0.1h0.1h0.1h0.1
	h0.1h0.1H38l0.2,0.1h0.1h0.1l0.1,0.1h0.1l0.1-0.2l0.1-0.1h0.1H39h0.1h0.1h0.1l0,0h0.1h0.1l0.3,0.1h0.1l0.1-0.1h0.1h0.1l0.2,0.1
	l0.1,0.1l0.4,0.2H41h0.2l0.2,0.1l0.3,0.2l0.2,0.1V208v-0.2l0.1-0.1l0.2-0.1h0.1h0.4l0.4,0.1l0.3,0.3l0.2,0.1h0.3H44l0.1-0.1h0.1h0.1
	v-0.1h-0.1H44l-0.1-0.1l-0.1-0.2h-0.1h-0.1v0.1v0.1v0.1v0.1h-0.1l-0.2-0.1l-0.1-0.1l-0.1-0.1v-0.1h0.1h0.4l0,0l0.1-0.1l0,0h0.1l0,0
	l0,0l0,0h0.1H44l0,0h0.1h0.1h0.1h0.1l0,0h0.1l0.3-0.1h0.1l0,0l0,0l0.3,0.2h0.1h0.1v-0.1l-0.1-0.1l-0.1-0.1l0,0h-0.1l0,0v-0.1l0,0
	h0.2l0.3-0.2h0.1h0.5h0.3h0.1v-0.2l-0.1-0.2v-0.1l0.1-0.1l0.1-0.1l0.1-0.2l0.1-0.1l0.2-0.2l0.3-0.1l0.6-0.1l0.1-0.1l0.2-0.1l0.3-0.1
	l0.1-0.1l0.2-0.2h-0.2l-0.1-0.1v-0.1l0.1-0.1h0.1l0.2-0.2h0.1h0.4h0.1v-0.1l-0.3-0.3l0,0h0.3l0,0l0.1-0.1h0.1l1.2,0.2l0,0l0.1,0.1
	h0.1h0.1h0.1h0.1h0.1h0.1v0.1v0.1l0,0h0.1h0.1H52v-0.1v-0.2v-0.1l0,0l0.1-0.1h0.1h0.1h0.1l0.1,0.1l0.1,0.1l0,0h0.1l0,0l0,0l0,0
	l0.2-0.1H53l-0.1-0.1v-0.2l0.1-0.2l0.2-0.1h0.2l0.2,0.2h0.2l0.1-0.1H54h0.1l-0.2-0.1h-0.2l-0.2-0.1l-0.1-0.2V203v-0.2l0.1-0.2
	l0.1-0.1l0.2-0.2l0,0l0.2-0.5l0.1-0.1h0.2h0.1v-0.1l-0.1-0.1l0.2-0.1l0.4-0.1l0.2-0.1l0.4-0.4l0.1-0.1l0.4-0.1h0.3h0.1h0.1l0.2-0.1
	l0.1-0.1h0.1H57h0.1h0.1l0.2,0.1h0.1h0.1l0.2-0.1h0.1l0.7,0.1l0.7,0.2l0.1,0.1h0.2l0.7-0.2l0.1-0.1l0,0l0,0v-0.1l0.1-0.1h0.1h0.1
	h1.2H62h0.2l0.2-0.1l0.2-0.1l0.2-0.1h0.4h0.2l0.1,0.1h0.1h0.1h0.2H64l0.3-0.1h0.1h0.1l0.2,0.1l0.2,0.1l0,0l0,0l0.3-0.2h0.1h0.3
	l0.2-0.1h0.1H67h0.2h0.1l0.1,0.1l0.2,0.1h0.1h0.1l0.1,0.1l0.1,0.1h0.1l0,0h0.1h0.1h0.1h0.1h0.1h0.1h0.1l0.2,0.2h0.1h0.1l0.2-0.1h0.1
	h0.1l0.2-0.2l0.2-0.1h0.3h0.1h0.1h0.1l0.2,0.2l0.1,0.1l0,0v0.1l0.1,0.2l0.2,0.2v0.1l-0.2,0.2l0,0h0.1h0.6l0,0v-0.1l0.1-0.1h0.1v0.1
	l0.1,0.1h0.1l0.1-0.1v-0.2v-0.1l0.1-0.1L74,200l0.3-0.1h0.3l0.7,0.2h0.1l0.1-0.1l0,0l0,0l0,0l0,0l0.1,0.1l0.1-0.1l0.1-0.1v-0.1
	l-0.1-0.1l0.2-0.1h0.3h0.6l0.2-0.1h0.1h0.1l0.1,0.1h0.1h0.2h0.2l0.5-0.2h0.3h0.1h0.1H79l0.3,0.1l0.2,0.2l0.1,0.2l0.1,0.4l0.1,0.1H80
	l0,0l0.1-0.1l0,0l0,0l0,0l0,0l0,0l0.2-0.1l0.3-0.4l0.2-0.2l0.3-0.1l0.5,0.1l0.1,0.1v0.1l0.1,0.1l0.1,0.1H82l0.3-0.4l0.1-0.1h0.2h0.1
	l0,0l0.1-0.1l0.1-0.1l0.1-0.1l0.3-0.1l0.1-0.1l0.1-0.1l0,0l0,0v-0.1v-0.1l0.1-0.1l0.1-0.2l0.4-0.4l0.3-0.2l0,0l0,0l0,0l0,0l0,0
	l0.1-0.1l0.1-0.1l0.1-0.1h0.2l0.1-0.1l0.1-0.1V197v-0.1l0.1-0.3v-0.2l0.1-0.2v-0.1V196l0,0v-0.1l0.3-0.5l0.1-0.1l0.1-0.1v-0.1v-0.3
	l0.1-0.2l0.1-0.2l0.3-0.4l0.2-0.2l0.1-0.1h0.1h0.1l0.3-0.2l0.1-0.1l0.3-0.1l1.1-0.1l1.2-0.3l0.2-0.1l0.6-0.3l0.2-0.1l0.9-0.7h0.1
	h0.1l0.4-0.1l1-0.6l0.5-0.2l1.1-0.3l0.3-0.1l0.9-0.7l1-0.6l0.3-0.1l0.5-0.3l0.3-0.1h0.3H99h0.2l0,0l0.1-0.1h0.1l0.2-0.1h0.1h0.1h0.3
	l0.2,0.1l0.6,0.2l2,0.2h0.6l0.2-0.1l0.2,0.1l0.8-0.1h0.8l0.2-0.1l0,0l0.1-0.1l1.2-0.1l1.6-0.4l0,0l0.1-0.1h0.1h0.1l1.2-0.4l1.7-0.3
	l1.4-0.4l2.9-1.1l0.5-0.3l0.2-0.1l0.1-0.1l1.1-0.5l0.4-0.1h0.1l0.6-0.1h0.2h0.1l0.4-0.1h0.1h0.4h0.1l0.4-0.1h0.6h0.1l0.4-0.1h1.4
	l1.3-0.2h0.9l0.4-0.1h0.1h0.7l0.3,0.1h1.6l1,0.1h0.6h0.3l1.1-0.3l0.7-0.4l0.3-0.1h0.3l1.1,0.4l1.3,0.5l1.7,0.8l0.9,0.6l1,0.6
	l0.2,0.2l0.4,0.4l0.2,0.2l0.3,0.1h0.3h0.3l0.3-0.1h0.2h0.1h0.1l0.1,0.1h0.1h0.1l-0.1-0.1l-0.1-0.1v-0.1l0.1-0.1l0.1-0.1l0.1-0.1h0.1
	h0.3h0.2l0.5,0.1h0.3h0.3h0.2h0.1l0.3,0.2l0.2,0.2l0.4,0.3h0.1h0.1v0.1v0.1v0.1h0.1h0.1l0,0l0,0h0.2l0.1,0.1l0.5,0.5l0.1,0.1l0,0
	l0,0l0,0l0,0l0.1-0.1h0.1h0.1l0.1,0.1h0.1l0.1,0.1h0.1h0.1l0.2-0.2l0.1,0.1h0.2h0.4h0.1l0,0l0,0l0,0h0.1l0.1,0.1h0.1h0.1v-0.1
	l-0.1-0.1l-0.2-0.1h-0.2h-0.1v-0.1V188h0.1h0.1h0.1l0.2-0.1h0.1v0.2l0,0h0.1l0.3,0.1h0.1l0.1-0.1V188v-0.2v-0.1l0.1-0.1h0.1h0.2
	l0.1,0.1l0.1,0.1l0,0h-0.1l0,0v0.1h0.1h0.1h0.1v0.1v0.1l0,0l0,0h0.1h0.1h0.2l0.1,0.1l0,0l0,0v0.2v0.1h0.1h0.1l0,0v-0.1l0.1-0.1h0.1
	l0,0l0.1,0.2l0.3,0.3v0.1v0.1l0.2,0.2l0.1,0.1v0.1l-0.1,0.1h-0.1l-0.1-0.1v-0.1l-0.1,0.1l-0.1,0.1l-0.1,0.1l0,0v0.2l0,0v0.1l0,0l0,0
	v0.1l0,0v0.1h0.1h0.1h0.1h0.1l0,0V190v-0.1l0.1-0.1h0.1h0.1h0.2l0.1-0.1l0.1-0.1l0.1-0.1h0.1h0.1l0.1,0.1h0.1l0.1-0.1h0.1h0.1h0.1
	h0.1l0.3,0.3l0.2,0.2l0.2,0.2l0.1,0.2l0.2,0.5v0.1l-0.1,0.2l-0.1,0.1v0.1l0,0l-0.1,0.1l-0.1,0.1v0.1v0.2l0,0h-0.1l0,0v-0.1v-0.1
	v-0.1v-0.1v-0.1l0.1-0.1H153h-0.5h-0.2h-0.1l-0.1,0.1l0,0l0.3,0.3l0.1,0.2l0.1,0.2l-0.1,0.2h-0.1l-0.2,0.1l-0.1,0.1l-0.1,0.1h-0.1
	l0.1,0.1h0.1h0.3l0.1,0.1h0.1l0,0l0,0l0,0h0.1l0.1,0.1l0.1,0.1l0.1,0.1v0.1l-0.1,0.1h-0.2l-0.1,0.1l0.1,0.1h0.1h0.2h0.1h0.1l0.1,0.1
	l0.2,0.3v0.1v0.1v0.1l0.4,0.3h0.1v-0.1v-0.1v-0.1l0,0h0.1l0.1,0.1l0,0h0.2l0.1-0.1l0.2-0.1h0.2l0.4,0.2l0.3,0.1l0.1,0.1l0.2,0.2
	l0.1-0.1h0.1h0.1h0.1v-0.1h-0.1h-0.1v-0.1v-0.1H156h-0.2l-0.1-0.1v-0.1l0.1-0.1h0.2l0.4,0.1h0.2l0.1,0.1l0.1,0.1l0.1,0.1v0.1h-0.1
	h-0.2h-0.1l0.1,0.1h0.1l0.2,0.1h0.1l0.2,0.2l0.2,0.2l0.1,0.1l0.1,0.3l0.2,0.4v0.1v0.1v0.3v0.1l-0.1,0.1v0.1v0.1l-0.1,0.1h0.1
	l0.2,0.1l0,0l0.1,0.2l0,0l0.2,0.1l0.1,0.1l0.4,0.2l0.4,0.3l0.5,0.5l0.1,0.1h0.2l0.1,0.1l0.2,0.4l0.2,0.2l0.1,0.1v0.1v0.3v0.1v0.1
	v0.1v0.1l0.1,0.1l-0.1,0.1l-0.1,0.1h-0.1v0.1l0.1,0.1l0.1,0.1h0.2l0.2,0.3l0.1,0.4l0.1,0.9v0.1l0.2,0.2v0.1v0.1v0.1v0.1l-0.1,0.1
	v0.1v0.1l0,0v0.1v0.1v0.1l0,0h0.1l0,0l0,0l0.1-0.1l0,0l0.1-0.1h0.1v0.1v0.1v0.1v0.1h0.3h0.1v0.1l-0.4,0.1l-0.1,0.1h-0.1h-0.1
	l-0.1-0.1l-0.1-0.1l-0.1-0.1l0.1-0.1l0,0l-0.2-0.1l-0.1-0.1v-0.1v-0.1l0.1-0.1h-0.1l-0.5-0.1h-0.1l-0.1-0.1v-0.2l0.1-0.2v-0.1h-0.1
	H160v0.1v0.1v0.1l-0.1,0.1l-0.1,0.1l-0.1,0.1v0.2l-0.1,0.1l-0.2,0.2v0.1l0.1,0.1l0.1-0.1l0.1-0.1h0.1h0.1h0.1h0.1h0.1l0.2,0.2
	l0.2,0.2l0.1,0.1v0.1l-0.2,0.2h0.1h0.2h0.1h0.1l0.3,0.1l0.2,0.1l0.1,0.1l0.2,0.3l0.6,0.6l0.1,0.2v0.1v0.1v0.1h0.1h0.3h0.1V206v-0.1
	v-0.1l0,0l0,0l0,0v-0.1l0.3-0.2h0.3l0.3,0.1l0.2,0.2v0.1v0.1l0,0h0.1l0.2,0.1h0.1l0.1,0.1l0.1,0.3l0.1,0.1l0.1-0.1h0.2l0.1-0.1
	l-0.1-0.1l0,0v-0.1l0,0l-0.2-0.5v-0.1l0.1-0.1l0.1-0.1l0.1-0.1v-0.1v-0.3v-0.1h-0.1H165h-0.1v0.1v0.2v0.1h-0.1l0,0v-0.1h-0.1l0,0
	l-0.2,0.2l0.5,0.7h-0.1h-0.1h-0.2h-0.1v-0.1l0,0l0.1-0.1v-0.1l0.1-0.1h0.2h0.1v-0.1v-0.1l-0.1-0.1v-0.1v-0.1V205v-0.1v-0.2l0.1-0.1
	h0.1l0.1,0.1l0.1-0.1v-0.1l-0.2-0.2l0.1-0.1V204v-0.1l0.1-0.1h0.1h0.2l0.3-0.2h0.2l0.1,0.1v0.2h0.1l0.1-0.1v-0.2v-0.2v-0.1l-0.1-0.1
	v-0.1l0.1-0.1v-0.1l-0.1-0.1l0.2-0.2l0.4-0.2l0.2-0.1l0.4-0.7l0.2-0.2l0.1-0.2v-0.1l0.1-0.1v-0.1v-0.1v-0.1v-0.1l0.1-0.1l0.4-0.3
	l0.1-0.1l0.3-0.1l0.1-0.1l0.2-0.2l0.3-0.2v-0.1l0,0v-0.1l0.1-0.1l0.4-0.1l0.2-0.1l0,0h0.1l0.1-0.1h0.1h0.2l0.1-0.1l0.1-0.1l0.1-0.1
	h0.2h0.2h0.2l0.1-0.1l0.1-0.1l0.3-0.2h-0.1l-0.4,0.1l0,0v-0.1v-0.1h0.1h0.1h0.1l0.1-0.1v-0.1v-0.2l0.1-0.1h0.1l0.1,0.1v0.1l0,0l0,0
	h0.1h0.1l0,0l0.4-0.1h0.3h0.2l0.2-0.2h0.1l0.2-0.1l0.2-0.3l0.4-0.8l0.1-0.1l0.3-0.3l0.1-0.1v-0.2v-0.5V195l0.3-0.5v-0.1v-0.1v-0.2
	V194l0.1-0.1l0.1-0.1l0.1-0.1l0.5-0.5l0,0v-0.1V193l0,0l0.1-0.1l0.2-0.1l0.2-0.1h0.1l0.2,0.2l0.1,0.1h0.1h0.1h0.2l0.1-0.1v-0.1
	l-0.1-0.1v-0.1v-0.1v-0.1v-0.1l0,0l0,0h0.1v-0.1l0.1-0.2l0.1-0.1v-0.1v-0.1v-0.4V191v-0.1v-0.1l-0.1-0.1l-0.2-0.1v-0.1v-0.1v-0.3
	v-0.2l-0.1-0.1v-0.1v-0.1v-0.1h0.1l0,0v0.1v0.1l0,0h0.1h0.1l0.1,0.1l-0.1,0.1v0.1v0.1l0.1,0.1l0.1,0.1v0.1v0.1v0.1l0,0l0,0l0,0l0,0
	l0,0l0,0h0.1h0.1h0.1l0,0l0,0l0,0l0.3,0.2l-0.2,0.1L178,191v0.1l0.4,1.5l0,0l0.1,0.1h0.1h0.2h0.1l0.1,0.1l0.1,0.1v0.1v0.1l0,0v0.2
	v0.1l0,0l0,0v0.1l-0.1,0.1h-0.1h-0.1h-0.1l0,0l-0.1,0.1l0,0l0,0h-0.1l0,0l-0.4,0.2l-0.3,0.1l-0.1,0.1l-0.1,0.1l-0.1,0.1v0.2l0.1,0.2
	l0.1,0.1l0.2,0.2v0.1v0.1v0.2v0.1l0.2,0.1l0.1,0.1v0.1v0.2l0.1,0.2v0.1v0.4v0.1l-0.1,0.2v0.1L178,197l-0.2,0.2l-0.4,0.5l0,0h-0.1
	l-0.2,0.2l-0.2,0.4h-0.1l-0.3,0.3l-0.2,0.2l-0.1,0.1l-0.1,0.1l0.1,0.1h0.1v0.1v0.1v0.1v0.1l-0.1,0.1l-0.2,0.1l-0.1,0.1l-0.1,0.1
	l-0.1,0.1l-0.1,0.1l0,0v0.1l0.1,0.1v0.1v0.1v0.1l-0.2,0.3l-0.1,0.1h-0.1l-0.2-0.1H175v0.1v0.1v0.1l0.1,0.2l0.1,0.1v0.2v0.2v0.1
	l-0.1,0.5l-0.1,0.1v0.1v0.1l0,0l0,0h-0.1l0,0l-0.1,0.1l-0.1,0.3v0.1l0.1-0.1l0.1-0.1h0.1l0.1,0.1v0.1v0.3l0.1,0.2v0.2l0.1,0.2
	l-0.2,0.6v0.1v0.2v0.1v0.1l-0.1,0.2v0.3v0.3v0.2l-0.2,0.2l-0.2,0.1h-0.1l-0.1-0.1l-0.3-0.1l-0.1-0.1l-0.1-0.1h-0.1h-0.3l-0.6,0.1
	h-0.3l-0.4-0.2h-0.1v0.1l-0.3,0.3l0.1,0.1v0.1l-0.2,0.1l-0.1,0.1v0.1v0.1l0.1,0.1v0.1v0.1l-0.1,0.2v0.1l0,0h-0.1l-0.1,0.1h-0.1h0.1
	l-0.1,0.1l-0.2,0.1v0.1v0.1l-0.1,0.1l0,0v0.1l0.1,0.1l0,0l0.1,0.2h0.3l0.3-0.1l0.2-0.2l0.4-0.2h0.1l0.4,0.1h0.3l0.2-0.1l0.1-0.2
	l0.2-0.2h0.1h0.5h0.1l0.2-0.2l0.1-0.1h0.1h0.1h0.3h0.1l0.1,0.1h0.1h0.2h0.1l0.1,0.1l0.3,0.2l0.3,0.1h0.1h0.1l0.2-0.2l0.2-0.1l0,0
	l0,0v-0.2v-0.2v-0.1l0.1-0.1l-0.1-0.2l0.1-0.2l0.2-0.4l0.1-0.3v-0.1v-0.1l0.1-0.1v-0.1l0,0l0.1-0.2v-0.1v-0.1v-0.5l0.1-0.2l0.1-0.1
	l0.1-0.1l-0.2-0.2V204v-0.1v-0.2v-0.1l0.2-0.6v-0.1l0.5-0.4l0.3-0.3v-0.1V202l0,0l-0.1-0.1v-0.1v-0.1l0.2-0.3l0.1-0.1v-0.1l0.1-0.1
	l0.1,0.1l0.4,0.5v0.1l-0.1,0.1v0.1l0.1,0.1l0.2,0.1l0.1,0.2l0.2,0.8l0.1,0.3l0.1,0.1l0.2,0.1l0.1,0.1l0.1,0.3l0.1,0.1l0.2,0.1
	l0.2,0.2v0.1v0.1v0.1v0.1v0.1h0.1l0.2,0.1l0,0v0.1v0.1h0.1h0.1l0.1,0.1l0.1,0.1v0.2v0.1l-0.1-0.1l-0.1-0.1h-0.1v0.1l-0.1,0.5v0.3
	l0.1,0.5v0.3v0.1l-0.2,0.2l-0.1,0.1l-0.1,0.4v0.1v0.1v0.1v0.1v0.1v0.1l0,0h-0.1v0.1v0.1v0.3v0.1l-0.1,0.1l-0.1,0.1l-0.1,0.1h-0.1
	l-0.1,0.1l-0.1,0.1l-0.2,0.2l-0.2,0.2l-0.2,0.1l-0.7,0.3l-0.1,0.1l-0.1,0.1v0.1v0.2v0.1v0.1l0.3,0.3l0.1,0.1h0.2h0.1h0.1l0.1-0.1
	l0.1-0.1v0.1h1l0.6-0.1l0.3-0.1l0.2-0.1l0.1-0.1v-0.1l0.1-0.1l0.1-0.1l0.6-0.1h0.3h0.2l0.3,0.1h0.1h0.1l0.1-0.1h0.1h0.1h0.1h0.1h0.2
	h0.1v-0.1l-0.1-0.1h-0.1h-0.1h-0.1h-0.1l-0.1-0.1h-0.1H184h-0.5h-0.1l-0.1-0.1l0.1-0.1h0.5h0.1h0.1l0.1,0.1h0.1l0.4,0.1l0.1,0.1h0.1
	h0.2v-0.1v-0.1l-0.1-0.1l-0.3-0.1l-0.1-0.1v-0.2l0.1-0.1l0.1-0.1l0.3-0.1h0.1h0.2h0.2l0.1-0.1l0.1-0.1l0.3-0.2l0.1-0.1h-0.1l0,0l0,0
	l0,0h0.3l0.3,0.1l0.2,0.2l0.1,0.3l0.2-0.1h0.1h0.1v0.1l-0.1,0.3v0.1l0.1,0.1l0.1,0.1v0.1l-0.1,0.1h-0.1l-0.4-0.1h-0.1h-0.1l0,0l0,0
	l0,0h-0.2h-0.1v0.1h0.1h0.2h0.1l0.5,0.4v0.1l-0.1,0.1l-0.1,0.1v0.1v0.1l-0.2,0.1h-0.1h-0.4h-0.1v-0.1l0.1-0.1l0.1-0.1h0.1v-0.1l0,0
	h-0.1h-0.1l-0.1-0.1v-0.1l0.1-0.1v-0.2v-0.1l-0.1-0.1h-0.1h-0.1l-0.2-0.2h-0.1l-0.1,0.1l-0.2,0.2l-0.1,0.1v0.2h-0.1h-0.1v0.1v0.1
	l0.1,0.1l0.3,0.1l0.1,0.1l0.4,0.3h0.1l1.3,0.9l0.2,0.2l0.1,0.1l0.3,0.1l0.1,0.1l0.8,0.8v0.1l0.1,0.3l0.4,0.7v0.3l0,0l-0.4-0.8
	l-0.2-0.4l-0.4-0.5l-0.3-0.3l-0.7-0.5l-2.3-1.8l-0.3-0.1l-0.3,0.1l0.3,0.2l0.2,0.1l0.2,0.2l0.2,0.1l0.2,0.2l0.2,0.1l0.2,0.2l0.2,0.1
	l0.5,0.4l1.2,1l0.1,0.1v0.1l0.3,0.3l0.2,0.2l0.1,0.1l0.5,0.9l0.6,1.1l0.8,1.7v0.1v0.9v0.3l-0.1,0.2l-0.2,0.2l-0.2,0.2l-0.8,0.3v0.1
	l0.1,0.1l0.2,0.1l0.1,0.1v0.1v0.3l0.1,0.2l0.1,0.1l0.1,0.2v0.2l-0.1,0.1h-0.1v0.1l0.2,0.3l0.2,0.3l1.3,1.5l0.2,0.1l0,0l0,0l0,0l0,0
	l0,0h0.1l0,0h0.1l0.1,0.1h0.1l0.1,0.1l0.1,0.1v0.1h-0.2l0,0l0.2,0.2l0.5,0.3l0.2,0.2l0.3,0.4v0.1l0.3,0.4l0.1,0.2v0.1v0.1l0,0
	l0.1,0.1l0,0h0.1l0,0l0,0v0.1l0,0l0.1,0.1l0.3,0.1l0.1,0.1l0.5,0.4l0.1,0.1h0.1l0.1,0.1h0.1h0.2h0.1l0.1,0.1l0.1,0.1h0.1h0.2
	l1.6-0.1h0.1l0,0l0.1,0.1l1,0.4l0.5,0.3l1.1,0.8l0.1,0.1v0.1v0.1v0.1v0.1l-0.1,0.1v0.1h0.1l0.1,0.1h0.1h0.1V230v-0.1l0,0h0.1h0.1
	h0.1h0.1h0.1l0.1,0.1l0.1,0.2l0.1,0.1h0.1v-0.1v-0.1l0,0l0.1-0.1h0.1l0,0l0,0l0,0h0.2l0,0v-0.1l-0.1-0.1l-0.1-0.1v-0.1l0.1-0.2
	l0.3-0.2l0.3-0.1h0.3l0.7,0.1l0.2,0.1h0.1h0.2h0.1l0.3,0.1l0.7,0.4l0.6,0.2h0.3l0.3-0.1l0.1-0.1h0.2h0.6h0.1l0.1,0.1h0.1l0.2,0.1
	v-0.1v-0.1v-0.1h0.1h0.1l0,0l0,0l0.1,0.1l0,0h0.1l0,0l0,0h0.1l0.2,0.2l0.4,0.2l0.5,0.4l0.2,0.1l0.3,0.3h0.3l0,0l0.1,0.1h0.2l0.3,0.1
	l0.8,0.1l0.1,0.1l0.3,0.1l0.4,0.3v0.1l0.1,0.1l0.1,0.1h0.1h0.6h0.2h0.1l0.2,0.1l0.3,0.1l0,0l0.1,0.1l0,0h0.1l0.2,0.2l0.1,0.1h0.1
	l0.1-0.1l0.2-0.2l0.1-0.1l0.2-0.1l0,0h0.1l0,0l0,0l0,0l0,0l0.1-0.1l0.1-0.1l0.1-0.1h0.1h0.1l0.7-0.2h0.1l0.1-0.1l0.1-0.1h0.1
	l0.1-0.1l0.2-0.3l0.1-0.1h0.1h0.2l0.1-0.1l0.1-0.1v-0.1v-0.1l0,0l0.4-0.3l0.1-0.1h0.3l0,0l0.1-0.1l0,0l0.3-0.1l0,0l0.1-0.1h0.1h0.1
	h0.1h0.1l0.3-0.3l0.6-0.4l0.1-0.1h0.1h0.1l0.2,0.1h0.1h0.1h0.1h0.1h0.1h0.5h0.3V229l0.1-0.1l0.1-0.1l0.1-0.1l0,0h0.1l0,0l0,0v-0.1
	l0,0v-0.2l-0.1-0.1l-0.3-0.1l-0.5,0.3l-0.2,0.1h-0.2l-0.6-0.1h-0.3l-0.1-0.1l0.1-0.2l0.1-0.1h0.4l0.2-0.1l0,0h0.1h0.1h0.1h0.1l0,0
	l0,0l0,0l0.1-0.1l0.1-0.1l0.1-0.1l0.8-0.2l0.1-0.1l0.1-0.1l0.3-0.2h0.1h0.1h0.1h0.1h0.1l0.1-0.1v-0.1l0.1-0.1h0.1h0.4v-0.2h0.2
	l0.2,0.1l0.1,0.1l0.1,0.1l0.1,0.3l0.2,0.2l0,0h0.1l0.2,0.1h0.1l0.2,0.2l0.1,0.2v0.3l-0.1,0.2l-0.3,0.3l-0.1,0.1l-0.1,0.1v0.1v0.1
	v0.1l0,0l-0.1,0.1l-0.1,0.1v0.1v0.1v0.1l-0.1,0.1H225l-0.4,0.2h-0.3H224h-0.1l-0.2-0.2l-0.1-0.1h-0.2h-0.1h-0.1l0,0v0.1h0.1h0.1
	l0.1,0.1l1.1,0.9l0.2,0.1h0.2l0.1-0.1h0.5h0.1h-0.1l0.1-0.2l0.1-0.1l0.2-0.1l0.1-0.1v-0.1v-0.1h0.2l0.6,0.1V230v-0.2v-0.1l-0.1-0.1
	v-0.1l0.1-0.1h0.1h0.1l0.1-0.2l0.1-0.1l0.1-0.1l0.1-0.1l-0.1-0.1l0.1-0.1h0.2h0.1l0.1,0.1l0,0l0,0l0,0h0.3h0.3h0.1h0.1l0.1,0.1
	l0.2,0.3l0.1,0.1v0.1v0.1v0.1l0,0h0.1l0.1,0.1v0.1l-0.1,0.1h-0.1L229,230l-0.1,0.1h-0.2l0,0l0,0h-0.1h-0.1l-0.2,0.1l0.1,0.1v0.1v0.1
	l-0.1,0.1l0.1,0.1l-0.1,0.1l-0.2,0.1H228l0,0h0.1l0.4,0.1l0.4,0.2h0.1l0.1,0.1l0.3,0.5l0.2,0.1h0.3l0.4-0.2l0.2-0.1h0.3l0.2,0.1
	l0.2,0.1l0.1,0.2h-0.2l-0.3-0.2l-0.2-0.1l0.1,0.1l0.4,0.3l0.2,0.3l0.3,0.5l0.1,0.4v0.1h0.1l0.4-0.1h0.1v-0.2V233l0.1-0.1l0.5-0.1
	l0.6,0.3l0.5,0.5l0.1,0.4l0.2,0.2l0.1,0.1l0.3,0.1v0.1v0.1h-0.1h-0.1v0.1l0.1,0.1l0.1,0.1l0.2,0.1h0.1h0.1h0.1l0.1-0.1v-0.1v-0.1
	v-0.1l0.1-0.1h0.1h0.1l0,0l-0.1-0.2l0,0h-0.1h-0.1l0,0l0,0v-0.1l0.1-0.2v-0.1v-0.1l0.1-0.1l0.1-0.1l0,0v-0.1l0,0l0,0l0,0v-0.1l0,0
	l0,0v-0.1v-0.2V233v-0.1l-0.1-0.1h-0.1l-0.1,0.1l-0.1,0.1v0.1v0.1v0.1v0.1h-0.1H235h-0.1l-0.1,0.1l-0.1,0.2l-0.1,0.1h-0.1h-0.1
	l-0.1-0.1v-0.1h-0.1v-0.1v-0.1v-0.1l0,0l0,0l0,0l0,0h-0.1l0,0l-0.1-0.1l-0.1-0.1V233l-0.2-0.2l0.3-0.3l0.1-0.1h0.1h0.6h0.1l0,0
	l0.1,0.1l0.1,0.1l0.1-0.1l0.1-0.1l0.2-0.1l0.3-0.1h0.2h0.2h0.1l0.3-0.2h0.2h0.3l0.9-0.2h0.1l-0.1,0.1v0.1h0.1l0.2-0.3l0,0h0.1
	l0.6-0.4l0.7-0.7l0.7-0.5l1.4-1.2l1.3-0.9l1.1-0.6l1.1-0.4l1.4-0.4l1.2-0.2l2-0.1l0.8,0.1h0.1l0.2-0.1h0.1h0.8h0.3h1l0.3-0.1
	l0.1,0.1h0.1h0.5l0,0v0.1v0.1l0,0l0,0l0.2-0.2l0.3-0.1h0.9h0.1l0,0l0.1-0.1l0,0l0.1-0.1h0.3h0.1l0.1-0.1v-0.1l0,0l0.3-0.1l0.1-0.1
	l0.2-0.3l0.1-0.2l0.2-0.2l0.1-0.1v-0.1l-0.3-0.3l0.3,0.1h0.1l0.1-0.1h0.1v0.1l-0.1,0.1l0,0l0,0l0,0h-0.1l0.8-0.1l0.4-0.1l0.1-0.1
	l0.1-0.1l-0.1-0.3l-0.1-0.3v-0.3l0.1-0.3l-0.1-0.3v-0.1l0.1-0.1l0.1-0.1h0.1h0.2l0.2,0.1l0,0l-0.2-0.3v-0.1v-0.2v-0.1l-0.1-0.1
	l-0.3-0.2h-0.1l0,0h-0.1h-0.1h-0.1l-0.1-0.1v-0.1h0.1l0,0l0.1-0.1l0.1-0.1h0.1l0,0l0,0l0,0V221v-0.1v-0.1v-0.1l-0.1-0.1v-0.1v-0.1
	l0.1-0.1l0.1-0.1l-0.1-0.1h-0.1l-0.1-0.1v-0.2l0.2-0.2v-0.1l-0.1-0.2l0.1-0.1l0.1-0.1l0.1-0.2v-0.2v-0.1v-0.1v-0.1l0.2-0.4l0.2-0.2
	l0.1-0.1v-0.2l-0.1-0.3v-0.1l0.1-0.1l0,0v-0.1v-0.2v-0.2l0.1-0.1l0.1-0.1l0.1-0.1l0.1-0.1l0.1-0.1v-0.1v-0.1l-0.1-0.2l0,0l0.1-0.1
	v-0.1l-0.1-0.4v-0.1v-0.1l0.1-0.3l-0.1-0.1l-0.1-0.1l-0.1-0.1l0,0l0,0l0,0l0,0l0.1-0.1l0,0l0,0l0.1-0.1l0.2,0.1h0.1l0.1-0.3v-0.5
	v-0.1l-0.1-0.2v-0.1l0,0l0.2-0.2l0,0h0.2h0.1v-0.1v-0.2v-0.1l-0.1-0.1l0,0l-0.1-0.2l-0.2-0.2l0.2-0.1h0.1l0.1,0.1h0.1l0.1-0.1
	l0.1-0.2l0.2-0.4l0.3-0.4l0.1-0.1l0.1-0.1v-0.1v-0.3V210l0.1-0.1l0.1-0.1l0.1-0.1v-0.1l0,0l0.2-0.1v-0.1l0,0l0,0v-0.1v-0.2V209
	l0.1-0.1l0.2-0.2l0.1-0.1l0,0v-0.1v-0.1v-0.1l0.2-0.1l0.2-0.1l0.2-0.1h0.3l0.1,0.2l0,0h0.1h0.1l0,0l0,0h0.1h0.1h0.1v-0.1V208v-0.1
	v-0.1h-0.1h-0.1h-0.1l-0.1-0.1l0,0v-0.1v-0.1v-0.1h-0.1l0.1-0.2l0.1-0.1l0.2-0.1h0.1h0.1l0.1,0.1v0.1l0.1,0.1l-0.1,0.1v0.1l0.1,0.1
	l0.1,0.1l0.1,0.1l0.2-0.1l0.1-0.1v-0.2l0.1-0.2l0,0h-0.2l-0.2-0.1l-0.1-0.1l0.1-0.2h-0.1l0.1-0.1l-0.1-0.1l-0.1-0.1l-0.1-0.1h0.1
	l0.1-0.1v-0.1h-0.1h-0.1l-0.1-0.1L264,206l0,0l0.2-0.1l0.2-0.3l0.2-0.1l0.2-0.1l0.1-0.2l0.2-0.8l0.1-0.1h0.2h-0.1l-0.1-0.1l-0.2-0.1
	l-0.1-0.1h-0.1h-0.1l0,0v-0.1l0.2-0.2l0,0l0,0h0.1v0.1l-0.1,0.1h0.1l0.1-0.1l0.1-0.1l0.1-0.1v-0.1V203l0.1-0.5l0.1-0.1l0.5-0.5v-0.1
	l0.1-0.1l0.4-0.2h0.1l0.1-0.1l0.1-0.1l0.1-0.2l0.1-0.1l0.1-0.1v-0.1l0,0h-0.2h-0.1h0.1v-0.1v-0.1v-0.1h0.1l0,0l0,0h0.3l0,0v-0.1
	h-0.1h-0.4l-0.1,0.1l0,0l-0.1-0.1l0,0h-0.2l0.1-0.1h0.1h0.1h0.1l0.1-0.1v-0.1V200h0.1l0.1,0.1l0.2,0.2h0.1l0.1-0.1v-0.1l0.1-0.2
	l-0.1-0.1l0.1-0.3v-0.1v-0.1l0,0v0.1h-0.1h-0.1h-0.1v-0.1v-0.1l0.1-0.1h0.1h0.1h0.1v-0.3l0.1-0.2v-0.1v-0.1l-0.1-0.1l0,0l0.2-0.1
	v-0.1l0.1-0.3l-0.1-0.2v0.1l-0.1,0.1l-0.1,0.1l-0.1,0.1v-0.1l0.2-0.4v-0.1h-0.1l-0.3,0.1h-0.2l0,0h0.1h0.1l0,0v-0.1l-0.1-0.1v-0.1
	v-0.1l0.1-0.1l0.1,0.2l0.1,0.1h0.1l0.2-0.1h0.1h0.2h0.1h0.1l0.1-0.1l0,0h0.1l0,0h0.1l0,0l0,0l0,0h0.1l0,0V197v-0.1l0.1-0.1v-0.1l0,0
	h-0.1v-0.1l0.2-0.2l0.1-0.1l0.1-0.2V196h-0.1H269l-0.1,0.1h-0.1h-0.1V196v-0.1l0,0h0.1h0.1l0,0h-0.1l0,0l-0.1-0.1l0.3-0.2l0.2-0.1
	l0.2,0.1l-0.2,0.2l-0.1,0.1v0.1l0.1-0.1l0.2-0.2v-0.1v-0.1v-0.1l0.2-0.1l0.1-0.1l0.1-0.1V195v-0.1l0.1-0.1l0.1-0.1l0,0v-0.4v-0.1
	l0.1-0.1l0.2-0.1l0.1-0.1l0.1-0.1v-0.2v-0.1l0.1-0.1l0.1-0.1l0.1-0.1h0.1l0,0l0.1-0.1l0.1-0.3l0.1-0.1h0.1l0.3-0.1l0.3-0.2l0.3-0.1
	l0.5-0.1h0.3h0.1l0,0l0,0l0.1-0.1h0.1h0.2h0.1V192v-0.1l0,0l0,0h-0.1h-0.1h-0.1h-0.5l0,0l-0.2-0.1l0.3-0.1l0,0l0.1-0.1l0,0h0.1
	l0.2,0.1l0,0h0.1l0,0l0,0l0.1,0.1l0,0h0.1v-0.1v-0.1v-0.2l0.1-0.1l0.1-0.1l0.3-0.1l0.1-0.1l0.4-0.4l0.1-0.1l0.2-0.1l1-0.4l-0.1-0.1
	v-0.1v-0.1v-0.1v-0.1v-0.1l0,0l0,0l0,0l0,0l0,0l-0.1-0.1v-0.1v-0.1V189v-0.1v-0.1l0.1-0.1l0.1-0.1l0.1-0.1l0,0l-0.1-0.1l-0.1-0.1
	l-0.1-0.2l-0.2-0.1v-0.1v-0.1l0.1-0.1l0.2-0.3l0.1-0.2v-0.1l0.6-0.7l0.2-0.1l0.4-0.2l0.1-0.2l-0.1-0.1l0.1-0.2l0.3-0.3l0.1-0.1l0,0
	v-0.1l0,0l0,0l0,0V185l0.1-0.1l0.1-0.1l0.1-0.1l-0.1-0.3l0.1-0.2l0.1-0.2l0.2-0.2l0.2-0.2l0.1-0.1v-0.2v-0.1l-0.1-0.1V183v-0.1v-0.1
	l0.2-0.5v-0.2v-0.4v-0.1l0.1-0.2l0.3-0.4l0.1-0.1l0.1-0.1l0.1-0.1v-0.1l-0.1-0.1v-0.1v-0.2l0.1-0.1l0.1-0.2v-0.1v-0.1v-0.1v-0.1
	v-0.1l0,0l0,0v0.1h-0.1h-0.1h-0.1l0,0l0,0l0,0l-0.1-0.3v-1.1l0,0l0,0l0.1-0.1v-0.1l0.1-0.9l0.1-0.1l0.2-0.2v-0.2v-0.1l0.3-0.4
	l0.1-0.3l-0.1-0.2l0.4-0.6l0.1-0.3v-0.4V174v-0.1v-0.1l0.1-0.1l0,0v-0.1l0.2-0.3v-0.1V173v-0.3l0,0l0.1-0.1v-0.1v-0.3v-0.1V172v-0.1
	l0.2-0.3v-0.1v-0.1v-0.2l0,0l0.1-0.1l0,0l0,0V171l0,0v-0.1v-0.1l0.1-0.2l0.1-0.3l0.1-0.1v-0.1V170v-0.1v-0.1l0.1-0.1v-0.1l-0.1-0.1
	l-0.1-0.3l0.1-0.3l0.1-0.3l0.3-0.4v-0.1l0,0h0.1l0,0V168l-0.1-0.3v-0.1v-0.1l0.1-0.3l0.1-0.2l0.3-0.4l0.4-0.3l0.2-0.2v-0.3l-0.1-0.3
	v-0.1l0.1-0.2v-0.1V165v-0.1v-0.1l0.1-0.1l0,0l-0.1-0.1L283.6,164.5z M119.1,81.2L119.1,81.2h-0.2v0.1l0,0l0,0l0,0L119.1,81.2
	l-0.1,0.2v0.1l0,0l0,0l0,0l0,0l0,0h-0.2l0,0l-0.1,0.1l0,0h-0.1h-0.1h-0.1v0.1l0,0l0.1,0.1h0.1l0,0l-0.1,0.1h0.1h0.1h0.1V82l0,0
	l-0.2,0.1h-0.1h-0.1v0.1l0,0l0.2,0.1l0,0v0.1l-0.3-0.1l-0.1,0.1v0.1v0.1l0.1,0.1v0.1l-0.1,0.1h-0.1l0,0l0,0l0,0l0,0V83v0.1H118l0,0
	v-0.2v-0.1h-0.1l0,0v0.1V83l0,0l0,0l0,0l-0.1-0.1l0,0l-0.1,0.1v0.1v0.1l-0.1,0.1v0.1v0.1l0.1,0.1v0.1l0,0l0,0l0,0v0.1v0.1l0,0l0,0
	h0.1h0.1V84v0.1l0,0h-0.1h-0.1l-0.1,0.1v0.1v0.1h0.1h0.1v0.1v0.1h-0.1h-0.1l0,0v0.1v0.1v0.1V85v0.1l-0.1,0.1l-0.1,0.1l-0.1,0.1l0,0
	l0,0v-0.1l0,0l0,0l0.1-0.2l0.1-0.2v-0.2l-0.1-0.1v0.1h-0.1l-0.1-0.1h-0.1h0.1h-0.1l-0.2-0.1h-0.1l0,0v-0.1l0,0l0,0h-0.1v-0.1v-0.1
	l0,0l0,0l0,0h-0.1h-0.1l-0.1,0.1h-0.1l0.1-0.1l0,0h0.1l0,0h-0.3l0,0v-0.1h0.1h0.2h0.1V84v0l0,0h-0.1h-0.1h-0.2v-0.2l0,0l0.3-0.1l0,0
	l-0.1-0.1h-0.2l-0.2,0.3h-0.2v-0.1l0.1-0.1v-0.1l0.2-0.2v-0.1l0.6-0.7l0.1-0.1v-0.2v-0.1l-0.2-0.2l-0.1-0.1h0.1l0.1-0.1h0.1v-0.1
	v-0.1l0,0h0.1l0,0l0.1,0.2l0.1-0.1l0.1-0.1l-0.1-0.1l-0.2-0.2h-0.1h-0.2l-0.1-0.1h0.2v-0.1V81v-0.1l0,0l0.1,0.1h0.1h0.1l0.1-0.1
	v-0.1l0.1-0.1l0.2-0.1l0.1-0.1h0.1l0.1,0.1v0.1l-0.1,0.1l-0.4,0.2l-0.1,0.1v0.1h0.1l0.3-0.1h0.1l0,0v0.1l0,0l0.1-0.1l0,0v0.1v0.1
	l-0.1,0.1h0.1h0.1l0.1-0.1l0.1-0.2h0.1l0,0l-0.1,0.1h0.1l0.1-0.1V81l0.1-0.1l0.1-0.1h0.1h0.1h0.1h0.3h0.2h0.1v0.1L119.1,81.2z
	 M234.1,214.2l-0.1-0.1h-0.2h-0.4l-0.1-0.1l-0.1-0.1H233l0,0h-0.1l-0.1-0.1v-0.1v-0.1h0.1h0.2h0.1v0.1v0.1h0.1h0.2h0.2l0.2,0.1
	l0.1,0.1l0.1,0.1l0,0V214.2z M240.9,214.3h-0.2l0,0h-0.1l-0.1-0.1h-0.1h-0.1l0,0l0,0l0,0l-0.2,0.2l0,0l0,0l-0.1,0.1l0,0v0.1l0,0l0,0
	l0,0v0.2v0.1v0.1l0.1,0.1l0.1,0.1h0.1h0.1h0.2l0,0h0.1l0.1,0.1h-0.2l-0.4,0.1h-0.1l-0.3-0.3l-0.1-0.1v-0.2v-0.2l0,0l0.3-0.5
	l-0.2-0.3v-0.1l0.1-0.1h0.1l0.2,0.1h0.1h0.1h0.1h0.2l0.1,0.2h0.1h0.1h0.1h0.1l0.1,0.1L240.9,214.3z M253.4,200l-0.3,0.1l-0.1,0.1
	v0.1l0.1,0.1v0.1H253h-0.1l0,0l-0.1-0.3v-0.1l-0.1,0.3l-0.1,0.1h-0.1v-0.2l0.1-0.3l0,0l0,0l0,0h0.1h0.1L253.4,200l0.1-0.1L253.4,200
	z M255,191.4l-0.2,0.1h-0.1h-0.1h-0.1l-0.1,0.1h-0.1l-0.1-0.1l-0.1-0.1l-0.1-0.1h-0.2v0.2l0.1,0.2l0.1,0.1l0.3,0.2l0,0v0.1h-0.1
	h-0.1L254,192l-0.1,0.1v0.1v0.1l0.1,0.1h0.1h0.2h0.1v0.1v0.1l0,0l0,0v0.5v0.1l-0.1,0.1h-0.1v-0.1v-0.1v-0.2v-0.2v-0.1l-0.1-0.1h-0.3
	l-0.1-0.1l0.1-0.1v-0.1l-0.1-0.1l-0.1,0.1l-0.1-0.2v-0.1l0,0l-0.1,0.1h-0.1v-0.1v-0.1l0.1-0.1l0.2-0.1l0.1-0.2l0.1-0.1l0.1-0.1h0.1
	h0.1h0.1h0.1h0.1V191l0.1-0.2l0.1-0.2l0.1-0.1l-0.1,0.5v0.2h0.1l0.1-0.1l0.1,0.1L255,191.4z"/>
</svg>
