<?xml version="1.0" encoding="UTF-8"?>
<svg width="201px" height="201px" viewBox="0 0 201 201" version="1.1" xmlns="http://www.w3.org/2000/svg" xmlns:xlink="http://www.w3.org/1999/xlink">
    <title>Rest of the World</title>
    <g id="Page-1" stroke="none" stroke-width="1" fill="none" fill-rule="evenodd">
        <g id="Artboard" transform="translate(-2.000000, -3.000000)" fill-rule="nonzero">
            <g id="globe" transform="translate(2.000000, 3.000000)">
                <path d="M200.5,100.233 C200.5,155.337 155.827,200.01 100.72,200.01 C45.613,200.01 0.937,155.338 0.937,100.233 L0.937,100.233 C0.937,45.126 45.612,0.453 100.72,0.453 C155.828,0.453 200.5,45.126 200.5,100.233 Z" id="Shape" stroke="#FFFFFF" stroke-width="0.75" fill="#000000"></path>
                <path d="M93.171,194.174 C92.666,194.098 92.233,193.852 92.202,193.637 C92.175,193.417 92.139,193.085 92.117,192.895 C92.063,192.431 89.727,190.385 88.194,189.457 C87.42,188.993 86.8,188.28 86.546,187.567 C86.317,186.937 86.009,186.42 85.862,186.42 C85.718,186.42 85.601,186.205 85.601,185.941 C85.601,185.674 85.284,185.24 84.898,184.964 C84.515,184.697 84.295,184.315 84.417,184.119 C84.554,183.899 84.439,183.841 84.119,183.96 C83.741,184.109 83.604,183.94 83.604,183.353 C83.604,182.845 83.03,181.949 82.068,180.938 C80.481,179.291 79.8,177.266 80.518,176.353 C80.701,176.124 80.945,175.528 81.067,175.028 C81.187,174.53 81.734,173.788 82.278,173.382 C83.46,172.51 83.494,172.188 82.571,170.625 C82.185,169.971 81.958,169.212 82.068,168.926 C82.175,168.648 81.646,167.144 80.889,165.596 C79.868,163.492 79.041,162.339 77.647,161.065 C75.965,159.532 74.278,157.212 74.278,156.429 C74.278,156.27 74.505,156.131 74.778,156.131 C75.117,156.131 75.281,155.784 75.288,155.052 C75.295,154.456 75.517,153.68 75.788,153.323 C76.657,152.171 76.144,149.809 75.222,150.725 C74.995,150.956 74.617,151.14 74.375,151.14 C73.762,151.14 73.838,150.163 74.473,149.921 C75.437,149.55 74.236,149.152 72.115,149.143 C71.016,149.138 69.949,149.021 69.744,148.889 C69.539,148.749 68.975,147.864 68.499,146.913 C67.737,145.402 67.461,145.15 66.37,144.945 C64.695,144.631 62.64,144.635 59.629,144.958 C57.288,145.212 57.024,145.17 55.466,144.335 C54.177,143.647 53.159,143.402 50.971,143.259 C47.731,143.041 47.46,142.87 44.55,139.157 C43.615,137.968 42.167,136.366 41.335,135.593 C40.341,134.67 39.946,134.101 40.19,133.928 C40.786,133.513 40.334,131.674 39.37,130.59 C38.884,130.043 38.296,129.316 38.066,128.974 C37.834,128.625 37.341,127.893 36.97,127.348 C36.47,126.606 36.36,126.093 36.538,125.351 C36.672,124.799 36.794,123.606 36.802,122.69 C36.814,121.628 37.012,120.849 37.349,120.527 C38.05,119.863 38.738,118.198 38.313,118.198 C38.135,118.198 37.988,117.749 37.988,117.197 C37.988,116.65 38.117,116.201 38.276,116.201 C38.435,116.201 38.547,116.463 38.527,116.782 C38.437,118.091 39.101,117.588 39.223,116.253 C39.313,115.288 39.24,114.878 39.006,115.027 C38.562,115.298 38.557,115.371 39.152,112.542 C39.557,110.61 39.916,109.863 41.069,108.525 C41.848,107.62 42.746,106.799 43.066,106.697 C43.388,106.594 43.647,106.292 43.647,106.018 C43.647,105.134 44.658,103.969 45.59,103.784 C46.108,103.68 46.706,103.23 46.962,102.754 C47.316,102.095 47.589,101.951 48.192,102.1 C48.673,102.225 48.976,102.152 48.976,101.914 C48.976,101.704 49.162,101.56 49.391,101.6 C49.62,101.636 50.033,101.571 50.307,101.454 C50.58,101.339 51.198,101.104 51.674,100.929 C52.343,100.685 52.59,100.314 52.751,99.332 C53.032,97.562 55.031,95.528 57.001,95.006 C58.869,94.513 60.263,92.787 60.033,91.244 C59.933,90.553 59.699,90.245 59.276,90.245 C58.942,90.245 58.578,90.094 58.465,89.913 C58.35,89.73 57.969,89.579 57.611,89.579 C56.844,89.579 56.815,89.31 57.477,88.429 C57.79,88.016 57.897,87.408 57.775,86.759 C57.624,85.946 57.792,85.47 58.6,84.454 C59.657,83.126 60.287,81.41 60.292,79.859 C60.294,79.083 60.487,78.904 61.659,78.587 C62.792,78.284 63.121,78.309 63.597,78.741 C63.914,79.027 64.395,79.261 64.664,79.261 C64.935,79.261 65.301,79.412 65.482,79.591 C65.66,79.769 66.554,80.145 67.462,80.421 C69.049,80.904 69.142,80.897 69.689,80.24 C70.004,79.862 70.36,79.036 70.475,78.409 C70.726,77.076 70.392,74.94 69.933,74.94 C69.76,74.94 69.616,74.732 69.616,74.474 C69.616,74.218 69.391,73.925 69.116,73.817 C68.825,73.705 68.618,73.207 68.618,72.618 C68.618,71.666 68.691,71.61 69.922,71.61 C70.642,71.61 71.311,71.798 71.419,72.027 C71.524,72.256 71.517,72.081 71.407,71.644 C71.248,71.014 71.317,70.887 71.722,71.043 C72.005,71.153 72.298,71.063 72.379,70.843 C72.474,70.57 72.731,70.631 73.197,71.048 C73.842,71.619 73.942,71.622 75.16,71.087 L76.444,70.521 L75.277,70.23 C74.637,70.071 72.989,69.883 71.615,69.81 C70.24,69.742 68.854,69.666 68.536,69.649 C67.633,69.595 67.85,69.056 68.866,68.829 C69.371,68.717 70.082,68.392 70.45,68.109 C70.99,67.689 71.026,67.54 70.65,67.306 C70.037,66.93 70.433,65.956 71.202,65.956 C71.646,65.956 71.805,65.709 71.795,65.043 C71.785,64.24 71.898,64.14 72.696,64.225 C73.507,64.308 73.607,64.213 73.575,63.392 C73.553,62.826 73.477,62.691 73.385,63.043 C73.302,63.365 73.004,63.624 72.723,63.624 C72.408,63.624 72.284,63.436 72.398,63.131 C72.557,62.718 72.481,62.704 71.934,63.046 C71.575,63.273 71.28,63.769 71.28,64.154 C71.28,64.537 71.019,65.082 70.697,65.362 C70.023,65.95 67.252,66.426 66.283,66.119 C65.292,65.804 65.409,64.371 66.464,63.888 C66.967,63.661 67.24,63.319 67.135,63.048 C66.874,62.369 67.955,60.895 68.549,61.119 C68.82,61.226 69.32,61.065 69.653,60.76 C70.005,60.443 70.593,60.279 71.057,60.367 C71.592,60.47 71.982,60.313 72.239,59.908 C72.476,59.53 72.493,59.298 72.285,59.298 C71.694,59.298 71.924,58.634 72.534,58.595 C73.088,58.556 73.088,58.549 72.534,58.405 C71.75,58.2 71.799,57.834 72.737,56.821 C73.543,55.949 74.614,55.681 74.614,56.347 C74.614,56.611 74.758,56.603 75.097,56.318 C75.363,56.098 75.749,56.018 75.951,56.145 C76.151,56.27 76.615,56.106 76.972,55.781 C77.492,55.31 77.707,55.276 78.032,55.605 C78.359,55.932 78.215,56.22 77.356,56.994 C76.421,57.836 76.362,57.971 76.939,57.971 C77.823,57.971 77.823,59.009 76.939,59.804 C76.168,60.502 76.255,61.633 77.31,64.553 C78.033,66.567 78.147,68.825 77.527,69.043 C77.298,69.126 77.21,69.299 77.329,69.429 C77.7,69.832 79.455,68.719 80.4,67.473 C81.218,66.401 81.457,66.289 82.932,66.289 C84.729,66.289 84.785,66.218 85.102,63.662 C85.351,61.68 85.629,61.282 87.126,60.769 C88.12,60.425 88.466,60.417 88.664,60.727 C88.813,60.961 88.923,60.678 88.923,60.048 C88.93,58.854 88.454,58.666 87.412,59.457 C87.056,59.726 86.316,59.95 85.764,59.955 C84.28,59.97 83.828,59.025 84.114,56.515 C84.424,53.82 84.947,52.89 86.577,52.157 C87.324,51.82 87.932,51.427 87.932,51.285 C87.932,51.139 88.459,50.831 89.104,50.601 C89.893,50.315 90.664,49.615 91.46,48.457 C92.114,47.512 93.008,46.545 93.452,46.311 C93.894,46.069 94.197,45.818 94.121,45.74 C94.045,45.664 93.657,45.779 93.259,45.991 C92.861,46.203 92.456,46.299 92.358,46.201 C92.094,45.935 94.257,44.031 95.651,43.308 C96.325,42.959 96.967,42.522 97.084,42.336 C97.199,42.148 97.733,41.994 98.273,41.994 C98.81,41.994 99.252,41.874 99.252,41.73 C99.252,41.337 101.239,40.739 102.631,40.712 C103.481,40.695 104.109,40.934 104.729,41.51 C105.217,41.962 105.833,42.328 106.096,42.328 C106.362,42.328 106.579,42.479 106.579,42.662 C106.579,42.845 106.874,42.994 107.238,42.994 C108.417,42.994 112.165,44.727 112.551,45.452 C112.768,45.85 113.29,46.175 113.772,46.204 C114.548,46.25 114.57,46.209 114.091,45.679 C113.806,45.362 113.571,44.854 113.571,44.549 C113.571,44.241 113.417,43.99 113.236,43.99 C113.053,43.99 112.902,43.751 112.902,43.455 C112.902,43.042 113.151,42.952 113.986,43.074 C114.579,43.155 115.329,43.335 115.646,43.474 C116.073,43.66 116.537,43.371 117.443,42.368 C118.231,41.487 119.056,40.935 119.779,40.798 C121.916,40.4 120.666,38.996 118.397,39.25 C117.506,39.35 116.644,39.218 115.978,38.872 C115.101,38.42 114.911,38.096 114.743,36.755 C114.633,35.886 114.457,34.799 114.354,34.343 C113.949,32.514 114.132,31.582 115.026,30.932 C115.506,30.58 115.905,30.07 115.905,29.797 C115.905,29.502 116.141,29.348 116.486,29.419 C116.942,29.509 117.04,29.79 116.94,30.693 C116.867,31.328 116.794,32.946 116.781,34.294 C116.755,36.452 116.84,36.816 117.504,37.353 C118.495,38.154 121.396,38.698 123.066,38.395 L124.399,38.151 L123.481,37.355 C122.978,36.913 122.568,36.256 122.568,35.89 C122.568,35.524 122.358,34.992 122.104,34.701 C121.848,34.413 121.533,33.668 121.401,33.048 C121.172,31.966 121.196,31.932 122.009,32.135 C122.746,32.318 122.868,32.23 122.961,31.437 L123.065,30.524 L123.812,31.332 C124.42,31.984 124.562,32.033 124.562,31.576 C124.562,31.268 124.398,31.014 124.193,31.014 C123.976,31.014 123.885,30.667 123.981,30.181 C124.066,29.724 124.022,29.348 123.88,29.348 C123.736,29.348 123.526,28.713 123.409,27.934 C122.981,25.117 122.852,24.758 122.213,24.589 C121.3,24.35 121.383,23.363 122.316,23.349 C123.044,23.337 123.045,23.327 122.396,22.963 C122.033,22.755 121.62,22.421 121.488,22.223 C121.32,21.972 121.242,21.969 121.237,22.216 C121.232,22.411 120.272,22.763 119.103,22.995 C116.859,23.442 116.139,23.288 115.213,22.158 C114.776,21.631 114.83,21.601 115.877,21.806 C116.666,21.965 117.259,21.872 117.823,21.503 C118.306,21.186 118.951,21.051 119.434,21.173 C119.91,21.293 120.235,21.227 120.235,21.017 C120.235,20.78 120.735,20.731 121.685,20.873 C122.839,21.044 123.176,20.983 123.34,20.563 C123.591,19.904 124.582,19.892 126.641,20.517 C128.176,20.986 128.223,20.978 128.223,20.3 C128.223,19.917 128.484,19.409 128.806,19.162 C129.336,18.759 129.309,18.718 128.493,18.708 C127.429,18.696 127.189,18.403 127.446,17.421 C127.599,16.838 127.89,16.693 129.01,16.674 C129.767,16.657 130.199,16.571 129.972,16.479 C129.741,16.386 129.555,16.105 129.555,15.849 C129.555,14.648 126.137,13.696 124.977,14.572 C123.798,15.466 121.564,14.904 121.564,13.713 C121.564,13.361 121.416,12.985 121.232,12.873 C120.634,12.504 120.88,11.708 121.598,11.708 C122.016,11.708 122.365,11.974 122.47,12.372 C122.565,12.736 122.802,13.039 122.994,13.039 C123.187,13.039 123.617,13.288 123.946,13.586 C124.508,14.091 124.566,14.091 124.759,13.586 C124.873,13.288 125.176,13.039 125.433,13.039 C125.985,13.039 126.045,12.507 125.536,12.189 C125.336,12.067 125.248,11.689 125.336,11.352 C125.45,10.913 125.17,10.544 124.364,10.068 C123.226,9.397 122.877,8.728 123.648,8.698 C124.327,8.671 121.175,7.153 119.906,6.889 C119.263,6.757 117.091,5.854 115.077,4.882 C113.06,3.91 111.075,3.017 110.663,2.895 C109.82,2.648 109.647,2.055 110.411,2.055 C110.684,2.055 110.912,1.904 110.912,1.723 C110.912,1.54 111.137,1.391 111.41,1.391 C111.685,1.391 111.908,1.54 111.908,1.723 C111.908,1.904 112.32,2.057 112.826,2.057 C113.326,2.059 114.19,2.296 114.74,2.587 C116.083,3.293 119.234,3.629 119.234,3.066 C119.234,2.805 119.454,2.734 119.818,2.876 C120.137,2.998 122.123,3.464 124.229,3.916 C126.333,4.363 128.358,4.871 128.724,5.041 C130.362,5.81 132.02,6.381 132.611,6.381 C132.965,6.381 133.697,6.61 134.234,6.889 C135.118,7.346 135.215,7.346 135.215,6.889 C135.215,6.611 135.369,6.381 135.552,6.381 C135.733,6.381 135.884,6.608 135.884,6.879 C135.884,7.152 136.146,7.379 136.47,7.379 C136.795,7.379 137.879,7.692 138.885,8.075 C139.888,8.456 141.243,8.881 141.895,9.017 C143.228,9.29 146.537,10.999 146.537,11.417 C146.537,11.795 142.743,10.953 139.713,9.901 C139.347,9.772 139.609,10.013 140.292,10.436 C140.975,10.859 141.539,11.395 141.539,11.625 C141.542,11.852 141.698,12.04 141.884,12.04 C142.07,12.04 142.861,12.619 143.632,13.332 C144.405,14.045 146.612,15.563 148.536,16.704 C150.46,17.847 152.501,19.226 153.077,19.768 C153.736,20.391 154.205,20.62 154.345,20.393 C154.669,19.868 154.257,19.363 153.686,19.582 C153.224,19.758 153.146,19.636 153.066,18.615 C153.048,18.386 152.804,18.024 152.534,17.812 C151.535,17.033 152.512,17.016 154.746,17.763 C157.072,18.544 157.761,19.013 157.148,19.389 C156.945,19.518 157.033,19.689 157.363,19.819 C157.671,19.936 158.063,19.944 158.237,19.836 C158.413,19.726 158.761,19.809 159.018,20.019 C159.274,20.234 159.943,20.417 160.507,20.432 C161.251,20.456 161.508,20.608 161.445,20.996 C161.391,21.343 161.608,21.531 162.082,21.538 C162.946,21.55 166.188,24.187 166.188,24.875 C166.188,25.551 165.726,25.468 164.992,24.658 C164.645,24.275 164.062,23.818 163.693,23.642 C162.905,23.266 164.843,25.058 167.756,27.394 C168.949,28.351 170.251,29.784 170.83,30.783 C171.872,32.563 175.883,36.862 177.875,38.332 L179.001,39.165 L177.751,37.456 C176.449,35.674 176.303,35.337 176.813,35.337 C177.252,35.337 182.977,42.959 182.723,43.208 C182.606,43.323 182.284,43.228 182.005,42.996 C181.295,42.405 181.375,42.745 182.164,43.655 C182.82,44.417 183.02,44.986 182.628,44.986 C182.516,44.986 181.653,44.163 180.709,43.157 C179.764,42.154 178.854,41.328 178.689,41.328 C178.523,41.328 178.091,41.067 177.73,40.747 C177.083,40.173 177.083,40.176 177.629,41.245 C177.99,41.946 178.049,42.324 177.805,42.324 C177.598,42.324 177.517,42.561 177.624,42.842 C177.754,43.179 177.69,43.279 177.446,43.123 C176.679,42.654 177.534,43.638 178.464,44.297 L179.406,44.971 L179.292,43.98 C179.108,42.393 179.741,42.833 180.864,45.074 C182.202,47.745 182.521,48.145 182.853,47.606 C183.032,47.32 183.608,47.74 184.716,48.963 C186.523,50.95 187.392,52.244 188.881,55.14 C189.447,56.236 190.224,57.462 190.611,57.857 C191.783,59.051 192.167,59.595 192.667,60.796 C193.302,62.307 193.292,63.088 192.638,62.837 C192.247,62.686 192.199,62.774 192.441,63.218 C192.88,64.046 194.147,70.218 194.147,71.533 C194.147,72.146 194.472,73.349 194.87,74.209 C195.679,75.962 196.113,79.263 195.534,79.263 C195.337,79.263 195.007,78.628 194.806,77.849 C194.208,75.535 194.093,75.212 193.932,75.378 C193.847,75.463 193.994,76.696 194.267,78.125 C194.716,80.498 194.879,80.833 196.22,82.073 C198.1,83.809 198.671,85.838 198.969,91.829 C199.159,95.701 199.125,96.238 198.663,96.238 C198.378,96.238 198.141,96.013 198.141,95.74 C198.141,95.464 197.916,95.24 197.646,95.24 C197.373,95.24 197.148,95.015 197.148,94.744 C197.148,93.997 196.559,94.141 196.303,94.947 C196.03,95.809 196.425,99.237 196.796,99.237 C196.947,99.237 197.164,99.877 197.281,100.655 C197.435,101.658 197.706,102.176 198.204,102.403 C199.682,103.082 200.445,109.21 199.677,114.203 C199.408,115.936 199.028,117.408 198.832,117.476 C198.637,117.538 198.476,117.808 198.476,118.062 C198.476,118.324 198.325,118.536 198.141,118.536 C197.958,118.536 197.809,118.309 197.809,118.033 C197.809,117.403 196.435,114.415 196.076,114.263 C195.639,114.08 195.776,113.477 196.347,113.06 C196.821,112.713 196.784,112.603 196.012,112.1 C194.908,111.375 194.892,110.235 195.963,109.229 C196.654,108.58 196.871,108.526 197.304,108.882 C197.589,109.119 197.914,109.219 198.032,109.102 C198.369,108.763 197.104,104.561 196.665,104.561 C196.436,104.561 196.018,103.456 195.688,101.983 C194.694,97.528 194.411,96.463 193.696,94.413 L192.993,92.416 L192.651,94.22 C192.321,95.936 191.628,96.81 191.349,95.856 C191.279,95.612 191.046,94.774 190.836,93.998 C190.624,93.219 190.326,92.584 190.175,92.584 C190.019,92.584 189.322,92.059 188.622,91.419 C187.924,90.774 187.267,90.254 187.167,90.259 C186.815,90.269 184.818,94.988 184.818,95.803 C184.818,96.25 184.608,97.317 184.354,98.178 C183.802,100.041 183.091,104.084 183.125,105.175 C183.138,105.603 182.788,106.701 182.349,107.621 C181.61,109.167 181.582,109.377 182.025,110.427 C182.284,111.054 182.515,112.273 182.533,113.139 C182.574,115.019 183.046,116.775 183.609,117.123 C184.442,117.636 185.482,119.506 185.482,120.49 C185.482,121.755 184.888,123.099 184.214,123.356 C183.535,123.617 183.208,123.031 182.943,121.097 C182.704,119.332 182.279,119.393 181.669,121.283 C181.4,122.108 181.129,122.367 180.514,122.367 C179.877,122.367 179.513,121.989 178.764,120.536 C178.243,119.533 177.67,118.656 177.485,118.598 C177.299,118.535 176.782,117.712 176.333,116.767 C175.884,115.823 175.151,114.663 174.712,114.192 C174.273,113.723 173.811,113.01 173.682,112.612 C173.555,112.215 173.299,111.887 173.108,111.887 C172.919,111.887 172.84,111.682 172.938,111.428 C173.036,111.174 172.754,110.434 172.307,109.782 C171.864,109.13 171.504,108.446 171.504,108.263 C171.504,108.077 170.959,107.999 170.244,108.084 C169.399,108.187 168.562,108.019 167.681,107.566 C166.958,107.198 166.172,106.895 165.938,106.895 C165.704,106.895 165.508,106.682 165.508,106.423 C165.508,106.162 165.049,105.85 164.487,105.728 C163.925,105.603 163.386,105.289 163.286,105.027 C163.183,104.766 162.803,104.387 162.436,104.195 C161.912,103.917 161.577,103.972 160.893,104.47 C160.413,104.817 159.49,105.315 158.852,105.569 C158.21,105.831 157.395,106.306 157.036,106.641 C156.675,106.97 156.228,107.183 156.038,107.115 C155.845,107.049 155.015,107.19 154.194,107.437 C152.329,107.999 150.457,108.018 149.931,107.493 C149.345,106.91 149.402,108.011 150.019,109.2 C150.581,110.289 151.269,110.633 152.332,110.367 C152.793,110.25 153.56,110.462 154.334,110.919 C155.503,111.605 155.574,111.736 155.376,112.853 C155.262,113.512 155.083,114.611 154.979,115.299 C154.864,116.056 154.608,116.546 154.325,116.546 C154.012,116.546 153.858,116.951 153.858,117.799 C153.858,118.688 153.67,119.168 153.194,119.466 C152.828,119.694 152.525,120.194 152.525,120.572 C152.525,120.992 152.256,121.339 151.844,121.446 C151.431,121.553 151.087,121.993 150.975,122.551 C150.86,123.13 150.518,123.547 150.079,123.662 C148.971,123.945 146.925,125.793 146.808,126.618 C146.743,127.08 146.071,127.773 145.038,128.449 C144.122,129.05 143.017,129.868 142.587,130.268 C141.591,131.188 138.505,133.183 138.075,133.183 C137.894,133.183 137.343,133.571 136.846,134.047 C136.297,134.576 135.521,134.931 134.857,134.962 C133.88,135.009 133.69,134.859 133.013,133.517 C132.071,131.642 131.829,130.942 131.714,129.721 C131.651,129.044 131.111,128.285 129.944,127.223 C129.021,126.381 128.181,125.387 128.074,125.004 C127.969,124.623 127.395,124.103 126.804,123.839 C125.966,123.471 125.622,123.031 125.268,121.869 C124.501,119.356 123.828,118.202 122.993,117.994 C122.561,117.882 121.982,117.364 121.709,116.835 C121.434,116.308 121.084,115.875 120.926,115.875 C120.77,115.875 120.547,115.538 120.435,115.128 C120.079,113.849 118.116,111.822 117.471,112.069 C117.158,112.188 116.903,112.513 116.903,112.792 C116.903,113.432 118.629,116.464 119.559,117.46 C119.947,117.872 120.181,118.346 120.079,118.512 C119.835,118.908 120.219,119.869 120.624,119.869 C121.559,119.869 122.76,121.9 123.08,124.029 C123.256,125.214 123.512,125.653 124.271,126.102 C124.803,126.416 125.565,127.352 125.958,128.179 C126.354,129.004 126.84,129.795 127.037,129.927 C127.276,130.093 127.262,130.174 126.983,130.176 C126.761,130.179 126.666,130.408 126.771,130.682 C127.025,131.338 127.557,131.322 127.557,130.658 C127.557,130.308 127.801,130.17 128.304,130.243 C128.797,130.311 129.053,130.577 129.053,131.016 C129.053,131.426 129.59,132.039 130.462,132.625 C132.571,134.031 133.743,135.237 133.997,136.248 C134.36,137.723 135.315,137.998 137.143,137.171 C138.005,136.78 138.933,136.318 139.206,136.15 C139.479,135.979 139.931,135.747 140.202,135.637 C142.367,134.775 144.413,133.7 144.633,133.31 C144.779,133.054 145.193,132.844 145.549,132.844 C146.034,132.844 146.198,133.073 146.198,133.774 C146.198,134.287 146.384,134.897 146.613,135.127 C146.947,135.464 146.918,135.61 146.459,135.869 C146.146,136.045 145.971,136.396 146.068,136.65 C146.164,136.902 145.915,137.747 145.514,138.533 C145.116,139.314 144.425,140.913 143.988,142.088 C142.733,145.42 141.122,147.622 136.755,151.968 C130.72,157.982 127.543,161.797 128.571,161.797 C129.091,161.797 128.923,163.071 128.387,163.189 C127.952,163.282 127.948,163.409 128.358,164.195 C128.893,165.22 128.871,165.836 128.273,166.558 C127.711,167.232 128.109,168.682 128.91,168.887 C129.481,169.038 129.543,169.359 129.496,171.997 L129.442,174.941 L128.07,176.269 C127.292,177.026 125.951,177.866 124.979,178.212 C124.032,178.544 123.073,179.042 122.845,179.314 C122.616,179.587 121.854,180.105 121.144,180.466 C119.728,181.194 119.295,181.874 119.842,182.531 C120.265,183.044 119.977,185.275 119.432,185.707 C119.227,185.866 118.292,186.249 117.357,186.552 C115.926,187.021 115.563,187.314 115.082,188.373 C114.511,189.643 114.401,189.726 109.797,192.157 C106.977,193.649 105.121,194.008 99.418,194.172 C96.484,194.254 93.674,194.257 93.171,194.174 Z M119.287,171.476 C119.011,170.778 118.628,172.68 118.857,173.61 C118.986,174.123 119.077,174.02 119.259,173.141 C119.39,172.516 119.401,171.767 119.287,171.476 Z M112.233,166.827 C112.233,166.666 111.923,166.451 111.547,166.353 C110.985,166.207 110.934,166.26 111.256,166.646 C111.696,167.177 112.233,167.276 112.233,166.827 Z M117.033,159.137 C117.715,159.137 118.659,157.882 118.429,157.282 C118.273,156.872 117.99,156.797 117.309,156.965 C116.808,157.087 116.344,157.329 116.288,157.497 C116.225,157.668 115.98,157.805 115.738,157.805 C115.502,157.805 115.243,158.252 115.165,158.794 C115.045,159.587 115.147,159.792 115.709,159.873 C116.088,159.927 116.446,159.785 116.505,159.556 C116.563,159.325 116.804,159.137 117.033,159.137 Z M197.785,114.757 C197.468,114.464 197.421,114.518 197.59,114.989 C197.707,115.323 197.824,115.85 197.849,116.153 C197.878,116.459 197.963,116.353 198.044,115.922 C198.127,115.489 198.007,114.965 197.785,114.757 Z M197.47,113.712 C197.47,113.075 197.263,113.075 197.019,113.712 C196.912,113.988 196.967,114.213 197.148,114.213 C197.326,114.213 197.47,113.988 197.47,113.712 Z M145.534,111.261 C145.539,110.792 145.586,110.785 145.851,111.212 C146.269,111.871 146.586,111.518 147.848,108.971 C148.414,107.824 149.025,106.891 149.201,106.891 C149.377,106.891 149.521,106.705 149.514,106.476 C149.507,106.245 149.126,106.491 148.66,107.018 C147.598,108.222 145.481,108.559 143.941,107.763 C143.372,107.47 142.676,107.319 142.395,107.426 C141.897,107.614 139.534,105.488 139.534,104.85 C139.534,104.692 139.376,104.562 139.18,104.562 C138.984,104.562 138.921,104.414 139.034,104.23 C139.146,104.047 139.08,103.898 138.885,103.898 C138.693,103.898 138.529,104.233 138.527,104.645 C138.522,105.25 138.461,105.299 138.2,104.894 C137.922,104.464 137.875,104.469 137.87,104.951 C137.868,105.256 137.68,105.588 137.45,105.688 C137.165,105.81 137.269,106.042 137.785,106.42 C138.195,106.723 138.532,107.174 138.532,107.421 C138.532,107.672 138.742,107.787 139.008,107.685 C139.289,107.575 139.721,107.88 140.085,108.444 C140.417,108.962 140.912,109.585 141.19,109.829 C141.466,110.07 141.532,110.19 141.335,110.09 C141.137,109.995 140.971,110.108 140.971,110.347 C140.971,110.581 141.186,110.774 141.443,110.774 C141.76,110.774 141.865,110.513 141.767,109.991 C141.638,109.319 141.718,109.239 142.322,109.422 C143.222,109.695 143.164,109.627 143.51,110.823 C143.713,111.536 143.681,111.897 143.415,112.012 C143.142,112.124 143.163,112.266 143.498,112.497 C144.102,112.909 145.524,112.045 145.534,111.261 Z M94.587,106.225 C94.733,104.921 94.9,104.655 95.918,104.147 C97.429,103.395 98.757,103.408 99.534,104.186 C99.876,104.528 100.735,104.916 101.451,105.048 C102.161,105.182 102.893,105.409 103.077,105.553 C103.26,105.699 103.933,105.9 104.576,106.005 C105.216,106.108 106.492,106.332 107.405,106.505 C108.829,106.769 109.205,106.725 109.962,106.186 C110.89,105.524 112.555,105.366 114.581,105.734 C116.114,106.015 116.319,105.744 117.198,102.212 C118.064,98.731 117.852,96.814 116.578,96.633 C116.124,96.57 115.675,96.733 115.509,97.024 C115.079,97.788 113.299,98.071 112.625,97.483 C111.741,96.707 110.569,96.445 110.569,97.022 C110.569,97.979 108.821,98.209 107.971,97.361 C107.458,96.848 107.405,96.863 107.237,97.586 C107.053,98.375 106.241,98.931 106.241,98.272 C106.241,98.072 105.93,97.598 105.55,97.22 C105.172,96.842 104.947,96.307 105.05,96.031 C105.192,95.662 105.074,95.589 104.576,95.75 C104.102,95.901 103.914,95.806 103.914,95.418 C103.914,95.123 104.063,94.969 104.246,95.081 C104.427,95.193 104.578,95.13 104.578,94.935 C104.578,94.74 104.349,94.581 104.063,94.581 C103.663,94.581 103.567,94.247 103.625,93.089 C103.669,92.269 103.601,91.495 103.474,91.37 C103.345,91.241 103.243,91.316 103.243,91.529 C103.243,91.742 103.018,91.915 102.747,91.915 C102.474,91.915 102.249,91.693 102.249,91.417 C102.249,91.146 102.398,90.919 102.581,90.919 C102.765,90.919 102.913,90.67 102.913,90.367 C102.913,89.928 102.786,89.969 102.259,90.575 C101.893,90.99 101.134,91.427 100.562,91.544 L99.524,91.756 L100.388,92.686 C100.876,93.213 101.418,93.514 101.636,93.382 C101.846,93.25 101.931,93.287 101.824,93.458 C101.717,93.629 102.234,94.425 102.971,95.226 C104.121,96.469 104.236,96.72 103.772,96.979 C103.474,97.143 103.318,97.421 103.423,97.592 C103.53,97.763 103.477,97.905 103.301,97.905 C103.125,97.905 102.896,97.683 102.793,97.412 C102.686,97.131 102.383,97.004 102.092,97.117 C101.729,97.256 101.579,97.105 101.579,96.602 C101.579,95.748 100.632,95.291 100.219,95.945 C100.06,96.201 99.924,96.821 99.919,97.324 C99.919,97.827 99.765,98.237 99.582,98.237 C99.401,98.237 99.25,98.12 99.25,97.976 C99.25,97.834 98.801,97.546 98.254,97.341 C97.58,97.087 97.253,96.736 97.253,96.269 C97.253,95.886 97.038,95.573 96.774,95.573 C96.081,95.573 95.761,94.882 96.295,94.543 C96.629,94.335 96.642,94.252 96.339,94.25 C96.11,94.248 95.924,93.952 95.924,93.598 C95.924,93.242 95.77,92.858 95.585,92.744 C94.955,92.353 94.279,90.232 94.474,89.255 C94.63,88.488 94.481,88.117 93.764,87.453 C93.271,86.994 92.353,86.45 91.73,86.242 C91.107,86.039 90.597,85.71 90.597,85.517 C90.597,85.327 90.26,84.841 89.85,84.435 C88.612,83.234 87.931,82.282 87.931,81.757 C87.931,81 87.279,81.171 86.954,82.013 C86.732,82.592 86.847,82.953 87.467,83.612 C87.904,84.081 88.263,84.698 88.263,84.982 C88.263,85.785 89.567,87.255 90.287,87.255 C90.639,87.255 90.927,87.453 90.927,87.69 C90.927,87.932 91.606,88.601 92.428,89.184 C93.947,90.256 94.161,90.693 93.602,91.579 C93.338,91.999 93.182,91.957 92.589,91.32 C92.203,90.907 91.735,90.663 91.547,90.78 C91.315,90.922 91.322,91.107 91.567,91.351 C91.765,91.551 91.931,91.969 91.931,92.279 C91.931,93.065 90.246,94.911 89.526,94.911 C89.089,94.911 88.935,95.172 88.935,95.91 C88.935,97.016 88.308,97.231 87.485,96.408 C87.209,96.132 86.884,95.91 86.762,95.91 C86.254,95.91 84.606,94.499 84.606,94.062 C84.606,93.471 86.203,93.046 86.667,93.51 C87.084,93.925 89.328,93.63 89.687,93.112 C90.09,92.533 89.643,91.257 88.767,90.473 C86.963,88.864 86.206,88.254 85.996,88.246 C85.871,88.241 85.332,87.643 84.795,86.915 C84.258,86.185 83.621,85.592 83.381,85.592 C83.141,85.592 82.944,85.441 82.944,85.258 C82.944,85.075 83.103,84.926 83.303,84.926 C83.786,84.926 83.32,83.53 82.678,83.061 C82.295,82.783 81.916,82.817 81.145,83.2 C79.182,84.174 78.957,84.262 78.508,84.262 C78.259,84.262 77.578,84.023 76.992,83.732 C75.691,83.083 74.958,83.315 74.958,84.379 C74.958,85.338 74.558,85.692 72.795,86.3 C71.04,86.903 69.231,88.524 69.472,89.274 C69.67,89.899 67.783,92.045 67.299,91.747 C67.145,91.652 66.796,91.801 66.518,92.079 C65.944,92.653 65.041,92.719 63.859,92.267 C62.76,91.85 61.637,92.186 61.637,92.934 C61.637,93.674 61.959,93.893 63.19,93.986 C63.71,94.025 64.32,94.237 64.547,94.455 C64.82,94.724 65.26,94.76 65.878,94.57 C69.518,93.445 70.329,93.408 76.62,94.121 C77.623,94.236 79.245,94.314 80.214,94.294 C81.447,94.27 82.03,94.401 82.155,94.729 C82.255,94.99 82.548,95.12 82.809,95.02 C83.124,94.898 83.28,95.071 83.28,95.55 C83.28,95.941 83.06,96.343 82.794,96.444 C82.413,96.595 82.389,96.783 82.679,97.35 C83.66,99.257 83.673,99.32 83.226,99.606 C82.979,99.762 82.535,99.889 82.235,99.894 C81.935,99.894 81.598,100.133 81.485,100.416 C81.373,100.714 81.429,100.846 81.622,100.724 C81.803,100.612 82.457,101.056 83.072,101.708 C83.692,102.364 84.515,102.895 84.918,102.895 C86.246,102.895 88.609,104.186 88.609,104.909 C88.609,105.329 88.948,105.703 89.522,105.925 C90.027,106.118 91.114,106.623 91.937,107.046 C94.011,108.119 94.387,108.007 94.587,106.225 Z M101.143,99.994 C100.615,99.916 100.266,99.681 100.339,99.462 C100.488,99.013 100.537,99.01 102.661,99.372 C105.598,99.879 104.191,100.456 101.143,99.994 Z M112.897,99.882 C112.897,99.401 113.769,98.556 114.013,98.8 C114.12,98.907 114.586,98.746 115.053,98.441 C115.919,97.872 116.205,98.128 115.494,98.837 C115.274,99.057 115.228,99.235 115.391,99.235 C115.552,99.235 115.399,99.457 115.042,99.726 C114.287,100.297 112.897,100.397 112.897,99.882 Z M105.119,99.069 C105.368,98.432 105.576,98.432 105.576,99.069 C105.576,99.345 105.43,99.569 105.254,99.569 C105.075,99.569 105.015,99.347 105.119,99.069 Z M87.26,97.904 C87.26,97.479 87.497,97.479 87.76,97.904 C87.872,98.09 87.806,98.236 87.611,98.236 C87.419,98.236 87.26,98.092 87.26,97.904 Z M80.229,91.691 C80.207,91.537 80.219,91.269 80.258,91.086 C80.297,90.903 80.324,90.136 80.324,89.377 C80.324,88.31 80.446,88.015 80.873,88.049 C81.303,88.083 81.398,87.832 81.32,86.865 C81.244,85.908 81.371,85.564 81.913,85.273 C82.514,84.948 82.597,84.997 82.577,85.664 C82.565,86.084 82.435,86.726 82.291,87.087 C82.142,87.453 82.149,88.086 82.301,88.493 C82.511,89.055 82.189,90.983 81.805,91.457 C81.608,91.698 80.258,91.896 80.229,91.691 Z M72.788,89.606 C72.495,89.132 72.869,88.59 73.486,88.59 C73.774,88.59 73.945,88.822 73.879,89.144 C73.752,89.813 73.088,90.092 72.788,89.606 Z M74.609,88.942 C74.609,88.749 74.76,88.59 74.943,88.59 C75.368,88.59 75.368,88.824 74.943,89.088 C74.758,89.201 74.609,89.135 74.609,88.942 Z M102.282,95.482 C102.009,95.211 101.914,95.248 101.914,95.621 C101.914,96.285 102.36,96.732 102.524,96.234 C102.595,96.024 102.485,95.685 102.282,95.482 Z M139.309,90.834 C139.797,90.475 139.822,90.27 139.465,89.335 C139.238,88.742 138.938,88.256 138.794,88.256 C138.649,88.256 138.532,88.066 138.532,87.834 C138.532,87.6 138.232,86.853 137.866,86.171 C137.5,85.489 137.199,84.723 137.199,84.467 C137.199,84.216 136.972,83.822 136.701,83.593 C136.426,83.366 136.201,82.824 136.201,82.389 C136.201,81.815 136.015,81.6 135.519,81.6 C135.148,81.6 134.464,81.224 134.01,80.767 C133.549,80.308 133.041,79.934 132.882,79.934 C132.721,79.934 132.314,79.587 131.982,79.165 C131.167,78.135 130.351,77.866 129.853,78.469 C129.55,78.83 129.538,79.15 129.799,79.697 C129.994,80.1 130.243,80.805 130.348,81.264 C130.451,81.721 130.649,82.25 130.79,82.436 C131.312,83.142 134.643,85.59 135.079,85.59 C135.331,85.59 135.536,85.815 135.536,86.088 C135.536,86.361 135.304,86.588 135.018,86.588 C134.6,86.588 134.525,86.952 134.603,88.5 C134.693,90.258 134.771,90.426 135.536,90.526 C135.995,90.587 136.513,90.777 136.683,90.941 C137.144,91.386 138.647,91.322 139.309,90.834 Z M107.238,89.921 C107.238,89.738 107.002,89.587 106.72,89.587 C106.435,89.587 106.29,89.738 106.406,89.921 C106.672,90.351 107.238,90.351 107.238,89.921 Z M111.491,87.794 C112.819,86.944 115.895,86.356 115.895,86.952 C115.895,87.142 116.051,87.203 116.242,87.084 C116.433,86.965 116.811,87.05 117.075,87.272 C117.348,87.497 118.525,87.672 119.743,87.672 C121.55,87.672 122.06,87.545 122.724,86.92 C123.722,85.985 123.427,85.282 121.647,84.347 C120.954,83.983 119.565,83.251 118.556,82.711 C116.593,81.666 115.9,81.654 114.508,82.64 C113.429,83.407 112.565,83.448 112.565,82.738 C112.565,82.445 112.255,82.125 111.872,82.025 C111.398,81.9 111.23,81.651 111.343,81.224 C111.457,80.787 111.325,80.604 110.899,80.604 C110.564,80.604 110.215,80.416 110.12,80.189 C109.898,79.647 108.59,81.21 108.58,82.022 C108.572,82.344 108.269,82.864 107.901,83.177 C107.535,83.494 107.237,84.158 107.237,84.671 C107.237,85.179 107.1,85.596 106.941,85.596 C106.379,85.596 106.26,87.078 106.755,87.837 C107.458,88.9 109.792,88.881 111.491,87.794 Z M117.331,80.146 C117.429,79.892 117.351,79.531 117.16,79.34 C116.716,78.893 115.229,79.523 115.229,80.158 C115.229,80.756 117.102,80.744 117.331,80.146 Z M93.068,66.117 C93.854,65.519 94.975,65.485 95.529,66.041 C95.815,66.327 96.015,66.344 96.178,66.1 C96.31,65.905 96.659,65.656 96.962,65.543 C97.311,65.414 97.57,64.823 97.68,63.905 C97.775,63.114 98.119,61.686 98.447,60.729 C98.945,59.276 99.209,58.954 100.061,58.737 C100.955,58.51 100.84,58.459 99.08,58.31 C97.915,58.212 97.027,58.276 96.946,58.469 C96.712,59.031 96.082,59.543 95.335,59.778 C94.585,60.015 94.063,61.06 94.412,61.626 C94.641,61.99 94.024,63.33 93.453,63.709 C93.253,63.846 92.752,63.956 92.34,63.96 C91.566,63.965 91.337,64.434 91.925,64.797 C92.425,65.107 92.321,65.627 91.757,65.627 C91.484,65.627 91.259,65.478 91.259,65.295 C91.259,65.112 90.885,64.963 90.426,64.963 C89.967,64.963 89.593,65.112 89.593,65.295 C89.593,65.478 89.818,65.627 90.091,65.627 C90.367,65.627 90.594,65.856 90.594,66.127 C90.59,66.776 92.202,66.771 93.068,66.117 Z M95.253,62.089 C95.253,61.703 95.48,61.195 95.758,60.964 C96.544,60.305 96.62,60.727 95.904,61.816 C95.329,62.689 95.256,62.721 95.253,62.089 Z M89.238,62.987 C89.629,62.74 89.641,62.54 89.309,61.91 C89.067,61.446 88.977,61.39 89.084,61.759 C89.196,62.135 89.033,62.56 88.681,62.833 C88.024,63.327 88.488,63.461 89.238,62.987 Z M101.125,61.798 C101.413,61.048 100.607,60.196 100.051,60.66 C99.699,60.946 99.692,61.158 100.005,61.661 C100.485,62.431 100.866,62.477 101.125,61.798 Z M114.23,59.325 C114.23,58.873 113.642,58.578 113.432,58.92 C113.232,59.242 113.52,59.64 113.952,59.64 C114.106,59.64 114.23,59.499 114.23,59.325 Z M104.362,57.807 C104.606,57.17 104.435,57.17 103.908,57.807 C103.667,58.095 103.637,58.305 103.833,58.305 C104.019,58.307 104.255,58.083 104.362,57.807 Z M98.002,56.183 C98.278,55.778 98.195,52.318 97.909,52.318 C97.809,52.318 97.272,52.738 96.713,53.248 C95.395,54.452 94.999,55.882 95.822,56.5 C96.45,56.972 97.575,56.811 98.002,56.183 Z M108.237,56.488 C108.237,56.063 107.297,55.309 106.759,55.309 C106.42,55.309 106.562,56.168 106.972,56.574 C107.524,57.128 108.237,57.077 108.237,56.488 Z M100.102,51.115 C101.364,50.151 101.599,49.323 100.602,49.323 C99.95,49.323 98.913,50.138 98.913,50.651 C98.913,50.805 98.823,51.171 98.713,51.457 C98.425,52.206 98.789,52.116 100.102,51.115 Z M110.402,50.319 C110.29,50.138 109.943,49.997 109.633,50.009 C109.171,50.031 109.191,50.085 109.736,50.319 C110.627,50.705 110.637,50.705 110.402,50.319 Z M112.065,48.524 C112.065,47.906 111.872,47.828 110.38,47.828 C108.871,47.828 108.707,47.896 108.822,48.492 C108.926,49.039 109.229,49.166 110.507,49.193 C111.88,49.22 112.065,49.142 112.065,48.524 Z M177.304,42.372 C177.405,42.213 177.275,41.903 177.019,41.691 C176.635,41.374 176.58,41.427 176.729,41.984 C176.923,42.738 177.033,42.809 177.304,42.372 Z M123.928,32.594 C123.601,32.267 123.56,32.308 123.742,32.78 C123.867,33.11 124.053,33.293 124.155,33.19 C124.26,33.09 124.155,32.819 123.928,32.594 Z M162.844,23.239 C162.844,23.173 162.583,22.909 162.263,22.658 C161.736,22.245 161.724,22.258 162.139,22.785 C162.57,23.336 162.844,23.515 162.844,23.239 Z M138.869,9.569 C138.869,9.318 134.751,8.077 134.567,8.275 C134.365,8.495 134.474,8.546 136.872,9.393 C138.203,9.865 138.869,9.923 138.869,9.569 Z M132.106,183.834 C132.033,183.702 131.953,182.984 131.93,182.237 C131.894,181.129 132.075,180.704 132.9,179.913 C133.781,179.073 133.883,178.79 133.703,177.725 C133.464,176.327 134.245,174.442 135.056,174.442 C135.982,174.442 138.557,173.028 139.468,172.025 C143.137,167.958 143.164,167.933 143.65,168.456 C144.299,169.142 144.578,171.656 144.053,172.094 C143.825,172.282 143.54,172.338 143.42,172.221 C143.298,172.099 143.2,172.402 143.2,172.89 C143.2,173.38 143.049,173.779 142.866,173.779 C142.682,173.779 142.534,173.925 142.534,174.106 C142.534,174.492 140.307,178.09 138.371,180.836 C137.358,182.276 136.684,182.865 135.563,183.292 C133.872,183.941 132.302,184.186 132.106,183.834 Z M149.858,175.46 C149.858,175.265 150.006,175.106 150.19,175.106 C150.617,175.106 150.617,175.342 150.19,175.604 C150.007,175.717 149.858,175.655 149.858,175.46 Z M70.944,154.83 C70.944,154.635 71.098,154.476 71.278,154.476 C71.708,154.476 71.708,154.712 71.278,154.974 C71.096,155.089 70.944,155.025 70.944,154.83 Z M15.107,151.896 C11.406,146.118 6.809,135.688 4.575,128.004 C1.02,115.758 -0.313,101.769 0.989,90.316 C1.531,85.567 2.122,85.272 2.031,89.801 C1.867,98.177 1.928,101.219 2.275,101.636 C2.478,101.878 2.817,103.123 3.029,104.4 C3.239,105.679 3.549,106.981 3.715,107.298 C3.879,107.615 4.02,108.592 4.023,109.461 C4.028,110.335 4.235,111.943 4.487,113.045 C4.741,114.144 5.041,115.789 5.158,116.707 C5.529,119.642 8.263,126.277 10.031,128.548 C10.541,129.212 11.652,131.196 12.492,132.962 C13.337,134.727 14.155,136.172 14.316,136.172 C14.665,136.172 14.924,136.797 15.537,139.102 C16.216,141.644 16.128,142.383 14.995,143.792 L13.982,145.052 L14.851,147.684 C15.815,150.614 16.655,153.812 16.46,153.812 C16.389,153.81 15.781,152.95 15.107,151.896 Z M149.523,130.851 C150.18,130.426 150.949,130.426 150.69,130.851 C150.578,131.032 150.156,131.183 149.755,131.178 C149.162,131.176 149.118,131.114 149.523,130.851 Z M130.212,128.658 C130.212,128.072 130.93,128.175 131.135,128.793 C131.208,129.01 131.031,129.189 130.739,129.189 C130.451,129.188 130.212,128.946 130.212,128.658 Z M29.145,116.52 C29.025,116.325 29.006,116.085 29.103,115.988 C29.34,115.749 29.989,116.169 29.989,116.559 C29.992,116.986 29.416,116.959 29.145,116.52 Z M30.324,115.209 C30.324,114.781 30.561,114.781 30.824,115.209 C30.936,115.39 30.873,115.543 30.675,115.543 C30.483,115.543 30.324,115.392 30.324,115.209 Z M28.576,113.058 C27.907,112.143 27.853,111.881 28.325,111.881 C28.506,111.881 28.657,112.055 28.657,112.27 C28.657,112.485 28.908,112.936 29.211,113.271 C29.514,113.605 29.626,113.872 29.46,113.869 C29.294,113.861 28.896,113.5 28.576,113.058 Z M192.053,103.026 C191.921,102.894 191.821,102.398 191.83,101.929 L191.852,101.068 L192.171,101.869 C192.521,102.738 192.448,103.422 192.053,103.026 Z M44.169,101.278 C44.025,101.046 44.001,100.768 44.11,100.658 C44.408,100.36 44.733,100.8 44.571,101.28 C44.458,101.617 44.379,101.617 44.169,101.278 Z M46.477,100.7 C46.956,100.226 47.422,99.914 47.517,100.004 C47.778,100.265 46.553,101.568 46.05,101.568 C45.795,101.566 45.974,101.205 46.477,100.7 Z M42.976,99.901 C42.976,99.72 43.21,99.569 43.496,99.569 C43.782,99.569 43.923,99.72 43.809,99.901 C43.542,100.336 42.976,100.336 42.976,99.901 Z M45.307,92.25 C45.307,91.825 45.544,91.825 45.807,92.25 C45.919,92.433 45.853,92.582 45.661,92.582 C45.466,92.582 45.307,92.433 45.307,92.25 Z M40.312,79.604 C40.312,79.177 40.549,79.177 40.812,79.604 C40.924,79.785 40.861,79.938 40.666,79.938 C40.468,79.938 40.312,79.787 40.312,79.604 Z M38.469,76.925 C38.166,76.432 38.408,76.254 38.94,76.588 C39.228,76.761 39.262,76.935 39.038,77.071 C38.85,77.189 38.593,77.123 38.469,76.925 Z M5.405,73.944 C5.405,73.487 5.481,73.299 5.573,73.529 C5.663,73.758 5.663,74.132 5.573,74.362 C5.48,74.591 5.405,74.406 5.405,73.944 Z M5.612,70.915 C5.365,70.27 6.029,67.292 6.423,67.292 C6.694,67.292 6.523,68.757 6.027,70.607 C5.866,71.217 5.759,71.295 5.612,70.915 Z M9.348,58.971 C9.348,58.79 9.497,58.639 9.68,58.639 C9.863,58.639 10.012,58.79 10.012,58.971 C10.012,59.154 9.863,59.305 9.68,59.305 C9.497,59.305 9.348,59.154 9.348,58.971 Z M10.344,57.128 C10.344,56.713 11.406,54.931 11.557,55.085 C11.738,55.263 10.768,57.312 10.502,57.312 C10.417,57.309 10.344,57.228 10.344,57.128 Z M79.279,54.918 C79.274,54.605 79.43,54.254 79.628,54.134 C80.211,53.77 80.297,54.154 79.779,54.837 C79.35,55.402 79.289,55.409 79.279,54.918 Z M11.679,54.354 C11.679,54.171 11.83,53.929 12.013,53.817 C12.194,53.702 12.345,53.758 12.345,53.942 C12.345,54.126 12.194,54.369 12.013,54.482 C11.831,54.594 11.679,54.538 11.679,54.354 Z M76.416,50.988 C76.416,50.622 76.614,50.319 76.855,50.319 C77.192,50.319 77.214,50.478 76.938,50.988 C76.491,51.82 76.416,51.82 76.416,50.988 Z M33.442,48.908 C33.481,48.679 33.623,48.305 33.767,48.075 C33.933,47.809 33.838,47.658 33.508,47.658 C33.222,47.658 32.988,47.441 32.988,47.17 C32.988,46.855 33.181,46.757 33.537,46.897 C34.091,47.109 34.074,46.687 33.442,44.558 C33.315,44.138 33.474,43.899 33.957,43.774 C34.34,43.674 34.653,43.491 34.653,43.366 C34.653,43.244 34.922,43.122 35.258,43.1 C36.271,43.022 38.656,41.867 38.539,41.508 C38.478,41.325 38.085,41.152 37.667,41.132 C36.781,41.086 36.258,40.407 36.502,39.623 C36.597,39.318 36.519,38.969 36.329,38.852 C36.136,38.732 35.982,38.913 35.982,39.26 C35.982,39.602 35.762,40.171 35.494,40.527 C34.73,41.538 34.854,40.393 35.65,39.084 C36.566,37.587 36.49,37.133 35.276,36.889 C33.64,36.562 33.555,36.63 34.534,37.47 C35.43,38.241 35.435,38.278 34.878,39.135 C34.563,39.616 34.082,40.009 33.814,40.009 C33.543,40.009 33.321,40.143 33.321,40.304 C33.321,40.465 33.016,40.678 32.642,40.775 C32.273,40.873 31.993,41.078 32.024,41.232 C32.168,41.969 31.519,43.673 31.096,43.673 C30.832,43.673 30.698,43.805 30.796,43.961 C30.894,44.12 31.387,44.183 31.895,44.107 C32.74,43.973 32.771,44.004 32.239,44.437 C31.919,44.696 31.656,45.099 31.656,45.326 C31.656,45.846 30.062,45.497 29.298,44.811 C29.012,44.552 28.517,44.34 28.204,44.34 C27.728,44.34 27.699,44.225 28.014,43.634 C28.222,43.246 28.678,42.855 29.025,42.762 C29.372,42.672 29.657,42.457 29.657,42.283 C29.657,42.115 29.53,42.049 29.374,42.146 C29.218,42.241 28.92,41.951 28.715,41.499 C28.51,41.045 28.21,40.679 28.044,40.679 C27.541,40.679 26.005,42.029 26.086,42.4 C26.128,42.595 25.949,42.832 25.693,42.925 C25.368,43.045 25.29,42.927 25.432,42.554 C25.549,42.254 25.495,42.01 25.32,42.01 C25.145,42.01 24.998,41.761 24.998,41.456 C24.998,40.946 24.954,40.946 24.388,41.456 C24.054,41.761 23.619,42.01 23.426,42.01 C23.231,42.01 22.337,42.669 21.441,43.472 C20.103,44.673 19.642,44.903 18.873,44.759 C18.128,44.617 17.769,44.776 17.118,45.543 L16.298,46.505 L16.884,45.431 C17.206,44.845 18.754,42.643 20.319,40.543 C35.1,20.722 56.657,7.079 80.8,2.267 C90.214,0.387 101.523,-0.392 107.126,0.446 C108.742,0.688 109.722,0.939 109.299,1.01 C108.874,1.078 108.445,1.347 108.345,1.608 C108.238,1.886 107.705,2.079 107.053,2.079 C105.835,2.079 105.217,2.604 106.15,2.848 C106.638,2.977 106.622,3.007 106.055,3.038 C105.681,3.062 105.196,3.255 104.978,3.473 C104.707,3.742 102.476,3.895 97.837,3.956 C89.8,4.066 89.243,4.127 86.907,5.16 C85.911,5.599 84.322,6.051 83.374,6.163 C82.424,6.275 81.374,6.515 81.04,6.698 C80.708,6.879 79.99,7.123 79.451,7.24 C78.723,7.394 78.592,7.523 78.938,7.736 C79.192,7.892 79.521,7.953 79.666,7.863 C79.808,7.775 80.452,7.846 81.094,8.022 C81.795,8.217 82.334,8.222 82.449,8.042 C82.554,7.874 82.449,7.737 82.22,7.737 C81.956,7.737 81.917,7.622 82.113,7.432 C82.682,6.883 84.755,6.912 85.558,7.474 C86.283,7.982 86.293,8.033 85.712,8.331 C85.092,8.651 82.797,9.2 80.556,9.557 C79.648,9.706 79.289,9.948 79.147,10.521 C78.966,11.239 78.786,11.292 76.532,11.292 C73.937,11.292 70.873,12 71.056,12.559 C71.207,13.016 72.887,13.189 73.385,12.798 C74.742,11.724 78.134,11.511 77.745,12.527 C77.545,13.049 78.49,13.526 78.785,13.052 C78.892,12.876 79.268,12.732 79.627,12.732 C79.996,12.732 80.274,12.503 80.274,12.197 C80.274,11.843 80.455,11.728 80.799,11.863 C81.09,11.973 81.549,12.066 81.822,12.066 C82.254,12.066 82.254,12.129 81.807,12.574 C80.996,13.385 81.463,13.944 82.823,13.785 C83.656,13.687 83.953,13.761 83.795,14.019 C83.637,14.277 84.044,14.395 85.094,14.395 C86.144,14.395 86.681,14.551 86.815,14.891 C86.92,15.164 87.215,15.391 87.469,15.391 C87.884,15.391 88.074,15.799 87.85,16.209 C87.804,16.292 88.062,16.575 88.421,16.836 C88.983,17.246 89.019,17.434 88.682,18.174 C88.465,18.643 87.92,19.124 87.474,19.236 L86.66,19.44 L87.378,20.16 C87.776,20.556 88.425,20.907 88.823,20.944 C89.221,20.978 90.012,21.244 90.581,21.537 C91.394,21.957 91.589,22.252 91.501,22.916 C91.44,23.38 91.174,23.897 90.91,24.061 C90.549,24.293 90.536,24.366 90.866,24.369 C91.105,24.371 91.208,24.528 91.095,24.711 C90.983,24.892 91.124,25.043 91.408,25.043 C91.696,25.043 91.928,25.268 91.928,25.541 C91.928,25.812 91.723,26.039 91.469,26.039 C90.773,26.039 87.931,27.362 87.931,27.687 C87.931,27.846 87.594,27.909 87.181,27.836 C86.768,27.76 86.619,27.782 86.847,27.892 C87.152,28.038 87.167,28.258 86.903,28.756 C86.705,29.122 86.456,29.337 86.351,29.232 C86.246,29.129 85.992,29.274 85.787,29.557 C85.579,29.838 85.142,30.109 84.81,30.158 C84.104,30.261 83.594,30.969 83.816,31.542 C83.95,31.894 83.262,32.226 82.097,32.375 C81.916,32.399 81.555,32.592 81.306,32.802 C81.05,33.01 80.637,33.185 80.39,33.188 C79.875,33.193 77.272,35.612 77.272,36.088 C77.272,36.256 76.952,36.298 76.562,36.176 C76.11,36.03 75.932,36.076 76.074,36.298 C76.247,36.581 73.64,37.265 72.947,37.116 C70.066,36.508 68.911,36.467 66.035,36.86 C64.858,37.024 64.136,36.975 63.818,36.711 C63.452,36.408 63.076,36.433 62.151,36.818 C61.494,37.091 60.955,37.453 60.955,37.616 C60.955,37.777 60.489,37.929 59.917,37.946 C59.348,37.963 57.866,38.51 56.624,39.159 C53.956,40.563 53.457,40.638 53.792,39.598 C53.924,39.185 54.063,38.372 54.107,37.789 C54.202,36.434 55.313,34.991 58.382,32.249 C61.253,29.678 65.284,27.579 65.284,28.653 C65.284,28.809 65.662,28.868 66.126,28.78 C66.91,28.629 66.924,28.587 66.375,28.16 C65.811,27.723 65.816,27.677 66.451,27.179 C66.817,26.891 67.525,26.713 68.026,26.786 C68.695,26.881 68.993,26.747 69.134,26.3 C69.249,25.934 70.477,25.15 72.132,24.374 C75.352,22.875 76.646,21.779 76.382,20.77 C76.238,20.233 76.489,19.947 77.561,19.398 C78.308,19.017 79.033,18.729 79.175,18.761 C79.319,18.793 79.693,18.705 80.008,18.566 C80.379,18.405 81.011,18.581 81.79,19.059 C82.764,19.66 83.055,19.718 83.277,19.357 C83.89,18.366 81.251,17.69 75.689,17.419 C74.7,17.368 74.742,16.667 75.804,15.407 C76.446,14.643 76.536,14.386 76.156,14.386 C75.878,14.386 75.553,14.542 75.431,14.735 C75.287,14.967 74.923,14.894 74.357,14.527 C73.603,14.034 73.232,14.012 71.286,14.361 C70.07,14.578 68.63,15.047 68.095,15.401 C67.555,15.757 66.847,16.046 66.515,16.05 C66.183,16.05 66.005,16.201 66.117,16.384 C66.461,16.938 67.621,16.755 68.715,15.979 C69.85,15.171 73.725,14.702 74.323,15.3 C74.928,15.905 73.031,18.149 71.076,19.143 C70.073,19.653 69.164,20.29 69.062,20.557 C68.96,20.824 68.666,21.043 68.41,21.043 C68.156,21.043 67.941,21.229 67.936,21.458 C67.926,21.912 65.272,23.372 64.457,23.372 C64.181,23.372 63.541,23.851 63.039,24.436 C60.917,26.899 60.717,27.031 59.255,26.975 L57.856,26.921 L58.906,25.986 C59.482,25.468 59.956,24.965 59.956,24.863 C59.956,24.514 58.516,25.454 57.471,26.489 C56.892,27.06 55.855,27.7 55.166,27.905 C54.299,28.164 54.023,28.169 54.27,27.925 C54.89,27.307 54.658,26.904 54.019,27.481 C53.001,28.401 52.881,28.101 53.692,26.656 C54.114,25.899 55.086,24.769 55.848,24.141 C56.612,23.514 57.391,22.559 57.579,22.019 C57.779,21.455 58.292,20.898 58.795,20.708 C59.918,20.281 59.955,20.286 59.955,20.886 C59.955,21.582 60.949,21.914 61.315,21.34 C61.525,21.01 61.61,20.996 61.615,21.294 C61.617,21.521 61.783,21.709 61.989,21.709 C62.199,21.709 62.282,21.414 62.182,21.025 C62.053,20.532 62.206,20.263 62.741,20.061 C63.144,19.907 63.676,19.541 63.923,19.248 C64.167,18.957 64.721,18.713 65.156,18.713 C65.593,18.713 65.945,18.579 65.945,18.415 C65.945,18.244 65.43,18.242 64.697,18.41 C64.013,18.574 62.822,18.618 62.06,18.508 C60.864,18.342 60.454,18.462 59.123,19.38 C58.271,19.963 57.475,20.342 57.351,20.217 C57.224,20.092 57.395,19.795 57.725,19.55 C58.133,19.252 58.206,19.035 57.954,18.879 C57.361,18.513 58.608,17.331 59.341,17.566 C60.239,17.852 60.718,17.434 60.147,16.865 C59.883,16.601 59.527,16.386 59.354,16.386 C59.178,16.386 58.851,16.161 58.624,15.888 C58.102,15.258 56.385,15.251 55.294,15.873 C54.835,16.134 53.951,16.581 53.329,16.869 C52.704,17.155 51.564,17.953 50.79,18.637 C50.014,19.318 48.754,20.383 47.985,21 C47.216,21.617 46.427,22.47 46.235,22.892 C46.043,23.314 45.424,23.851 44.863,24.086 C44.301,24.318 43.386,24.906 42.827,25.39 C42.265,25.876 41.379,26.496 40.852,26.772 C40.085,27.165 40,27.307 40.435,27.47 C40.733,27.587 40.979,27.533 40.979,27.355 C40.979,27.182 41.135,27.033 41.331,27.033 C41.527,27.033 42.234,26.659 42.911,26.198 C43.59,25.739 44.193,25.517 44.254,25.7 C44.552,26.591 47.784,25.539 49.056,24.13 C49.376,23.776 49.976,23.515 50.387,23.551 C50.8,23.588 51.437,23.456 51.801,23.258 C52.577,22.838 54.679,22.057 55.055,22.05 C55.197,22.048 55.084,22.397 54.804,22.824 C54.526,23.249 54.374,23.678 54.474,23.779 C54.572,23.877 54.122,24.421 53.478,24.99 C52.829,25.556 52.299,26.174 52.299,26.36 C52.299,26.543 51.74,26.931 51.056,27.219 C49.738,27.768 48.305,28.94 48.305,29.472 C48.305,29.65 48.974,29.714 49.877,29.611 C51.217,29.46 51.364,29.496 50.866,29.862 C50.292,30.282 47.651,32.655 45.285,34.882 C44.628,35.497 43.896,36.601 43.652,37.331 C43.41,38.066 43.103,38.596 42.971,38.515 C42.834,38.432 42.544,38.798 42.324,39.33 C41.733,40.761 39.836,42.399 39.338,41.903 C39.038,41.608 38.996,41.644 39.152,42.059 C39.306,42.452 39.081,42.699 38.341,42.955 C37.779,43.15 37.323,43.543 37.323,43.827 C37.323,44.113 37.142,44.342 36.923,44.342 C36.628,44.342 36.62,44.44 36.899,44.718 C37.373,45.192 37.075,45.956 36.042,46.915 C35.593,47.33 35.346,47.672 35.49,47.672 C35.634,47.672 35.348,48.046 34.855,48.505 C33.869,49.401 33.344,49.557 33.442,48.908 Z M29.804,34.848 C29.963,34.181 29.929,33.962 29.706,34.181 C29.525,34.362 29.267,34.962 29.14,35.509 C28.981,36.178 29.018,36.398 29.238,36.178 C29.421,35.995 29.677,35.397 29.804,34.848 Z M28.916,34.162 C28.96,33.671 28.85,33.398 28.655,33.515 C28.269,33.757 28.206,35.014 28.587,35.014 C28.73,35.011 28.879,34.63 28.916,34.162 Z M32.487,31.022 C33.195,30.241 32.614,30.111 31.845,30.878 C31.257,31.464 31.191,31.686 31.603,31.686 C31.76,31.686 32.155,31.386 32.487,31.022 Z M34.487,28.024 C34.748,27.602 34.309,27.602 33.654,28.024 C33.222,28.3 33.232,28.349 33.717,28.354 C34.028,28.356 34.372,28.209 34.487,28.024 Z M37.727,25.956 C38.301,25.421 38.601,24.884 38.457,24.655 C38.296,24.396 38.357,24.35 38.64,24.526 C38.926,24.699 39.016,24.636 38.913,24.326 C38.715,23.735 38.237,23.828 37.814,24.543 C37.633,24.853 37.072,25.527 36.566,26.04 C36.063,26.555 35.65,27.156 35.65,27.375 C35.651,27.807 35.981,27.584 37.727,25.956 Z M67.116,18.708 C67.001,18.525 66.76,18.376 66.574,18.376 C66.393,18.376 66.335,18.525 66.447,18.708 C66.559,18.891 66.803,19.042 66.987,19.042 C67.171,19.042 67.229,18.891 67.116,18.708 Z M80.878,14.721 C81.357,14.726 81.364,14.77 80.932,15.048 C80.497,15.329 80.502,15.373 80.978,15.375 C81.271,15.38 81.693,15.17 81.911,14.909 C82.219,14.535 82.17,14.399 81.662,14.235 C80.786,13.957 79.929,14.34 79.96,14.999 C79.977,15.348 80.048,15.392 80.153,15.131 C80.249,14.899 80.573,14.718 80.878,14.721 Z M71.03,11.72 C71.311,11.72 71.626,11.495 71.731,11.222 C71.99,10.553 71.66,10.595 70.344,11.393 C69.695,11.789 69.343,12.216 69.48,12.44 C69.644,12.701 69.839,12.65 70.115,12.269 C70.339,11.967 70.749,11.72 71.03,11.72 Z M74.772,8.727 C74.887,8.544 74.831,8.393 74.645,8.393 C74.462,8.393 74.22,8.544 74.105,8.727 C73.99,8.908 74.051,9.059 74.234,9.059 C74.417,9.059 74.66,8.908 74.772,8.727 Z M77.604,6.063 C77.604,5.88 77.379,5.729 77.106,5.729 C76.833,5.729 76.608,5.88 76.608,6.063 C76.608,6.244 76.833,6.395 77.106,6.395 C77.379,6.395 77.604,6.244 77.604,6.063 Z M69.616,45.153 C69.616,44.872 69.389,44.557 69.116,44.452 C68.469,44.203 68.469,43.668 69.116,43.668 C69.389,43.668 69.616,43.441 69.616,43.17 C69.616,42.894 69.457,42.67 69.26,42.67 C69.067,42.67 68.999,42.528 69.106,42.353 C69.213,42.178 69.548,42.128 69.848,42.243 C70.275,42.407 70.341,42.319 70.161,41.84 C69.9,41.164 70.408,40.688 71.401,40.68 C71.86,40.675 71.975,40.846 71.848,41.339 C71.714,41.852 71.838,42.008 72.392,42.01 C72.785,42.01 73.684,42.166 74.377,42.362 C75.542,42.687 75.637,42.801 75.544,43.771 C75.41,45.15 74.375,45.658 71.694,45.666 C70.046,45.663 69.616,45.556 69.616,45.153 Z M115.451,42.445 C114.992,41.988 115.254,41.337 115.895,41.337 C116.339,41.337 116.562,41.559 116.562,42.004 C116.563,42.643 115.91,42.902 115.451,42.445 Z M97.294,33.104 C97.086,32.713 96.918,32.162 96.918,31.874 C96.918,31.591 96.767,31.354 96.584,31.354 C96.193,31.354 96.147,30.038 96.523,29.447 C96.674,29.21 97.231,29.095 97.849,29.174 C98.435,29.25 98.916,29.176 98.916,29.018 C98.916,28.708 101.155,28.823 101.482,29.15 C101.809,29.472 100.835,30.398 100.361,30.214 C99.748,29.98 99.797,30.678 100.446,31.391 C101.066,32.077 100.829,32.665 99.958,32.597 C99.543,32.565 99.394,32.358 99.499,31.952 C99.768,30.931 99.118,31.3 98.378,32.587 C97.7,33.766 97.661,33.786 97.294,33.104 Z M52.543,28.646 C52.768,28.419 53.034,28.319 53.136,28.421 C53.238,28.523 53.058,28.709 52.726,28.834 C52.255,29.018 52.219,28.979 52.543,28.646 Z M121.55,28.183 C120.938,27.448 121.286,27.363 121.973,28.08 C122.292,28.417 122.424,28.69 122.263,28.69 C122.1,28.69 121.779,28.463 121.55,28.183 Z M106.677,28.146 C106.402,28.034 106.448,27.812 106.843,27.414 C107.237,27.016 107.52,26.945 107.785,27.185 C107.995,27.373 108.088,27.659 107.99,27.82 C107.89,27.981 108.019,28.042 108.273,27.954 C108.566,27.854 108.698,27.419 108.632,26.748 C108.529,25.732 108.554,25.71 109.435,26.045 C110.092,26.296 110.412,26.287 110.581,26.008 C110.749,25.732 110.881,25.727 111.045,25.993 C111.172,26.196 111.106,26.362 110.9,26.362 C110.694,26.362 110.62,26.513 110.734,26.696 C110.849,26.877 110.744,27.03 110.505,27.033 C110.188,27.038 110.205,27.126 110.567,27.36 C110.974,27.624 110.93,27.685 110.342,27.69 C109.948,27.692 109.548,27.507 109.455,27.277 C109.348,27.018 109.277,27.065 109.26,27.409 C109.224,28.209 107.819,28.61 106.677,28.146 Z M45.781,24.738 C45.881,24.577 46.301,24.36 46.716,24.255 C47.444,24.074 47.448,24.087 46.826,24.548 C46.108,25.082 45.5,25.194 45.781,24.738 Z M54.296,21.369 C54.95,20.947 55.392,20.947 55.129,21.369 C55.017,21.55 54.672,21.701 54.362,21.699 C53.874,21.693 53.867,21.649 54.296,21.369 Z M55.961,19.706 C55.961,19.525 56.188,19.372 56.461,19.372 C56.734,19.372 56.959,19.526 56.959,19.706 C56.959,19.886 56.734,20.04 56.461,20.04 C56.186,20.041 55.961,19.887 55.961,19.706 Z M85.686,13.847 C85.798,13.737 86.084,13.725 86.326,13.82 C86.587,13.925 86.512,14.006 86.123,14.02 C85.771,14.037 85.576,13.957 85.686,13.847 Z M83.454,13.393 C83.1,13.268 82.951,13.09 83.122,12.997 C83.564,12.753 86.447,12.643 86.213,12.877 C85.805,13.285 84.069,13.61 83.454,13.393 Z M85.678,11.833 C84.968,11.547 85.219,11.003 86.012,11.115 C86.422,11.174 86.722,11.374 86.676,11.554 C86.577,11.959 86.235,12.052 85.678,11.833 Z M80.935,11.61 C80.935,11.505 81.274,11.051 81.692,10.607 C82.239,10.021 82.927,9.738 84.15,9.608 C85.088,9.508 86.245,9.327 86.723,9.208 C87.37,9.044 87.592,9.118 87.592,9.479 C87.592,10.143 86.718,10.841 86.252,10.553 C86.049,10.426 85.18,10.431 84.326,10.565 C83.086,10.758 82.903,10.86 83.435,11.075 C84.038,11.319 84.023,11.344 83.269,11.37 C82.81,11.385 82.1,11.487 81.687,11.597 C81.271,11.708 80.935,11.713 80.935,11.61 Z M112.81,5.509 C113.035,5.419 113.487,5.414 113.809,5.497 C114.133,5.582 113.948,5.656 113.399,5.663 C112.849,5.67 112.583,5.602 112.81,5.509 Z" id="Shape" fill="#FFFFFF"></path>
            </g>
        </g>
    </g>
</svg>
