<svg id="USA" xmlns="http://www.w3.org/2000/svg" viewBox="0 0 612 612"><title>Artboard 1 copy-simple</title><path d="M434.12,377.32a10.06,10.06,0,0,0-6.87-.22c-1,.37-2.28,0-3.43,0l.12.13c-1.36-1.7-2.68-1.52-4.33-.22-1.88,1.49-3.29,4.13-6.41,3.2l.14.14-3.64-7.27-11.85.94-7.42,6.86a16.69,16.69,0,0,0,2.85-.23,3,3,0,0,1,2.24-.29l-3.34,5.35,8,3.51-2.08,3.75-9.19-5.75-1.22,5.34-3.05-2.77c-1.3.88-2.57,2.34-4,2.57-1.76.28-3.69-.48-5.93-.86l.73-2.48-6.68-4.56c-3.24,3.78-7,3.87-10.79,2.28-5.72-2.4-11-.63-16.19,1.44-1.94.77-3.8,1.77-5.69,2.67l.13.15-.63-2.76c-2.31,1.33-1.67,2.56-.5,3.83l-.08-.09a14.27,14.27,0,0,1-7.65,9.14c-2,1-4,2.14-5.56,3l-5.76-2.4-.43.5,1.93,1.81-6.89,6.05-1.13-.77-.08.32,1.35.3-2.67,4.68c1.43,4.28-2.16,8.35-2.7,13.23l-7.26.46a13.3,13.3,0,0,0,3.24,10.63L297.91,441a13,13,0,0,0-7.77-2.38c-2.82.05-5.67-1.48-8.49-2.37-1.16-.37-2.27-.89-3.64-1.44-1.68-4.69-5.32-8.83-4.85-14-5.09-4.57-9.19-9.33-11.18-15.39-1.29-3.95-4-6.43-6.91-9l-3.55-3.16-9.79-1.53a8.52,8.52,0,0,0-6.39,7.16c-.25,1.35-1.82,2.45-3.09,4-4.89-2.25-10.28-3.54-14.06-7.61-1.45-1.56-2.14-4-2.66-6.2-1.07-4.52-2.61-8.28-6.69-11.35s-7.38-7.78-11.54-12.33c-4.25,0-9.15-.05-14.06,0-9.15.11-18.31.52-27.45.32a23.31,23.31,0,0,1-9.05-2.57c-10.33-4.89-20.56-10-30.76-15.18-1.53-.78-2.69-2.3-4.83-4.2H87c-.52-1.38-1.59-2.81-1.46-4.12.72-7.37-4.22-10.91-9.51-15.07l-.93-2.74a7.54,7.54,0,0,0-1.62-.57c-2.77-.24-5-1.14-6.46-3.8-1-1.76-2.66-2.53-4.84-2.62-3.69-.15-7-1.65-10.09-3.18L53.43,304l-1.63-1.72.46-3c-4.29-3.12-4.26-9.31-9-13.43l-.17-3.13L46,280.18c-1.72-1.93-3.86-3.45-4.69-5.51s-.17-4.42-.17-6.62a35.14,35.14,0,0,1-3-3.22c-.58-.8-1.36-2-1.12-2.77,1.1-3.33-.63-5.7-2.22-8.23-.93-1.48-1.64-3.1-2.64-5,.4-2.79,1.21-5.88,1.17-9,0-2.35-1-4.73-1.82-7a28.15,28.15,0,0,0-2.5-4.29l5.25-6.87c.37-3,1.53-7.08,1.17-11.07a89.82,89.82,0,0,1,0-10.29A12.41,12.41,0,0,1,38,192.51c3.1-3.65,3.86-8.2,5.77-12.27a55.12,55.12,0,0,0,3.9-11.44c.86-3.94.92-8,1.37-12.58l1.53-.23,1.52,1,.28-.58-2-.23c-.2-.48-.71-1.13-.56-1.42,2.13-4,1.2-8,.54-12.05q-.87-5.37-1.43-10.78a14.28,14.28,0,0,1,.65-3.51,37.09,37.09,0,0,0,15,7.44l1.81-1,.79.52-.9-.4,1.2-4.38-.12.15,3.49-.69c-.54-1-.87-1.71-1.27-2.35s-.76-1-1.26-1.73c.74-.31,1.22-.7,1.64-.65,2.78.37,5.55.82,8.33,1.26,5.84.91,11.7,1.71,17.51,2.77s11.68,2.55,17.56,3.59c7.94,1.42,15.93,2.54,23.89,3.9,7.26,1.24,14.65,1.53,21.82,3.62,4.16,1.21,8.68,1.24,13.05,1.67q21.78,2.13,43.57,4.16c1.23.12,2.46.14,3.69.14H319l1.47-4.06h2.15l2.3,7.1c4-.43,7.59,1.69,11.78.15a7.22,7.22,0,0,1,8.38,2.7c1.84.18,3.47-.09,4.62.54,3.41,1.86,6.64,3.86,9.53-.28,4.48,2.32,9.19-.3,13.24,2.59-1.76.89-3.64,2.24-5.73,2.81-4.06,1.1-6.56,3.94-8.86,7.08-1.21,1.65-2.2,3.45-3.49,5.5,2,1,3.9-.13,5.4-1.21a8.46,8.46,0,0,1,6-1.52l-.13-.13-1.16,2.92c1.69,2.13,3.65,1.49,5.15.29,3.76-3,9.36-3.2,12-7.86,3.1-.82,5.51-3.57,9.57-3.54l-6.85,7.18c5.21-1.93,8.54-.55,10.8,3.42a17.15,17.15,0,0,0,10.83-2.47,6.13,6.13,0,0,1,1.92-.85c3-.68,6.06-1.28,9.43-2l-.18,3.84,6.42-.68,4.58,5.21-6,.69-.47,1.31.13-.13-4.93-1.59-9.6,3.78-4.19,3.26-.93-3.2-4.47,3.61c-.36,5-5,8.72-4.53,14.36l7.12-8.26c.1.77.4,1.45.23,2-.74,2.14-1.54,4.26-2.48,6.32-.87,1.89.58,3.82-.74,6-1.16,1.88-.67,4.74-1,7.15a16.25,16.25,0,0,0,.84,9.21c.6,1.36.29,3.11.46,4.67a17.17,17.17,0,0,0,5,10.54c6.65-1,8.05-6.11,9.67-10.91,1.88-5.56-1.54-9.79-3.91-14.3.5-3.62.36-7.32.79-11,.35-3.08.67-5.72,3.07-7.86a11.88,11.88,0,0,0,1.69-2.57l1.77,2.55c.58-2.08.94-3.8,1.58-5.42.2-.52,1.13-.75,1.84-1.18l-1.09-1.73c.53-2,1.7-3.38,4.05-2.83a120.47,120.47,0,0,1,12,3.22,4.16,4.16,0,0,1,2.86,3.61c.21,2.19,1.18,4.31,1.8,6.37l-5.26,8.11,1.41,2.84c.82-.16,1.3-.11,1.45-.3.83-1.1,1.54-2.28,2.36-3.39,1.86-2.54,5.42-2.81,6.5-.18,1.89,4.64,4.41,9.18,4.45,15l-2.66-.19-5.18,12.81,6.48,2.66-.1-.1h1.17l-.08.07,3,.43c3.8-2.5,8.91-3.18,12.72-7,3.43-3.41,7.79-5.94,11.92-8.57,4.38-2.78,7.72-6.54,11.22-10.72l-2.68-5a14.25,14.25,0,0,1,11.09-3.82c5.21.38,9.57-.29,12.91-4.61a9,9,0,0,1,2-1.37c-.9-2.38,0-5.38-2.85-7.08l-.14.14a11.75,11.75,0,0,0,4.48-5.55,12.17,12.17,0,0,1,9.57-8c8.77-1.7,17.42-4,26.36-6.14l1.34-3.73,3.92-2.26c.9-2.21,1.7-4.3,2.6-6.34a10.3,10.3,0,0,0,.76-3.9c.28-6.59,1.14-13.13,4.7-19.33l3.16,2.8,6.72-3.63,4.81,2.47L581,143.3l3.66,1.15,1,2.64,5.93,4.51-8,8.53-2.19-1-.11,2.26-3.7,2.59-2.15-3.86a12.45,12.45,0,0,0-1.31,6.34,7.2,7.2,0,0,1-3.91,6.84c-.78.44-1.2,1.52-1.82,2.36l-1.32-1c-1.15,2.29-2.84,4.46-3.26,6.85s-1.93,5.59,1.27,7.71l-1.41,3,5.51,6.47a6.29,6.29,0,0,1-3.87,2l-3.41,3.69-1.11-3.61H560l-.79,4-4.3,3.19.13-.13c-5.89,2-11.17,5-15.26,9.85a5.18,5.18,0,0,0-.57,1.88l-1,1.07-.78.29.4.49.29-.86,1.07-1.05c3.13-1.43,6.32-2.73,9.36-4.32a36.54,36.54,0,0,0,4.64-3.44l5.7-.39a22.07,22.07,0,0,1-7.11,6.05c-2.52,1.53-5.64,2.16-8,3.9-2.56,1.93-5.62,1.56-9.4,2.9l3.49.78a7.59,7.59,0,0,1,.8,6.34c-.33,1.1-1.09,2.36.59,3.12l-.17-.16c-.73,1.87-1.37,3.77-2.21,5.59s-1.9,3.69-3.31,6.37l-1.14-2.83c-3.86-1.09-3.86-1.09-6.6-3.35-1.52-3.56,1.69-4.86,3.86-7.33-1.16-.16-2.19-.61-2.51-.3-1.73,1.62-3.29,3.43-5.2,5.48,3.34,3.06,4.31,7.39,7.92,9.89a4.7,4.7,0,0,1,1.74,5.68c-1.6,4-1.18,8.63-4,12.27-.53.7-.28,2-.42,3.32l-3.47-.22c-.13.21-.32.46-.29.48,1.84,1.8,2.64,4.87,6.18,4.91l7.34,14.6-.64.51L532.19,287l-4.28,1.54.09.48h4.59l1.19,2.11c-1.88,2.53-2,6.43-6.14,6.88v3.58l2.55.22c0,.32.13.75,0,.94-.54.67-1.08,1.65-1.79,1.81-3.24.73-5.86,2.09-7.41,5.24-1.28,2.59-2.82,5-4.69,8.33a15.6,15.6,0,0,1-2,.62,10.35,10.35,0,0,0-8.09,7.52c-1.62,5.7-5.91,9.11-10,12.61-5.41,4.59-8.77,10.07-9.05,17.25a5.63,5.63,0,0,1,.07,1c-2.91,11.63,2.57,20.7,9,29.46.92,1.25,2.24,2.22,3.07,3.52a4.54,4.54,0,0,1,.36,3.41l-1.1-2c-.19.2-.48.36-.51.57-.29,1.86-.08,3.49,2,4.21l-.13-.13,1.22,2.25-.14-.14,3.33,4.39-.16-.15c.54,2.14,1,4.32,3.29,5.42l-.13-.13c3.11,5.32,3.66,11.16,3.39,17.15a17.57,17.57,0,0,1-.42,3c-.5,2.26-1.08,4.5-1.76,7.27l-8.14,2.41a11.55,11.55,0,0,0-4.23-9.2c-3.32-.12-6.26-1.34-7.05-5.63-.16-.87-1.75-1.48-2.68-2.21l-1-4.93-2.21,1.61-6.71-7.74,2.4-5-.93-.47-1.84,3.08c-2.11-2.5-2.11-2.5-1-15.67-1.11-1.38-1.76-2.88-4.15-3.38-1.85-.39-3.3-2.87-4.86-4.49-1.91-2-3.55-4.14-6.56-4.78-2.13-.45-4.13-1.67-4.53,1.82,0,.22-.41.49-.68.59-3.31,1.21-6.63,2.39-10.35,3.72-.49-4.25-4.41-4.58-6.52-6.84m84.79-105.82.67.53-.83-.36-.48-.3ZM68.56,137.18h-1.8l-.33,3.05-.36.21.24-.33L68.4,137l.39-.64ZM520.17,242.92c-2.12.81-1.17,2.45-1.15,3.84,1.59-1,.93-2.58,1-4l1-2.26-.45-.18Zm2.74,13-1,.4v3.52c-2.73-1-5-1.86-7.25-2.53-.51-.15-1.25.45-3.08,1.19l10.23,3c.93,3.08.93,3.08,3.24,4.71l1.29-6.68ZM387.08,375.25l-2.41,3.24c2.18,1.83,4,1.53,5.69-.26a2.11,2.11,0,0,0,.28-.74ZM43.7,264.36l-.32-1a4.51,4.51,0,0,0-1.12.53c-.09.08.15.56.24.86Zm479.23,32.86v.19h1.87v-.19ZM41.86,268.33l1.65,1.4c.06-.3.25-.81.17-.85A9.72,9.72,0,0,0,41.86,268.33ZM68,142l-.4,0,.2,1.63.36,0ZM511.32,257.2h-.52V259h.52ZM501.27,434.6V435h1.31v-.31ZM525.85,290l0-.23-1.22-.13V290ZM64,146.81l.05-.43-.49.11a1.89,1.89,0,0,0,.14.4S63.91,146.84,64,146.81ZM42.29,266.59l.24.16,0-.26ZM346.12,383.76l-.19.35.31,0Z"/><path d="M91.67,480.73c1.1-1,2.05-2.67,3.32-3,6.22-1.42,10.09-6,14.26-10.15a6,6,0,0,0,1.11-2.88c.33-1.47.48-3,.79-5L105,462.53l-1.46-7.9-4.67.87-2.38-8.18-4.72-.48-2.5-4.64,4-1.93-6-4c2.87-2.87,5-5.62,6-9.35,3.36,1.06,6.15-.07,9.24-1.39l-.53-4.75c-3.85,0-7.63.27-11.17-1.89L90,414.41l-3.34-3,11.78-2.88v3l4.61.62-1.43-4.21h5.29c-.14-3.9-3.7-5.13-5.21-7.9l1-2.12c2.72.3,5.29.14,6.87-2.49,1.92-3.19,5.26-3.78,8.39-4.8,1.91-.62,3.8-1.35,6.3-2.24,5.7.69,12.21,1.85,18.74,2.07,2.54.09,5.07-1.09,7.7,1.16,2.09,8.68,4.9,17.62,6.26,26.77,1.3,8.73,3.92,17.09,5.65,25.68a29.6,29.6,0,0,0,1.33,3.75l5-.89,8.33,6,4.15-6.45c4.77,4,10.13,6.46,13.6,11.2A12.08,12.08,0,0,0,205.76,463l.13,4.11.1-.1-3.06.32-.27,4,.14-.15c-.65-.38-1.6-.62-1.88-1.18a35.79,35.79,0,0,1-1.61-4.2c-2.13-2.31-3.29,1.6-5,.1l.14.14c-.43-.79-.86-1.16-1.27,0l.16-.16-1.85.82c-1.33-1.67.49-4.8-3.1-5.9l.81,5-2.78-3.19-3,1.16,2-5.75c-.48-1-1.56-1.53-3.17-1.45a13.16,13.16,0,0,1-10.83-4.26c-2.56-2.69-6.23-2.27-9.58-2.48-.86-.05-2,.5-2.56.11-3.73-2.71-7.74-.31-11.59-.74-1.3-.14-2.76,1.22-4.15,1.9l.13.14-1.75-2c-.82,1.43-1.08,2.5.62,3.08l-.16-.15c-1.29.61-1.29.61-2.73-1.11-7.11,5.31-9.78,13.59-13.94,21h-5.64l-1.79-3.37c.46-1.93.85-4,1.45-5.92.18-.57,1-1,1.09-2a12.35,12.35,0,0,0-2.52,1.78c-1.54,1.8-2.91,3.75-4.4,5.71l.71,1.25a4.28,4.28,0,0,1-.58.77c-2.22,1.92-4.55,3.73-6.68,5.76-2.53,2.41-5.06,4.7-8.88,4.94l.37,1.48-7.07-1.66Zm14.13-69.1v-.3h-1.14v.3Zm17.06,49.77.19-.23-.29-.05Z"/><path d="M295.41,501.7l-.56-3.44a10.43,10.43,0,0,1,1.3-.4c.14,0,.32.12.47.21,2.63,1.38,5.55,2.41,7.82,4.25s3.75,4.38,5.88,7a5.08,5.08,0,0,1-3.7,2.54,13.17,13.17,0,0,0-8.26,5.25l-3-1.29L293,505Z"/><path d="M283.55,488.83l.82-1.53,9.58,3.86c-1.58,2.11-3.5,2.08-5.14,2.47Z"/><path d="M260.4,480.16l4.64-2.6,4.35,5.93C266,483.12,263.06,483.51,260.4,480.16Z"/><path d="M238.62,473c2.86-3.62,3.05-3.66,7.45-1.62L244.53,475Z"/><path d="M197.48,471.6c3.27.69,4.89,2.38,5.19,5.29C198.72,475.91,198.72,475.91,197.48,471.6Z"/><path d="M72.1,424.12,79,425.85C76.88,427.68,76.88,427.68,72.1,424.12Z"/><path d="M281.54,487.15l-7.09-.82C277.11,484.54,277.53,484.57,281.54,487.15Z"/><path d="M89,483.29l-5.09,1.41C85.86,481.81,85.86,481.81,89,483.29Z"/><path d="M67.48,130.61c-1.81,1.11-2.75.36-3.31-1.48,2-1,3-.47,3.19,1.62Z"/><path d="M84.19,450.43l-4.69,1.73C81.07,449.62,82.45,449.57,84.19,450.43Z"/><path d="M281.64,489.64c-1.64,1.62-1.64,1.62-2.93-.17Z"/><path d="M367.66,393.06l4.29.4C370.16,395.82,369.22,394.71,367.66,393.06Z"/><path d="M380.46,152.9c-.79,1.39-1.54,2.85-4.56,2.11,1.95-1.17,2.8-2.48,4.6-2.06Z"/><path d="M58.43,320.62l-2.25-.8.19-.77,2.3.24Z"/><path d="M433.16,172.84h-4.49l3.1-1.84Z"/><path d="M67.58,489.24l2.29-.44.24.93-2.28.66Z"/><path d="M426.35,169.58l-1-2.23.74-.26.75,2.29Z"/><path d="M538.12,293.61V289.7c1,2.34,1,2.34-.13,3.78Z"/><path d="M570.3,203.49l-2,1-.49-.47c.29-.41.5-1,.9-1.18s.94,0,1.42,0Z"/><path d="M234.74,474.42l-2,2.32c-.41-2.08.57-2.39,1.2-3Z"/><path d="M308.45,423.59v3.52c-1-1.24-1-2.4.15-3.38Z"/><path d="M380.5,152.94l1.35-1.85.57.6-2,1.21Z"/><path d="M91.79,480.86l-1.51,2.47c-.69-2.18-.11-2.72,1.39-2.6Z"/><path d="M73.78,329.57l2.53,1.88c-2.42.09-3-.43-2.4-2Z"/><path d="M573.34,197.94l-1.2-1,.49-.56,1.19,1.05Z"/><path d="M73.86,489.33c.59-1.45,1.5-1.52,3-.37l-3.15.22Z"/><path d="M414.38,179.34l.2-1.44a3,3,0,0,1,.55.7C415.16,178.69,414.81,178.93,414.38,179.34Z"/><path d="M504.32,402.67l.1-.55-.26.4Z"/><path d="M413.2,380.2l-.43.3.57-.16Z"/><path d="M194.29,465.93l-.32,2-.64,0v-1.92l-.16.16h1.27Z"/><path d="M423.82,377.09l-.23.21.35-.07Z"/><path d="M308.13,434.62h0C308.09,434.31,308.06,434,308.13,434.62Z"/><path d="M313.79,414.16l-1.09,2,.14.12,1.1-2Z"/><path d="M312.71,416.2l-1,2.1.13.14,1-2.12Z"/><path d="M308.6,423.74l1-2.1-.14-.15c0,.85.6,2-1,2.1Z"/><path d="M62.67,330.26H61.39v-.33h1.29Z"/><path d="M61.71,319.87l-1.2-.14,0-.39,1.31-.13Z"/><path d="M570.32,194.57h1.24v.31h-1.24Z"/><path d="M403.18,183.79a18.66,18.66,0,0,1-1.94.61c-.09,0-.2-.19-.3-.3Z"/><path d="M574.83,203.12c0,.36-.07.73-.13,1.09a2.68,2.68,0,0,1-.33,0l.11-1.11Z"/><path d="M73.72,489.18l-.4.25.54-.1Z"/><path d="M29.85,488.81c-.37,0-.75.07-1.12.07,0,0-.06-.24-.09-.37l1.18-.11Z"/><path d="M35.4,491.06H34.1v-.32h1.3Z"/><polygon points="37.2 490.06 37.11 489.76 37.36 489.8 37.2 490.06"/><polygon points="43.37 490.82 43.71 490.78 43.68 490.96 43.37 490.82"/><path d="M285.08,494.08l-.36.3,0-.62Z"/><polygon points="31.97 489.66 32.1 489.85 31.79 489.81 31.97 489.66"/><path d="M143.56,451.12l-1.16,1.06.16.15,1.13-1.07Z"/><path d="M205.89,467.11l.35.2L206,467Z"/><polygon points="195.15 471.81 194.85 471.9 194.88 471.66 195.15 471.81"/><polygon points="78.58 486.86 78.44 486.59 78.77 486.62 78.58 486.86"/><path d="M365.72,167.84l.36-.54-.49.41Z"/><path d="M100.83,483.15l.27.29-.58,0Z"/><path d="M202.66,471.37l.51.27-.37-.42Z"/><polygon points="73.31 337.21 73.44 337.54 73.11 337.5 73.31 337.21"/><path d="M73.91,329.42l-.52-.06.38.2Z"/><path d="M534.72,296.33c-.1.08-.21.24-.31.23s-.17-.18-.26-.28c.1-.08.21-.24.31-.23S534.64,296.22,534.72,296.33Z"/><path d="M538,293.48l-.25.45.38-.33Z"/><path d="M539.22,234.47l.27-.82-.44.66Z"/><path d="M448.22,228.06l.71-.83.28.82.08-.07h-1.17Z"/><path d="M554.87,208l.44.18-.3-.32Z"/><path d="M482.61,202.44l-.35-.33c.12-.1.25-.28.37-.28s.23.2.35.31Z"/><path d="M410.53,185.84c.18.21.39.35.38.47s-.22.25-.34.37Z"/><path d="M421.64,175.19l.5.29-.37-.42Z"/><path d="M309.63,421.64l.37-.42-.51.27Z"/><path d="M311.7,418.3l.13.14Z"/><path d="M313.95,414.3l.26-.51-.41.36Z"/><path d="M507.45,407.94l.24-.41-.36.29Z"/><path d="M333.84,400.35l-.28.47.44-.31Z"/><path d="M334,400.52l1-1.09-.14-.14-1,1.07Z"/><path d="M335,399.43l.26-.32-.4.18Z"/><path d="M501.13,398.42l.28-.5-.42.36Z"/><path d="M500,396.29l.38-.55-.51.41Z"/><polygon points="395.8 393.68 395.74 393.38 395.96 393.42 395.8 393.68"/><polygon points="424.35 175.95 424.22 175.68 424.53 175.71 424.35 175.95"/><path d="M336,390.81l-1.07,1.13.08.09,1.12-1.07Z"/><polygon points="398.91 384.39 398.78 384 399.11 384.03 398.91 384.39"/><path d="M508.55,180.38l-.42-.32.29.46Z"/></svg>